<svg version="1.1" id="Layer_1" xmlns="http://www.w3.org/2000/svg" x="0" y="0" viewBox="0 0 159 38" xml:space="preserve"><style>.st1{fill:#00b8ff}</style><path fill="#c4c7cd" d="M150.03 23.51h-5.83l5.56 9.63H9.24l5.56-9.63H8.97L.63 37.95h157.74z"/><path class="st1" d="M52.04.05c-6.64 0-12.02 5.38-12.02 12.02s5.38 12.02 12.02 12.02 12.02-5.38 12.02-12.02C64.07 5.43 58.68.05 52.04.05zm0 18.97c-3.84 0-6.95-3.11-6.95-6.95 0-3.84 3.11-6.95 6.95-6.95s6.95 3.11 6.95 6.95c0 3.84-3.11 6.95-6.95 6.95zM23.05 6.77c0-2.79 7.31-2.82 8.89.76l4.11-2.37C34.92 2.45 30.82.05 26.76.05c-4.8 0-8.89 2.51-8.89 6.89 0 5 5.76 6.3 8.16 6.88s5.59 1.09 5.59 3.07c0 1.83-2.07 2.53-4.37 2.53-2.9 0-5.15-.97-6.13-3.22l-3.93 2.27c1.21 3.5 5.19 5.67 9.94 5.67 6.19 0 9.63-2.86 9.63-7.44 0-3.63-3.17-5.95-7.02-6.89-3.41-.85-6.69-1.33-6.69-3.04zM85.95 14.7c-1.01 2.59-3.26 4.34-6.21 4.34-3.84 0-6.83-3.12-6.83-6.96s2.99-6.96 6.83-6.96c2.81 0 5.12 1.57 6.22 3.96l4.52-2.61C88.56 2.62 84.36.05 79.74.05c-6.64 0-12.02 5.38-12.02 12.02S73.09 24.1 79.73 24.1c4.76 0 8.82-2.77 10.75-6.79l-4.53-2.61zM107.27.65h-5.71l-9.28 22.84h5.87l6.27-16.35 6.45 16.35h5.87zM135.76 15.15l.44-.26c2.25-1.35 3.54-3.64 3.54-6.29 0-4.67-3.44-7.93-8.36-7.93h-11.03v22.84h5.19V16.2h5.02l4.22 7.31h5.8l-4.82-8.36zm-4.69-3.44h-5.53V5.45h5.53c2.05 0 3.43 1.25 3.43 3.12.01 1.88-1.37 3.14-3.43 3.14z"/></svg>