<svg xmlns="http://www.w3.org/2000/svg" width="286.094" height="338.879" viewBox="0 0 286.094 338.879">
  <g id="로고" transform="translate(13714.674 21393.418)">
    <g id="그룹_4667" data-name="그룹 4667" transform="translate(-14252.301 -22407.375)">
      <path id="패스_4516" data-name="패스 4516" d="M739.042,1013.957a42.3,42.3,0,0,0-42.3,42.3,42.3,42.3,0,1,0-84.6,0c0,46.721,84.6,100.748,84.6,100.748s84.6-54.026,84.6-100.748A42.3,42.3,0,0,0,739.042,1013.957Z" transform="translate(-16.069)" fill="#0105ac"/>
      <path id="패스_4517" data-name="패스 4517" d="M854.484,1238.745V1075.263a61.306,61.306,0,0,0-61.306-61.306H753.736a42.3,42.3,0,0,1,42.3,42.3c0,46.711-84.558,100.723-84.6,100.748v.351c-17.713,13.84-31.147,22.419-31.147,22.419v120.235l.042.042H793.178A61.306,61.306,0,0,0,854.484,1238.745Z" transform="translate(-30.764)" fill="#ff7f8b"/>
      <path id="패스_4518" data-name="패스 4518" d="M649.527,1179.774s13.434-8.579,31.147-22.419V1157h0s-84.6-54.026-84.6-100.748a42.3,42.3,0,0,1,42.3-42.3H598.933a61.306,61.306,0,0,0-61.306,61.306v163.482a61.294,61.294,0,0,0,59.659,61.264H596.7a52.827,52.827,0,0,1,52.828,52.827v-52.785h.042l-.042-.042Z" fill="#ff1229"/>
      <circle id="타원_1227" data-name="타원 1227" cx="11.385" cy="11.385" r="11.385" transform="translate(669.29 1204.428)" fill="#0105ac"/>
      <circle id="타원_1228" data-name="타원 1228" cx="11.385" cy="11.385" r="11.385" transform="translate(669.29 1242.324)" fill="#0105ac"/>
    </g>
  </g>
</svg>
