<svg xmlns="http://www.w3.org/2000/svg" width="1920" height="913.693" viewBox="0 0 1920 913.693">
  <defs>
    <style>
      .cls-1 {
        fill: #ff1229;
      }
    </style>
  </defs>
  <g id="하단바" transform="translate(0 -8446.085)">
    <path id="패스_1550" data-name="패스 1550" class="cls-1" d="M0,8769.177v26.528H0v43.92H0v.017H0v258.341H0v261.8H1920V8749.125h-30.658c5.614-6.562,8.93-11.007,8.93-11.007l-9.477-3.345c8.971-1.292,24.094-9.676,31.2-13.855v-42.671a113.033,113.033,0,0,0-22.593.855,154.317,154.317,0,0,0,6.834-14.647,100.776,100.776,0,0,0,15.759-6.491V8447.982c-59.914,30.582-50.954,111.125-50.954,111.125-34.164-30.887-88.172-5.849-88.172-5.849,1.778,5.849,19.7,19.563,19.7,19.563.889,64.888,39.405,78.038,39.405,78.038-13.642,10.2-17.128,21.388-17.128,21.388-19.7-24.874-63.39-19.68-63.39-19.68,0,22.9,12.284,39.93,24.426,51.168-10.513-4.276-55.894-20.359-85.937,6.8,0,0,9.359-84.029-54.875-113.022,0,0-21.5,49.726,2.5,101.886,0,0-19.607-10.228-28.171-11.162,0,0-5.844,35.234,15.548,60.887H1578.1c-9.871-12.41-45.885-55.071-78.824-60.92,0,0,27.333-7.512,37.72-20.617,0,0-48.834-45.325-113.116-31.636,0,0,13.807-14.555,20.617-29.2,0,0-42.776-11.936-85.62,3.625l4.3-10.459s-28.266-5.825-69.451,21.481l-18.689-12.028c-9.408-4.918-22.577-10.34-29-7.934a6.729,6.729,0,0,0-1.083.336c-15.518-5.568-27.909-3.235-27.909-3.235,22.229-25.715,16.239-61.728,16.239-61.728-8.564.935-28.171,11.162-28.171,11.162,24.007-52.16,2.5-101.886,2.5-101.886-64.234,28.994-54.874,113.022-54.874,113.022-34.165-30.887-88.172-5.849-88.172-5.849,1.778,5.849,19.7,19.563,19.7,19.563.889,64.888,39.405,78.038,39.405,78.038-13.642,10.2-17.128,21.388-17.128,21.388-19.7-24.874-63.391-19.68-63.391-19.68,0,22.9,12.285,39.93,24.427,51.168-10.513-4.276-55.894-20.359-85.937,6.8,0,0,9.359-84.029-54.875-113.022,0,0-21.5,49.726,2.5,101.886,0,0-19.607-10.228-28.171-11.162,0,0-5.844,35.234,15.548,60.887H861.794c-9.871-12.41-45.885-55.071-78.825-60.92,0,0,27.334-7.512,37.721-20.617,0,0-48.834-45.325-113.116-31.636,0,0,13.807-14.555,20.617-29.2,0,0-42.777-11.936-85.62,3.625l4.3-10.459s-28.265-5.825-69.45,21.481l-18.689-12.028c-9.408-4.918-22.577-10.34-29-7.934a6.769,6.769,0,0,0-1.084.336c-15.517-5.568-27.908-3.235-27.908-3.235,22.229-25.715,16.239-61.728,16.239-61.728-8.564.935-28.171,11.162-28.171,11.162,24.007-52.16,2.5-101.886,2.5-101.886-64.234,28.994-54.874,113.022-54.874,113.022-34.165-30.887-88.172-5.849-88.172-5.849,1.778,5.849,19.7,19.563,19.7,19.563.889,64.888,39.4,78.038,39.4,78.038-13.642,10.2-17.128,21.388-17.128,21.388-19.7-24.874-63.391-19.68-63.391-19.68,0,22.9,12.285,39.93,24.427,51.168-10.513-4.276-55.894-20.359-85.937,6.8,0,0,9.359-84.029-54.875-113.022,0,0-21.5,49.726,2.5,101.886,0,0-19.608-10.228-28.172-11.162,0,0-5.843,35.234,15.549,60.887H145.492c-9.871-12.41-45.885-55.071-78.825-60.92,0,0,27.334-7.512,37.721-20.617,0,0-44.466-41.267-104.388-33.153v134.742Z"/>
    <g id="그룹_2067" data-name="그룹 2067">
      <path id="패스_1551" data-name="패스 1551" class="cls-1" d="M63.253,8665.6c-23.9-4.521-48.108-10.469-63.253-14.392v11.076c26.4,6.457,61.473,12.208,61.473,12.208C70.6,8671.988,63.253,8665.6,63.253,8665.6Z"/>
      <path id="패스_1552" data-name="패스 1552" class="cls-1" d="M415.475,8699.626s-9.757,33.415-14.53,37.721l11.535-1.8s19.749-29.53,12.075-72.705C424.555,8662.84,414.212,8692.37,415.475,8699.626Z"/>
      <path id="패스_1553" data-name="패스 1553" class="cls-1" d="M418.471,8594.722l-13.572-3.414s8.144,35.1,15.256,44.084C420.155,8635.392,423.2,8610.1,418.471,8594.722Z"/>
      <path id="패스_1554" data-name="패스 1554" class="cls-1" d="M440.419,8622.076s4.213-20.075,6.389-24.381l-16.73-.422s2.6,26.49,0,36.855Z"/>
      <path id="패스_1555" data-name="패스 1555" class="cls-1" d="M604.007,8638.175c27.8,33.394,61.634,63.7,61.634,63.7,3.932,6.436-1.215,9.359-1.215,9.359a42.828,42.828,0,0,0,9.875,2.69C638.663,8641.1,604.007,8638.175,604.007,8638.175Z"/>
      <path id="패스_1556" data-name="패스 1556" class="cls-1" d="M603.164,8653.034s16.241,44.2,52.229,53.983C655.393,8707.018,604.8,8658.229,603.164,8653.034Z"/>
      <path id="패스_1557" data-name="패스 1557" class="cls-1" d="M1131.777,8699.626s-9.757,33.415-14.53,37.721l11.535-1.8s19.749-29.53,12.075-72.705C1140.857,8662.84,1130.514,8692.37,1131.777,8699.626Z"/>
      <path id="패스_1558" data-name="패스 1558" class="cls-1" d="M1134.773,8594.722l-13.572-3.414s8.144,35.1,15.256,44.084C1136.457,8635.392,1139.5,8610.1,1134.773,8594.722Z"/>
      <path id="패스_1559" data-name="패스 1559" class="cls-1" d="M1156.721,8622.076s4.213-20.075,6.389-24.381l-16.73-.422s2.6,26.49,0,36.855Z"/>
      <path id="패스_1560" data-name="패스 1560" class="cls-1" d="M1366.524,8657.388c3.908,4.327,18.017,25.271,18.017,25.271l-.42-17.948a7.966,7.966,0,0,1-6.436-8.539Z"/>
      <path id="패스_1561" data-name="패스 1561" class="cls-1" d="M1320.309,8638.175c27.8,33.394,61.634,63.7,61.634,63.7,3.933,6.436-1.214,9.359-1.214,9.359a42.814,42.814,0,0,0,9.874,2.69C1354.965,8641.1,1320.309,8638.175,1320.309,8638.175Z"/>
      <path id="패스_1562" data-name="패스 1562" class="cls-1" d="M1319.466,8653.034s16.241,44.2,52.229,53.983C1371.695,8707.018,1321.1,8658.229,1319.466,8653.034Z"/>
      <path id="패스_1563" data-name="패스 1563" class="cls-1" d="M1746.127,8724.842a84.319,84.319,0,0,1,12.9-9.546c-25.094,5.849-51.242,21.5-51.242,21.5C1722.932,8736.022,1736.5,8730.262,1746.127,8724.842Z"/>
      <path id="패스_1564" data-name="패스 1564" class="cls-1" d="M1394.909,8673.322s2.284,43.1,31.83,75.8h6.38a7.332,7.332,0,0,1-.209-1.016S1411.476,8680.647,1394.909,8673.322Z"/>
      <path id="패스_1565" data-name="패스 1565" class="cls-1" d="M1394.276,8656.592v3.276s19.867,1.4,48.93,85.783C1443.206,8745.651,1456.5,8680.647,1394.276,8656.592Z"/>
      <path id="패스_1566" data-name="패스 1566" class="cls-1" d="M1232.491,8620.79c-35.5,9.407-77.5,33.742-77.5,33.742C1201.7,8664.877,1232.491,8620.79,1232.491,8620.79Z"/>
      <path id="패스_1567" data-name="패스 1567" class="cls-1" d="M1144.695,8724.992c27-27.448,66.69-34.75,66.69-34.75,9.9,0,3.93,8.073,3.93,8.073-42.822,11.957-59.061,30.865-59.061,30.865,32.526-3.465,67.649-37.229,67.649-37.229C1151.62,8673.51,1144.695,8724.992,1144.695,8724.992Z"/>
      <path id="패스_1568" data-name="패스 1568" class="cls-1" d="M1029.825,8724.842a84.319,84.319,0,0,1,12.9-9.546c-25.094,5.849-51.243,21.5-51.243,21.5C1006.63,8736.022,1020.2,8730.262,1029.825,8724.842Z"/>
      <path id="패스_1569" data-name="패스 1569" class="cls-1" d="M678.607,8673.322s2.284,43.1,31.83,75.8h6.38a7.341,7.341,0,0,1-.209-1.016S695.174,8680.647,678.607,8673.322Z"/>
      <path id="패스_1570" data-name="패스 1570" class="cls-1" d="M677.974,8656.592v3.276s19.867,1.4,48.93,85.783C726.9,8745.651,740.2,8680.647,677.974,8656.592Z"/>
      <path id="패스_1571" data-name="패스 1571" class="cls-1" d="M516.189,8620.79c-35.5,9.407-77.5,33.742-77.5,33.742C485.4,8664.877,516.189,8620.79,516.189,8620.79Z"/>
      <path id="패스_1572" data-name="패스 1572" class="cls-1" d="M428.393,8724.992c27-27.448,66.69-34.75,66.69-34.75,9.9,0,3.93,8.073,3.93,8.073-42.822,11.957-59.061,30.865-59.061,30.865,32.526-3.465,67.649-37.229,67.649-37.229C435.318,8673.51,428.393,8724.992,428.393,8724.992Z"/>
      <path id="패스_1573" data-name="패스 1573" class="cls-1" d="M313.523,8724.842a84.315,84.315,0,0,1,12.9-9.546c-25.094,5.849-51.243,21.5-51.243,21.5C290.328,8736.022,303.9,8730.262,313.523,8724.842Z"/>
      <path id="패스_1574" data-name="패스 1574" class="cls-1" d="M10.6,8745.651S17.024,8714.2,0,8686.959v30.405C3.372,8725.569,6.912,8734.938,10.6,8745.651Z"/>
      <path id="패스_1575" data-name="패스 1575" class="cls-1" d="M1848.08,8699.626s-9.758,33.415-14.531,37.721l11.535-1.8s19.75-29.53,12.075-72.705C1857.159,8662.84,1846.817,8692.37,1848.08,8699.626Z"/>
      <path id="패스_1576" data-name="패스 1576" class="cls-1" d="M1851.075,8594.722l-13.572-3.414s8.144,35.1,15.256,44.084C1852.759,8635.392,1855.8,8610.1,1851.075,8594.722Z"/>
      <path id="패스_1577" data-name="패스 1577" class="cls-1" d="M1872.556,8729.181c16.876-1.8,34.438-11.75,47.444-20.913v-6.333C1885.828,8713.734,1872.556,8729.181,1872.556,8729.181Z"/>
      <path id="패스_1578" data-name="패스 1578" class="cls-1" d="M1861,8724.992c19.694-20.02,46.132-29.32,59-32.89v-3.737C1866.587,8683.526,1861,8724.992,1861,8724.992Z"/>
      <path id="패스_1579" data-name="패스 1579" class="cls-1" d="M1873.024,8622.076s4.212-20.075,6.388-24.381l-16.73-.422s2.6,26.49,0,36.855Z"/>
      <path id="패스_1580" data-name="패스 1580" class="cls-1" d="M1884.607,8680.835l7.56-15s-18.3,1.241-24.245-2.269c0,0,2.013,18,.283,28.385Z"/>
      <path id="패스_1581" data-name="패스 1581" class="cls-1" d="M1871.294,8654.532c19.306,4.275,35.889-.75,48.706-8.116v-15.69A451.827,451.827,0,0,0,1871.294,8654.532Z"/>
      <path id="패스_1582" data-name="패스 1582" class="cls-1" d="M1869.935,8643.139c14.566-8.6,34.312-16.989,50.065-23.113v-10.954C1882.995,8615.021,1869.935,8643.139,1869.935,8643.139Z"/>
      <path id="패스_1583" data-name="패스 1583" class="cls-1" d="M1885.381,8612.25l13.783-7.675A281.2,281.2,0,0,0,1920,8575.547V8560.4C1892.48,8577.581,1885.381,8612.25,1885.381,8612.25Z"/>
      <path id="패스_1584" data-name="패스 1584" class="cls-1" d="M1905.971,8489.844s3.278-4.236,6.249-2.667l-13.948,57.214c-3.065,10.739-5.545,20.264-6.1,24.989,16.051-13.821,24.123-31.156,27.833-47.888v-54.4c-.789-3.943-1.44-6.216-1.44-6.216-56.722,42.542-36.572,106.354-36.572,106.354S1898.694,8500.466,1905.971,8489.844Z"/>
      <path id="패스_1585" data-name="패스 1585" class="cls-1" d="M1813.074,8554.452s39.685,12,59.061,27.026C1872.135,8581.479,1863.149,8547.971,1813.074,8554.452Z"/>
      <path id="패스_1586" data-name="패스 1586" class="cls-1" d="M1806.195,8563.462s23.54,20.4,53.024,21.9C1859.219,8585.362,1831.817,8568.958,1806.195,8563.462Z"/>
      <path id="패스_1587" data-name="패스 1587" class="cls-1" d="M1811.622,8579.255s-2.013,44.226,31.778,61.1c0,0-12.355-25.668-17.6-52.369Z"/>
      <path id="패스_1588" data-name="패스 1588" class="cls-1" d="M1847.284,8660.616s-29.156,9.01-32.152,83.586l4.354-1.311s18.345-30.887,20.03-53.562C1839.516,8689.33,1843.867,8664.455,1847.284,8660.616Z"/>
      <path id="패스_1589" data-name="패스 1589" class="cls-1" d="M1816.443,8681.092c-12.005-18.252-32.152-17.525-32.152-17.525,9.875,6.06,30.046,24.007,30.046,24.007Z"/>
      <path id="패스_1590" data-name="패스 1590" class="cls-1" d="M1808.3,8708.166l1.73-10.318c-9.079-11.583-36.832-29.46-36.832-29.46C1777.879,8693.657,1808.3,8708.166,1808.3,8708.166Z"/>
      <path id="패스_1591" data-name="패스 1591" class="cls-1" d="M1694.865,8732.908c19.376-15.022,59.061-27.027,59.061-27.027C1703.851,8699.4,1694.865,8732.908,1694.865,8732.908Z"/>
      <path id="패스_1592" data-name="패스 1592" class="cls-1" d="M1674.833,8720.81c-.56-4.726-3.04-14.25-6.1-24.989l-13.948-57.214c2.971-1.569,6.249,2.667,6.249,2.667,7.277,10.623,23.983,77.385,23.983,77.385s20.15-63.813-36.572-106.354C1648.44,8612.3,1628.69,8681.076,1674.833,8720.81Z"/>
      <path id="패스_1593" data-name="패스 1593" class="cls-1" d="M1676.847,8749.125c-5.9-14.108-18.147-34.566-41.464-42.939,0,0,8.925,19.4,27,42.939Z"/>
      <path id="패스_1594" data-name="패스 1594" class="cls-1" d="M1650.913,8749.125a136.773,136.773,0,0,1-21.5-33.041s.331,16.072,17.036,33.041Z"/>
      <path id="패스_1595" data-name="패스 1595" class="cls-1" d="M1547.288,8743.5s-40.248-10.833-87.843-42.8c0,0,24.477,51.808,103.687,45.724,0,0-4.236-6.271-8.542-8.588C1554.59,8737.837,1555.011,8746.425,1547.288,8743.5Z"/>
      <path id="패스_1596" data-name="패스 1596" class="cls-1" d="M1465.905,8692.933c57.024,35.545,85.6,41.979,85.6,41.979C1516,8690.733,1465.905,8692.933,1465.905,8692.933Z"/>
      <path id="패스_1597" data-name="패스 1597" class="cls-1" d="M1495.857,8665.6s7.347,6.389-1.78,8.893c0,0-49.093-8.049-74.833-15.8,0,0,16.287,13.644,17.128,16.591,0,0,48.345,20.265,83.1-6.762,0,0-42.846-38.212-102.353-21.457C1417.114,8647.068,1456.9,8658.229,1495.857,8665.6Z"/>
      <path id="패스_1598" data-name="패스 1598" class="cls-1" d="M1428.206,8613.605l-5.966-.257a4.753,4.753,0,0,1-3,5.5c-6.834,3.415-69.405,22.253-69.405,22.253C1399.074,8661.272,1428.206,8613.605,1428.206,8613.605Z"/>
      <path id="패스_1599" data-name="패스 1599" class="cls-1" d="M1336.97,8633.824c11.489-1.687,68.094-20.476,68.094-20.476-43.2-2.248-72.822,17.972-72.822,17.972Z"/>
      <path id="패스_1600" data-name="패스 1600" class="cls-1" d="M1343.1,8610.728s-20.267,2.878-32.248,13.665l11.14,2.106S1335.237,8616.694,1343.1,8610.728Z"/>
      <path id="패스_1601" data-name="패스 1601" class="cls-1" d="M1315.629,8687.853s-8.566-62.219-48.462-69.918c0,0,24.453,29.134,41.113,49.653,0,0,4.306,12.053-7.207,6.9,0,0-40.864-51.955-51.992-58.478q-.513.79-1.074,1.623C1248.782,8627.416,1255.636,8667.617,1315.629,8687.853Z"/>
      <path id="패스_1602" data-name="패스 1602" class="cls-1" d="M1153.633,8643.139c28.337-16.732,76.284-32.667,76.284-32.667,4.261-1.147,7.232,4.773,7.232,4.773l1.78-2.174a27.935,27.935,0,0,1,.371-2.94C1174.739,8597.713,1153.633,8643.139,1153.633,8643.139Z"/>
      <path id="패스_1603" data-name="패스 1603" class="cls-1" d="M1169.079,8612.25l13.782-7.675c21.738-26.514,32.454-49.819,32.454-49.819C1178.11,8568.117,1169.079,8612.25,1169.079,8612.25Z"/>
      <path id="패스_1604" data-name="패스 1604" class="cls-1" d="M1189.669,8489.844s3.278-4.236,6.249-2.667l-13.948,57.214c-3.065,10.739-5.545,20.264-6.1,24.989,46.142-39.733,26.393-108.506,26.393-108.506-56.722,42.542-36.572,106.354-36.572,106.354S1182.391,8500.466,1189.669,8489.844Z"/>
      <path id="패스_1605" data-name="패스 1605" class="cls-1" d="M1096.772,8554.452s39.685,12,59.061,27.026C1155.833,8581.479,1146.847,8547.971,1096.772,8554.452Z"/>
      <path id="패스_1606" data-name="패스 1606" class="cls-1" d="M1089.892,8563.462s23.54,20.4,53.025,21.9C1142.917,8585.362,1115.514,8568.958,1089.892,8563.462Z"/>
      <path id="패스_1607" data-name="패스 1607" class="cls-1" d="M1095.32,8579.255s-2.013,44.226,31.778,61.1c0,0-12.355-25.668-17.6-52.369Z"/>
      <path id="패스_1608" data-name="패스 1608" class="cls-1" d="M1130.982,8660.616s-29.157,9.01-32.152,83.586l4.354-1.311s18.345-30.887,20.03-53.562C1123.214,8689.33,1127.565,8664.455,1130.982,8660.616Z"/>
      <path id="패스_1609" data-name="패스 1609" class="cls-1" d="M1100.141,8681.092c-12.005-18.252-32.152-17.525-32.152-17.525,9.875,6.06,30.046,24.007,30.046,24.007Z"/>
      <path id="패스_1610" data-name="패스 1610" class="cls-1" d="M1092,8708.166l1.73-10.318c-9.079-11.583-36.832-29.46-36.832-29.46C1061.577,8693.657,1092,8708.166,1092,8708.166Z"/>
      <path id="패스_1611" data-name="패스 1611" class="cls-1" d="M978.563,8732.908c19.376-15.022,59.061-27.027,59.061-27.027C987.549,8699.4,978.563,8732.908,978.563,8732.908Z"/>
      <path id="패스_1612" data-name="패스 1612" class="cls-1" d="M958.531,8720.81c-.56-4.726-3.041-14.25-6.1-24.989l-13.948-57.214c2.971-1.569,6.249,2.667,6.249,2.667,7.277,10.623,23.983,77.385,23.983,77.385s20.15-63.813-36.573-106.354C932.137,8612.3,912.388,8681.076,958.531,8720.81Z"/>
      <path id="패스_1613" data-name="패스 1613" class="cls-1" d="M960.545,8749.125c-5.9-14.108-18.147-34.566-41.464-42.939,0,0,8.925,19.4,27,42.939Z"/>
      <path id="패스_1614" data-name="패스 1614" class="cls-1" d="M934.611,8749.125a136.769,136.769,0,0,1-21.5-33.041s.331,16.072,17.036,33.041Z"/>
      <path id="패스_1615" data-name="패스 1615" class="cls-1" d="M830.986,8743.5s-40.248-10.833-87.843-42.8c0,0,24.477,51.808,103.687,45.724,0,0-4.237-6.271-8.542-8.588C838.288,8737.837,838.709,8746.425,830.986,8743.5Z"/>
      <path id="패스_1616" data-name="패스 1616" class="cls-1" d="M749.6,8692.933c57.024,35.545,85.6,41.979,85.6,41.979C799.7,8690.733,749.6,8692.933,749.6,8692.933Z"/>
      <path id="패스_1617" data-name="패스 1617" class="cls-1" d="M779.555,8665.6s7.347,6.389-1.78,8.893c0,0-49.093-8.049-74.833-15.8,0,0,16.287,13.644,17.128,16.591,0,0,48.345,20.265,83.094-6.762,0,0-42.845-38.212-102.352-21.457C700.812,8647.068,740.593,8658.229,779.555,8665.6Z"/>
      <path id="패스_1618" data-name="패스 1618" class="cls-1" d="M711.9,8613.605l-5.966-.257a4.753,4.753,0,0,1-3,5.5c-6.834,3.415-69.405,22.253-69.405,22.253C682.771,8661.272,711.9,8613.605,711.9,8613.605Z"/>
      <path id="패스_1619" data-name="패스 1619" class="cls-1" d="M620.668,8633.824c11.489-1.687,68.094-20.476,68.094-20.476-43.2-2.248-72.822,17.972-72.822,17.972Z"/>
      <path id="패스_1620" data-name="패스 1620" class="cls-1" d="M626.8,8610.728s-20.266,2.878-32.247,13.665l11.139,2.106S618.935,8616.694,626.8,8610.728Z"/>
      <path id="패스_1621" data-name="패스 1621" class="cls-1" d="M599.327,8687.853s-8.566-62.219-48.462-69.918c0,0,24.452,29.134,41.113,49.653,0,0,4.306,12.053-7.207,6.9,0,0-40.864-51.955-51.992-58.478q-.513.79-1.075,1.623C532.48,8627.416,539.334,8667.617,599.327,8687.853Z"/>
      <path id="패스_1622" data-name="패스 1622" class="cls-1" d="M437.331,8643.139c28.337-16.732,76.284-32.667,76.284-32.667,4.261-1.147,7.232,4.773,7.232,4.773l1.78-2.174a27.664,27.664,0,0,1,.371-2.94C458.437,8597.713,437.331,8643.139,437.331,8643.139Z"/>
      <path id="패스_1623" data-name="패스 1623" class="cls-1" d="M486.237,8599.38c18.393-17.573,18.745-34.726,18.745-34.726a134.321,134.321,0,0,1-23.049,34.726Z"/>
      <path id="패스_1624" data-name="패스 1624" class="cls-1" d="M452.776,8612.25l13.783-7.675c21.738-26.514,32.454-49.819,32.454-49.819C461.808,8568.117,452.776,8612.25,452.776,8612.25Z"/>
      <path id="패스_1625" data-name="패스 1625" class="cls-1" d="M473.367,8489.844s3.278-4.236,6.249-2.667l-13.948,57.214c-3.065,10.739-5.545,20.264-6.105,24.989,46.142-39.733,26.393-108.506,26.393-108.506-56.722,42.542-36.572,106.354-36.572,106.354S466.089,8500.466,473.367,8489.844Z"/>
      <path id="패스_1626" data-name="패스 1626" class="cls-1" d="M380.47,8554.452s39.685,12,59.061,27.026C439.531,8581.479,430.545,8547.971,380.47,8554.452Z"/>
      <path id="패스_1627" data-name="패스 1627" class="cls-1" d="M373.59,8563.462s23.54,20.4,53.025,21.9C426.615,8585.362,399.212,8568.958,373.59,8563.462Z"/>
      <path id="패스_1628" data-name="패스 1628" class="cls-1" d="M379.018,8579.255s-2.013,44.226,31.778,61.1c0,0-12.355-25.668-17.6-52.369Z"/>
      <path id="패스_1629" data-name="패스 1629" class="cls-1" d="M414.68,8660.616s-29.157,9.01-32.152,83.586l4.354-1.311s18.345-30.887,20.029-53.562C406.911,8689.33,411.263,8664.455,414.68,8660.616Z"/>
      <path id="패스_1630" data-name="패스 1630" class="cls-1" d="M383.839,8681.092c-12-18.252-32.152-17.525-32.152-17.525,9.875,6.06,30.045,24.007,30.045,24.007Z"/>
      <path id="패스_1631" data-name="패스 1631" class="cls-1" d="M375.7,8708.166l1.73-10.318c-9.079-11.583-36.832-29.46-36.832-29.46C345.275,8693.657,375.7,8708.166,375.7,8708.166Z"/>
      <path id="패스_1632" data-name="패스 1632" class="cls-1" d="M262.261,8732.908c19.376-15.022,59.061-27.027,59.061-27.027C271.247,8699.4,262.261,8732.908,262.261,8732.908Z"/>
      <path id="패스_1633" data-name="패스 1633" class="cls-1" d="M242.229,8720.81c-.56-4.726-3.041-14.25-6.105-24.989l-13.948-57.214c2.971-1.569,6.249,2.667,6.249,2.667,7.277,10.623,23.983,77.385,23.983,77.385s20.149-63.813-36.573-106.354C215.835,8612.3,196.086,8681.076,242.229,8720.81Z"/>
      <path id="패스_1634" data-name="패스 1634" class="cls-1" d="M244.243,8749.125c-5.9-14.108-18.147-34.566-41.464-42.939,0,0,8.925,19.4,27,42.939Z"/>
      <path id="패스_1635" data-name="패스 1635" class="cls-1" d="M218.309,8749.125a136.769,136.769,0,0,1-21.5-33.041s.331,16.072,17.036,33.041Z"/>
      <path id="패스_1636" data-name="패스 1636" class="cls-1" d="M114.684,8743.5s-40.248-10.833-87.843-42.8c0,0,24.477,51.808,103.687,45.724,0,0-4.237-6.271-8.543-8.588C121.985,8737.837,122.407,8746.425,114.684,8743.5Z"/>
      <path id="패스_1637" data-name="패스 1637" class="cls-1" d="M33.3,8692.933c57.024,35.545,85.6,41.979,85.6,41.979C83.4,8690.733,33.3,8692.933,33.3,8692.933Z"/>
      <path id="패스_1638" data-name="패스 1638" class="cls-1" d="M63.253,8665.6s7.347,6.389-1.78,8.893c0,0-35.074-5.751-61.473-12.208v8.422c2.023,2.021,3.528,3.739,3.768,4.581,0,0,48.345,20.265,83.094-6.762,0,0-35.552-31.7-86.862-24.687v7.369C15.145,8655.131,39.352,8661.078,63.253,8665.6Z"/>
    </g>
  </g>
</svg>
