<svg xmlns="http://www.w3.org/2000/svg" width="1920" height="913.694" viewBox="0 0 1920 913.694">
  <g id="헤더" transform="translate(0 456.847)">
    <path id="헤더-2" data-name="헤더" d="M1919.883,133.755V107.227h0V63.307h0V63.29h0V-195.051h0v-261.8H-.117V153.807H30.541c-5.614,6.561-8.93,11.006-8.93,11.006l9.477,3.345c-8.971,1.292-24.094,9.675-31.2,13.855v42.672a113.081,113.081,0,0,0,22.593-.856,154.308,154.308,0,0,0-6.834,14.648A100.628,100.628,0,0,0-.117,244.968V454.949C59.8,424.368,50.837,343.824,50.837,343.824c34.164,30.887,88.172,5.849,88.172,5.849-1.778-5.849-19.7-19.563-19.7-19.563-.889-64.887-39.4-78.038-39.4-78.038,13.641-10.2,17.128-21.387,17.128-21.387,19.7,24.874,63.39,19.679,63.39,19.679,0-22.9-12.284-39.929-24.426-51.167,10.512,4.276,55.894,20.359,85.937-6.8,0,0-9.359,84.028,54.875,113.022,0,0,21.5-49.725-2.5-101.885,0,0,19.607,10.227,28.171,11.161,0,0,5.844-35.234-15.548-60.886h54.864c9.871,12.409,45.884,55.071,78.824,60.92,0,0-27.333,7.512-37.72,20.616,0,0,48.834,45.326,113.116,31.637,0,0-13.807,14.554-20.617,29.2,0,0,42.776,11.935,85.62-3.625l-4.3,10.459s28.266,5.825,69.451-21.482l18.689,12.029c9.408,4.918,22.577,10.339,29,7.933a6.707,6.707,0,0,0,1.083-.335c15.518,5.568,27.909,3.235,27.909,3.235C680.607,330.11,686.6,366.123,686.6,366.123c8.564-.935,28.171-11.162,28.171-11.162-24.007,52.16-2.5,101.886-2.5,101.886,64.234-28.994,54.875-113.023,54.875-113.023,34.165,30.887,88.172,5.849,88.172,5.849-1.778-5.849-19.7-19.563-19.7-19.563-.889-64.887-39.4-78.038-39.4-78.038,13.642-10.2,17.128-21.387,17.128-21.387,19.7,24.874,63.391,19.679,63.391,19.679,0-22.9-12.285-39.929-24.427-51.167,10.513,4.276,55.894,20.359,85.937-6.8,0,0-9.359,84.028,54.875,113.022,0,0,21.5-49.725-2.5-101.885,0,0,19.607,10.227,28.171,11.161,0,0,5.844-35.234-15.548-60.886h54.864c9.871,12.409,45.884,55.071,78.825,60.92,0,0-27.334,7.512-37.721,20.616,0,0,48.834,45.326,113.116,31.637,0,0-13.807,14.554-20.617,29.2,0,0,42.776,11.935,85.62-3.625l-4.3,10.459s28.266,5.825,69.451-21.482l18.689,12.029c9.408,4.918,22.577,10.339,29,7.933a6.742,6.742,0,0,0,1.084-.335c15.517,5.568,27.908,3.235,27.908,3.235-22.229,25.714-16.239,61.727-16.239,61.727,8.564-.935,28.171-11.162,28.171-11.162-24.007,52.16-2.5,101.886-2.5,101.886,64.235-28.994,54.875-113.023,54.875-113.023,34.165,30.887,88.172,5.849,88.172,5.849-1.778-5.849-19.7-19.563-19.7-19.563-.889-64.887-39.405-78.038-39.405-78.038,13.642-10.2,17.128-21.387,17.128-21.387,19.7,24.874,63.391,19.679,63.391,19.679,0-22.9-12.285-39.929-24.427-51.167,10.513,4.276,55.894,20.359,85.937-6.8,0,0-9.359,84.028,54.875,113.022,0,0,21.5-49.725-2.5-101.885,0,0,19.608,10.227,28.172,11.161,0,0,5.843-35.234-15.549-60.886h54.864c9.871,12.409,45.885,55.071,78.825,60.92,0,0-27.334,7.512-37.721,20.616,0,0,44.466,41.268,104.388,33.154V133.755Z" transform="translate(0.117)" fill="#ff1229"/>
    <g id="그룹_3" data-name="그룹 3" transform="translate(0.117)">
      <path id="패스_91" data-name="패스 91" d="M1856.63,237.332c23.9,4.522,48.108,10.469,63.253,14.392V240.648c-26.4-6.458-61.473-12.208-61.473-12.208C1849.283,230.944,1856.63,237.332,1856.63,237.332Z" fill="#ff1229"/>
      <path id="패스_92" data-name="패스 92" d="M1504.408,203.306s9.757-33.415,14.53-37.721l-11.535,1.8s-19.749,29.53-12.075,72.705C1495.328,240.092,1505.67,210.562,1504.408,203.306Z" fill="#ff1229"/>
      <path id="패스_93" data-name="패스 93" d="M1501.412,308.21l13.572,3.414s-8.144-35.1-15.256-44.084C1499.728,267.54,1496.685,292.836,1501.412,308.21Z" fill="#ff1229"/>
      <path id="패스_94" data-name="패스 94" d="M1479.463,280.855s-4.212,20.076-6.388,24.381l16.73.422s-2.6-26.49,0-36.855Z" fill="#ff1229"/>
      <path id="패스_95" data-name="패스 95" d="M1315.876,264.756c-27.8-33.393-61.634-63.7-61.634-63.7-3.932-6.436,1.214-9.359,1.214-9.359a42.788,42.788,0,0,0-9.874-2.691C1281.22,261.831,1315.876,264.756,1315.876,264.756Z" fill="#ff1229"/>
      <path id="패스_96" data-name="패스 96" d="M1316.719,249.9s-16.241-44.2-52.229-53.983C1264.49,195.914,1315.08,244.7,1316.719,249.9Z" fill="#ff1229"/>
      <path id="패스_97" data-name="패스 97" d="M788.106,203.306s9.757-33.415,14.53-37.721l-11.535,1.8s-19.749,29.53-12.075,72.705C779.026,240.092,789.368,210.562,788.106,203.306Z" fill="#ff1229"/>
      <path id="패스_98" data-name="패스 98" d="M785.11,308.21l13.572,3.414s-8.144-35.1-15.256-44.084C783.426,267.54,780.383,292.836,785.11,308.21Z" fill="#ff1229"/>
      <path id="패스_99" data-name="패스 99" d="M763.161,280.855s-4.212,20.076-6.388,24.381l16.73.422s-2.6-26.49,0-36.855Z" fill="#ff1229"/>
      <path id="패스_100" data-name="패스 100" d="M553.359,245.543c-3.908-4.327-18.017-25.269-18.017-25.269l.42,17.947a7.968,7.968,0,0,1,6.436,8.54Z" fill="#ff1229"/>
      <path id="패스_101" data-name="패스 101" d="M599.574,264.756c-27.8-33.393-61.634-63.7-61.634-63.7-3.933-6.436,1.214-9.359,1.214-9.359a42.787,42.787,0,0,0-9.874-2.691C564.918,261.831,599.574,264.756,599.574,264.756Z" fill="#ff1229"/>
      <path id="패스_102" data-name="패스 102" d="M600.417,249.9s-16.241-44.2-52.229-53.983C548.188,195.914,598.778,244.7,600.417,249.9Z" fill="#ff1229"/>
      <path id="패스_103" data-name="패스 103" d="M173.756,178.09a84.352,84.352,0,0,1-12.9,9.546c25.094-5.849,51.242-21.5,51.242-21.5C196.951,166.909,183.38,172.67,173.756,178.09Z" fill="#ff1229"/>
      <path id="패스_104" data-name="패스 104" d="M524.974,229.609s-2.284-43.1-31.83-75.8h-6.38a7.323,7.323,0,0,1,.209,1.015S508.407,222.284,524.974,229.609Z" fill="#ff1229"/>
      <path id="패스_105" data-name="패스 105" d="M525.607,246.339v-3.276s-19.867-1.4-48.93-85.782C476.677,157.281,463.385,222.284,525.607,246.339Z" fill="#ff1229"/>
      <path id="패스_106" data-name="패스 106" d="M687.392,282.142c35.5-9.408,77.5-33.743,77.5-33.743C718.185,238.055,687.392,282.142,687.392,282.142Z" fill="#ff1229"/>
      <path id="패스_107" data-name="패스 107" d="M775.188,177.939c-27,27.449-66.69,34.75-66.69,34.75-9.9,0-3.93-8.073-3.93-8.073,42.822-11.957,59.061-30.865,59.061-30.865C731.1,177.216,695.98,210.98,695.98,210.98,768.263,229.422,775.188,177.939,775.188,177.939Z" fill="#ff1229"/>
      <path id="패스_108" data-name="패스 108" d="M890.058,178.09a84.35,84.35,0,0,1-12.9,9.546c25.094-5.849,51.242-21.5,51.242-21.5C913.253,166.909,899.683,172.67,890.058,178.09Z" fill="#ff1229"/>
      <path id="패스_109" data-name="패스 109" d="M1241.276,229.609s-2.284-43.1-31.83-75.8h-6.38a7.332,7.332,0,0,1,.209,1.015S1224.709,222.284,1241.276,229.609Z" fill="#ff1229"/>
      <path id="패스_110" data-name="패스 110" d="M1241.909,246.339v-3.276s-19.867-1.4-48.93-85.782C1192.979,157.281,1179.687,222.284,1241.909,246.339Z" fill="#ff1229"/>
      <path id="패스_111" data-name="패스 111" d="M1403.694,282.142c35.5-9.408,77.5-33.743,77.5-33.743C1434.487,238.055,1403.694,282.142,1403.694,282.142Z" fill="#ff1229"/>
      <path id="패스_112" data-name="패스 112" d="M1491.49,177.939c-27,27.449-66.69,34.75-66.69,34.75-9.9,0-3.93-8.073-3.93-8.073,42.822-11.957,59.061-30.865,59.061-30.865-32.526,3.465-67.649,37.229-67.649,37.229C1484.565,229.422,1491.49,177.939,1491.49,177.939Z" fill="#ff1229"/>
      <path id="패스_113" data-name="패스 113" d="M1606.36,178.09a84.35,84.35,0,0,1-12.9,9.546c25.094-5.849,51.243-21.5,51.243-21.5C1629.555,166.909,1615.985,172.67,1606.36,178.09Z" fill="#ff1229"/>
      <path id="패스_114" data-name="패스 114" d="M1909.281,157.281s-6.422,31.448,10.6,58.692V185.567C1916.511,177.363,1912.971,167.993,1909.281,157.281Z" fill="#ff1229"/>
      <path id="패스_115" data-name="패스 115" d="M71.8,203.306s9.757-33.415,14.531-37.721l-11.535,1.8s-19.75,29.53-12.075,72.705C62.724,240.092,73.066,210.562,71.8,203.306Z" fill="#ff1229"/>
      <path id="패스_116" data-name="패스 116" d="M68.808,308.21l13.572,3.414s-8.144-35.1-15.256-44.084C67.124,267.54,64.081,292.836,68.808,308.21Z" fill="#ff1229"/>
      <path id="패스_117" data-name="패스 117" d="M47.327,173.751c-16.876,1.8-34.438,11.749-47.444,20.913V201C34.055,189.2,47.327,173.751,47.327,173.751Z" fill="#ff1229"/>
      <path id="패스_118" data-name="패스 118" d="M58.886,177.939c-19.695,20.019-46.133,29.32-59,32.89v3.737C53.3,219.406,58.886,177.939,58.886,177.939Z" fill="#ff1229"/>
      <path id="패스_119" data-name="패스 119" d="M46.859,280.855s-4.212,20.076-6.388,24.381l16.73.422s-2.6-26.49,0-36.855Z" fill="#ff1229"/>
      <path id="패스_120" data-name="패스 120" d="M35.276,222.1l-7.56,15s18.3-1.242,24.245,2.268c0,0-2.013-18-.283-28.385Z" fill="#ff1229"/>
      <path id="패스_121" data-name="패스 121" d="M48.589,248.4c-19.306-4.275-35.889.751-48.706,8.117v15.69A451.938,451.938,0,0,0,48.589,248.4Z" fill="#ff1229"/>
      <path id="패스_122" data-name="패스 122" d="M49.948,259.793c-14.566,8.6-34.312,16.99-50.065,23.113v10.955C36.888,287.911,49.948,259.793,49.948,259.793Z" fill="#ff1229"/>
      <path id="패스_123" data-name="패스 123" d="M34.5,290.682l-13.783,7.674A281.4,281.4,0,0,0-.117,327.384v15.151C27.4,325.351,34.5,290.682,34.5,290.682Z" fill="#ff1229"/>
      <path id="패스_124" data-name="패스 124" d="M13.912,413.088s-3.278,4.236-6.249,2.667l13.948-57.214c3.064-10.739,5.545-20.264,6.1-24.989C11.665,347.373,3.593,364.708-.117,381.439v54.4c.789,3.943,1.439,6.216,1.439,6.216C58.045,399.516,37.9,335.7,37.9,335.7S21.189,402.466,13.912,413.088Z" fill="#ff1229"/>
      <path id="패스_125" data-name="패스 125" d="M106.809,348.479s-39.685-12-59.061-27.026C47.748,321.453,56.734,354.961,106.809,348.479Z" fill="#ff1229"/>
      <path id="패스_126" data-name="패스 126" d="M113.688,339.47s-23.54-20.4-53.024-21.9C60.664,317.569,88.066,333.974,113.688,339.47Z" fill="#ff1229"/>
      <path id="패스_127" data-name="패스 127" d="M108.261,323.677s2.013-44.226-31.778-61.1c0,0,12.355,25.668,17.6,52.369Z" fill="#ff1229"/>
      <path id="패스_128" data-name="패스 128" d="M72.6,242.315s29.156-9.009,32.152-83.586L100.4,160.04S82.052,190.927,80.367,213.6C80.367,213.6,76.016,238.477,72.6,242.315Z" fill="#ff1229"/>
      <path id="패스_129" data-name="패스 129" d="M103.44,221.84c12,18.252,32.152,17.525,32.152,17.525-9.875-6.059-30.046-24.007-30.046-24.007Z" fill="#ff1229"/>
      <path id="패스_130" data-name="패스 130" d="M111.582,194.766l-1.73,10.318c9.079,11.583,36.832,29.46,36.832,29.46C142,209.274,111.582,194.766,111.582,194.766Z" fill="#ff1229"/>
      <path id="패스_131" data-name="패스 131" d="M225.018,170.024c-19.376,15.021-59.061,27.026-59.061,27.026C216.032,203.532,225.018,170.024,225.018,170.024Z" fill="#ff1229"/>
      <path id="패스_132" data-name="패스 132" d="M245.05,182.122c.56,4.726,3.04,14.25,6.1,24.99L265.1,264.325c-2.971,1.57-6.249-2.667-6.249-2.667-7.278-10.622-23.983-77.384-23.983-77.384s-20.15,63.812,36.572,106.354C271.443,290.628,291.192,221.855,245.05,182.122Z" fill="#ff1229"/>
      <path id="패스_133" data-name="패스 133" d="M243.036,153.807c5.9,14.108,18.147,34.566,41.464,42.939,0,0-8.925-19.4-27-42.939Z" fill="#ff1229"/>
      <path id="패스_134" data-name="패스 134" d="M268.97,153.807a136.751,136.751,0,0,1,21.5,33.041s-.331-16.073-17.036-33.041Z" fill="#ff1229"/>
      <path id="패스_135" data-name="패스 135" d="M372.6,159.433s40.248,10.833,87.843,42.8c0,0-24.477-51.807-103.687-45.723,0,0,4.236,6.271,8.542,8.588C365.293,165.1,364.872,156.507,372.6,159.433Z" fill="#ff1229"/>
      <path id="패스_136" data-name="패스 136" d="M453.978,210c-57.024-35.545-85.6-41.978-85.6-41.978C403.879,212.2,453.978,210,453.978,210Z" fill="#ff1229"/>
      <path id="패스_137" data-name="패스 137" d="M424.026,237.332s-7.347-6.388,1.78-8.892c0,0,49.093,8.049,74.833,15.795,0,0-16.287-13.643-17.128-16.59,0,0-48.345-20.265-83.1,6.761,0,0,42.846,38.212,102.353,21.458C502.769,255.864,462.987,244.7,424.026,237.332Z" fill="#ff1229"/>
      <path id="패스_138" data-name="패스 138" d="M491.677,289.327l5.966.256a4.754,4.754,0,0,1,3-5.5c6.833-3.414,69.4-22.252,69.4-22.252C520.809,241.66,491.677,289.327,491.677,289.327Z" fill="#ff1229"/>
      <path id="패스_139" data-name="패스 139" d="M582.913,269.107c-11.489,1.687-68.094,20.476-68.094,20.476,43.2,2.248,72.822-17.971,72.822-17.971Z" fill="#ff1229"/>
      <path id="패스_140" data-name="패스 140" d="M576.781,292.2s20.267-2.877,32.248-13.665l-11.14-2.106S584.646,286.238,576.781,292.2Z" fill="#ff1229"/>
      <path id="패스_141" data-name="패스 141" d="M604.254,215.079S612.82,277.3,652.716,285c0,0-24.453-29.133-41.113-49.654,0,0-4.306-12.052,7.207-6.9,0,0,40.864,51.955,51.992,58.477q.513-.789,1.074-1.623C671.1,275.516,664.247,235.314,604.254,215.079Z" fill="#ff1229"/>
      <path id="패스_142" data-name="패스 142" d="M766.25,259.793c-28.337,16.732-76.284,32.667-76.284,32.667-4.261,1.147-7.232-4.773-7.232-4.773l-1.78,2.173a27.894,27.894,0,0,1-.371,2.941C745.144,305.218,766.25,259.793,766.25,259.793Z" fill="#ff1229"/>
      <path id="패스_143" data-name="패스 143" d="M750.8,290.682l-13.782,7.674c-21.738,26.514-32.454,49.82-32.454,49.82C741.773,334.814,750.8,290.682,750.8,290.682Z" fill="#ff1229"/>
      <path id="패스_144" data-name="패스 144" d="M730.214,413.088s-3.278,4.236-6.249,2.667l13.948-57.214c3.065-10.739,5.545-20.264,6.1-24.989-46.142,39.733-26.393,108.506-26.393,108.506C774.347,399.516,754.2,335.7,754.2,335.7S737.492,402.466,730.214,413.088Z" fill="#ff1229"/>
      <path id="패스_145" data-name="패스 145" d="M823.111,348.479s-39.685-12-59.061-27.026C764.05,321.453,773.036,354.961,823.111,348.479Z" fill="#ff1229"/>
      <path id="패스_146" data-name="패스 146" d="M829.991,339.47s-23.54-20.4-53.025-21.9C776.966,317.569,804.368,333.974,829.991,339.47Z" fill="#ff1229"/>
      <path id="패스_147" data-name="패스 147" d="M824.563,323.677s2.013-44.226-31.778-61.1c0,0,12.355,25.668,17.6,52.369Z" fill="#ff1229"/>
      <path id="패스_148" data-name="패스 148" d="M788.9,242.315s29.157-9.009,32.152-83.586L816.7,160.04s-18.345,30.887-20.03,53.562C796.669,213.6,792.318,238.477,788.9,242.315Z" fill="#ff1229"/>
      <path id="패스_149" data-name="패스 149" d="M819.742,221.84c12.005,18.252,32.152,17.525,32.152,17.525-9.875-6.059-30.046-24.007-30.046-24.007Z" fill="#ff1229"/>
      <path id="패스_150" data-name="패스 150" d="M827.884,194.766l-1.73,10.318c9.079,11.583,36.832,29.46,36.832,29.46C858.306,209.274,827.884,194.766,827.884,194.766Z" fill="#ff1229"/>
      <path id="패스_151" data-name="패스 151" d="M941.32,170.024c-19.376,15.021-59.061,27.026-59.061,27.026C932.334,203.532,941.32,170.024,941.32,170.024Z" fill="#ff1229"/>
      <path id="패스_152" data-name="패스 152" d="M961.352,182.122c.56,4.726,3.041,14.25,6.1,24.99l13.948,57.213c-2.971,1.57-6.249-2.667-6.249-2.667-7.277-10.622-23.983-77.384-23.983-77.384s-20.15,63.812,36.573,106.354C987.746,290.628,1007.495,221.855,961.352,182.122Z" fill="#ff1229"/>
      <path id="패스_153" data-name="패스 153" d="M959.338,153.807c5.9,14.108,18.147,34.566,41.464,42.939,0,0-8.925-19.4-27-42.939Z" fill="#ff1229"/>
      <path id="패스_154" data-name="패스 154" d="M985.272,153.807a136.751,136.751,0,0,1,21.5,33.041s-.331-16.073-17.036-33.041Z" fill="#ff1229"/>
      <path id="패스_155" data-name="패스 155" d="M1088.9,159.433s40.248,10.833,87.843,42.8c0,0-24.477-51.807-103.687-45.723,0,0,4.237,6.271,8.542,8.588C1081.595,165.1,1081.174,156.507,1088.9,159.433Z" fill="#ff1229"/>
      <path id="패스_156" data-name="패스 156" d="M1170.28,210c-57.024-35.545-85.6-41.978-85.6-41.978C1120.181,212.2,1170.28,210,1170.28,210Z" fill="#ff1229"/>
      <path id="패스_157" data-name="패스 157" d="M1140.328,237.332s-7.347-6.388,1.78-8.892c0,0,49.093,8.049,74.833,15.795,0,0-16.287-13.643-17.128-16.59,0,0-48.345-20.265-83.095,6.761,0,0,42.846,38.212,102.353,21.458C1219.071,255.864,1179.29,244.7,1140.328,237.332Z" fill="#ff1229"/>
      <path id="패스_158" data-name="패스 158" d="M1207.979,289.327l5.966.256a4.754,4.754,0,0,1,3-5.5c6.834-3.414,69.4-22.252,69.4-22.252C1237.112,241.66,1207.979,289.327,1207.979,289.327Z" fill="#ff1229"/>
      <path id="패스_159" data-name="패스 159" d="M1299.215,269.107c-11.489,1.687-68.094,20.476-68.094,20.476,43.2,2.248,72.822-17.971,72.822-17.971Z" fill="#ff1229"/>
      <path id="패스_160" data-name="패스 160" d="M1293.083,292.2s20.267-2.877,32.248-13.665l-11.14-2.106S1300.948,286.238,1293.083,292.2Z" fill="#ff1229"/>
      <path id="패스_161" data-name="패스 161" d="M1320.556,215.079s8.566,62.219,48.462,69.918c0,0-24.452-29.133-41.113-49.654,0,0-4.306-12.052,7.207-6.9,0,0,40.864,51.955,51.992,58.477q.513-.789,1.075-1.623C1387.4,275.516,1380.549,235.314,1320.556,215.079Z" fill="#ff1229"/>
      <path id="패스_162" data-name="패스 162" d="M1482.552,259.793c-28.337,16.732-76.284,32.667-76.284,32.667-4.261,1.147-7.232-4.773-7.232-4.773l-1.78,2.173a27.878,27.878,0,0,1-.371,2.941C1461.446,305.218,1482.552,259.793,1482.552,259.793Z" fill="#ff1229"/>
      <path id="패스_163" data-name="패스 163" d="M1433.646,303.552c-18.393,17.573-18.745,34.725-18.745,34.725a134.284,134.284,0,0,1,23.049-34.725Z" fill="#ff1229"/>
      <path id="패스_164" data-name="패스 164" d="M1467.107,290.682l-13.783,7.674c-21.738,26.514-32.454,49.82-32.454,49.82C1458.075,334.814,1467.107,290.682,1467.107,290.682Z" fill="#ff1229"/>
      <path id="패스_165" data-name="패스 165" d="M1446.516,413.088s-3.278,4.236-6.249,2.667l13.948-57.214c3.065-10.739,5.545-20.264,6.1-24.989-46.142,39.733-26.393,108.506-26.393,108.506C1490.649,399.516,1470.5,335.7,1470.5,335.7S1453.794,402.466,1446.516,413.088Z" fill="#ff1229"/>
      <path id="패스_166" data-name="패스 166" d="M1539.413,348.479s-39.685-12-59.061-27.026C1480.352,321.453,1489.338,354.961,1539.413,348.479Z" fill="#ff1229"/>
      <path id="패스_167" data-name="패스 167" d="M1546.293,339.47s-23.54-20.4-53.025-21.9C1493.268,317.569,1520.67,333.974,1546.293,339.47Z" fill="#ff1229"/>
      <path id="패스_168" data-name="패스 168" d="M1540.865,323.677s2.013-44.226-31.778-61.1c0,0,12.355,25.668,17.6,52.369Z" fill="#ff1229"/>
      <path id="패스_169" data-name="패스 169" d="M1505.2,242.315s29.157-9.009,32.152-83.586L1533,160.04s-18.345,30.887-20.029,53.562C1512.972,213.6,1508.62,238.477,1505.2,242.315Z" fill="#ff1229"/>
      <path id="패스_170" data-name="패스 170" d="M1536.044,221.84c12.005,18.252,32.152,17.525,32.152,17.525-9.875-6.059-30.046-24.007-30.046-24.007Z" fill="#ff1229"/>
      <path id="패스_171" data-name="패스 171" d="M1544.186,194.766l-1.73,10.318c9.079,11.583,36.832,29.46,36.832,29.46C1574.608,209.274,1544.186,194.766,1544.186,194.766Z" fill="#ff1229"/>
      <path id="패스_172" data-name="패스 172" d="M1657.622,170.024c-19.376,15.021-59.061,27.026-59.061,27.026C1648.636,203.532,1657.622,170.024,1657.622,170.024Z" fill="#ff1229"/>
      <path id="패스_173" data-name="패스 173" d="M1677.654,182.122c.56,4.726,3.041,14.25,6.1,24.99l13.948,57.213c-2.971,1.57-6.249-2.667-6.249-2.667-7.277-10.622-23.983-77.384-23.983-77.384s-20.149,63.812,36.573,106.354C1704.048,290.628,1723.8,221.855,1677.654,182.122Z" fill="#ff1229"/>
      <path id="패스_174" data-name="패스 174" d="M1675.64,153.807c5.9,14.108,18.147,34.566,41.464,42.939,0,0-8.925-19.4-27-42.939Z" fill="#ff1229"/>
      <path id="패스_175" data-name="패스 175" d="M1701.574,153.807a136.747,136.747,0,0,1,21.5,33.041s-.331-16.073-17.036-33.041Z" fill="#ff1229"/>
      <path id="패스_176" data-name="패스 176" d="M1805.2,159.433s40.248,10.833,87.843,42.8c0,0-24.477-51.807-103.687-45.723,0,0,4.237,6.271,8.543,8.588C1797.9,165.1,1797.476,156.507,1805.2,159.433Z" fill="#ff1229"/>
      <path id="패스_177" data-name="패스 177" d="M1886.582,210c-57.024-35.545-85.6-41.978-85.6-41.978C1836.483,212.2,1886.582,210,1886.582,210Z" fill="#ff1229"/>
      <path id="패스_178" data-name="패스 178" d="M1856.63,237.332s-7.347-6.388,1.78-8.892c0,0,35.073,5.75,61.473,12.208v-8.422c-2.023-2.021-3.528-3.739-3.768-4.581,0,0-48.345-20.265-83.094,6.761,0,0,35.552,31.7,86.862,24.686v-7.368C1904.738,247.8,1880.531,241.854,1856.63,237.332Z" fill="#ff1229"/>
    </g>
  </g>
</svg>
