<svg xmlns="http://www.w3.org/2000/svg" width="740.504" height="868.463" viewBox="0 0 740.504 868.463">
  <g id="웹페이지_부름로고" data-name="웹페이지 부름로고" transform="translate(203.362 -238.7)">
    <path id="패스_2178" data-name="패스 2178" d="M365.042,262.2H269.425A102.532,102.532,0,0,0,166.89,364.735h0A102.532,102.532,0,0,0,64.355,262.2H-31.253A148.6,148.6,0,0,0-179.862,410.8V807.095A148.575,148.575,0,0,0-35.25,955.6h-1.418A128.066,128.066,0,0,1,91.385,1083.663V955.7H365.033A148.6,148.6,0,0,0,513.642,807.1V410.809A148.6,148.6,0,0,0,365.042,262.2ZM91.385,955.61v-.01" transform="translate(0 0)" fill="none" stroke="#fff" stroke-linecap="square" stroke-linejoin="round" stroke-width="47"/>
    <g id="그룹_2381" data-name="그룹 2381" transform="translate(-179.862 262.2)">
      <path id="패스_2174" data-name="패스 2174" d="M142.735,262.2A102.532,102.532,0,0,0,40.2,364.735h0A102.532,102.532,0,0,0-62.336,262.2,102.532,102.532,0,0,0-164.871,364.735h0c0,113.253,205.07,244.217,205.07,244.217S245.27,477.988,245.27,364.735A102.532,102.532,0,0,0,142.735,262.2Z" transform="translate(306.553 -262.2)" fill="#0105ac"/>
      <path id="패스_2175" data-name="패스 2175" d="M271.1,807.095V410.809A148.6,148.6,0,0,0,122.5,262.2H26.878A102.53,102.53,0,0,1,129.414,364.726v.01c0,113.224-204.976,244.16-205.07,244.217v.851c-42.937,33.552-75.505,54.344-75.505,54.344V955.6l.1.1H122.486A148.6,148.6,0,0,0,271.1,807.1Z" transform="translate(422.409 -262.2)" fill="#ff7f8b"/>
      <path id="패스_2176" data-name="패스 2176" d="M91.385,664.146s32.568-20.792,75.505-54.344v-.851h0S-38.18,477.988-38.18,364.735A102.532,102.532,0,0,1,64.355,262.2H-31.253A148.6,148.6,0,0,0-179.862,410.8h0V807.095A148.575,148.575,0,0,0-35.25,955.6h-1.418A128.06,128.06,0,0,1,91.385,1083.663V955.7h.1l-.1-.1Z" transform="translate(179.862 -262.2)" fill="#ff1229"/>
      <circle id="타원_199" data-name="타원 199" cx="27.597" cy="27.597" r="27.597" transform="translate(319.158 461.712)" fill="#0105ac"/>
      <circle id="타원_200" data-name="타원 200" cx="27.597" cy="27.597" r="27.597" transform="translate(319.158 553.573)" fill="#0105ac"/>
    </g>
  </g>
</svg>
