<svg xmlns="http://www.w3.org/2000/svg" xmlns:xlink="http://www.w3.org/1999/xlink" width="808.252" height="522.162" viewBox="0 0 808.252 522.162">
  <defs>
    <clipPath id="clip-path">
      <path id="패스_312" data-name="패스 312" d="M1373.574,948.294,1266.9,889.919l276.49-59.494L1650.064,888.8Z" fill="none"/>
    </clipPath>
    <clipPath id="clip-path-2">
      <path id="패스_314" data-name="패스 314" d="M1395.109,933.209l-79.26-43.372,206.007-44.328,79.26,43.372Z" fill="none"/>
    </clipPath>
  </defs>
  <g id="페이지1_그림" data-name="페이지1 그림" transform="translate(-870.22 -544.951)">
    <g id="캠퍼스" transform="translate(0.117)">
      <g id="그룹_9" data-name="그룹 9">
        <path id="패스_276" data-name="패스 276" d="M926.241,947.509s21.538-60.3,68.381-74.3c40.747-12.178,149.938-100.947,177.669-123.846a135.8,135.8,0,0,0,11.643-10.817c17.04-17.8,71.107-73.172,84.212-73.172,15.614,0-5.923-13.461,104.994,26.383s140.531,14.538,155.607,52.766,79.688,64.074,82.381,66.766,57.612,24.768,49,63-404.363,134.069-404.363,134.069l-105.5,25.028a136.463,136.463,0,0,1-83.51-6.615C1010.745,1003.678,918.709,962.95,926.241,947.509Z" fill="#d4e795"/>
      </g>
      <g id="그룹_10" data-name="그룹 10">
        <path id="패스_277" data-name="패스 277" d="M1130.539,1022.708l130.92-37.451a10.81,10.81,0,0,0,1.665-20.157l-132.23-62.808a10.814,10.814,0,0,0-7.655-.616L992.959,939.54a10.81,10.81,0,0,0-1.614,20.148l131.59,62.4A10.807,10.807,0,0,0,1130.539,1022.708Z" fill="#e8e8e8"/>
      </g>
      <g id="그룹_11" data-name="그룹 11">
        <path id="패스_278" data-name="패스 278" d="M1181.458,937.818l10.231-7-33.383-11.845-1.616-7.539s69.458,25.307,85.073,19.384,22.075-8.076,22.075-14.538-1.076-17.229-5.384-19.383-43.848-10.743-43.848-10.743-12.149-12.948-11.072-13.487,14.538,15.076,43.613,4.846-10.23-61.381-10.23-61.381l38.5,28.41s-22.344,39.432,7.27,35.125,70.534-14.538,70.534-17.23,15.615.539-27.46-49-35-52.228-35-52.228l11.307-2.692,10.769,19.922,61.381-11.307,26.383,16.691-73.765,12.384s44.152,48.459,44.152,52.228,24.229,15.614-55.459,37.152c0,0-25.845,2.153-28,5.922s9.691,8.077,8.076,17.23-28.537,14-29.075,18.307,8.615,17.768,21,18.307c0,0,30.69,7.538,50.612,12.384l55.459-12.923,17.1,12.252-65,18.589s-19.949,4.7-28.564-2.3-53.3-23.152-53.3-23.152-56-14-61.919-14l-10.23,8.077" fill="#e8e8e8"/>
      </g>
      <g id="그룹_19" data-name="그룹 19">
        <g id="그룹_18" data-name="그룹 18" style="isolation: isolate">
          <g id="그룹_13" data-name="그룹 13">
            <g id="그룹_12" data-name="그룹 12">
              <path id="패스_279" data-name="패스 279" d="M1251.158,789.349l-10.46-10.032.053-39.843,10.46,10.032Z" fill="#5b7580"/>
            </g>
          </g>
          <g id="그룹_15" data-name="그룹 15">
            <g id="그룹_14" data-name="그룹 14">
              <path id="패스_280" data-name="패스 280" d="M1251.21,749.506l-10.46-10.032,47.072-3.705,10.46,10.032Z" fill="#80a5b4"/>
            </g>
          </g>
          <g id="그룹_17" data-name="그룹 17">
            <g id="그룹_16" data-name="그룹 16">
              <path id="패스_281" data-name="패스 281" d="M1298.282,745.8l-.053,39.843-47.072,3.705.052-39.843Z" fill="#9bc7d9"/>
            </g>
          </g>
        </g>
      </g>
      <g id="그룹_27" data-name="그룹 27">
        <g id="그룹_26" data-name="그룹 26" style="isolation: isolate">
          <g id="그룹_21" data-name="그룹 21">
            <g id="그룹_20" data-name="그룹 20">
              <path id="패스_282" data-name="패스 282" d="M1260.585,824.964l-36.659,2.186.171-39.96L1260.755,785Z" fill="#d898b6"/>
            </g>
          </g>
          <g id="그룹_23" data-name="그룹 23">
            <g id="그룹_22" data-name="그룹 22">
              <path id="패스_283" data-name="패스 283" d="M1260.755,785,1224.1,787.19l-11.382-12.734,36.659-2.186Z" fill="#b37d96"/>
            </g>
          </g>
          <g id="그룹_25" data-name="그룹 25">
            <g id="그룹_24" data-name="그룹 24">
              <path id="패스_284" data-name="패스 284" d="M1212.714,774.456,1224.1,787.19l-.171,39.96-11.382-12.734Z" fill="#805a6b"/>
            </g>
          </g>
        </g>
      </g>
      <g id="그룹_35" data-name="그룹 35">
        <g id="그룹_34" data-name="그룹 34" style="isolation: isolate">
          <g id="그룹_29" data-name="그룹 29">
            <g id="그룹_28" data-name="그룹 28">
              <path id="패스_285" data-name="패스 285" d="M1082.353,995.626l-16.547-5.926.041-22.243,16.547,5.926Z" fill="#8d6376"/>
            </g>
          </g>
          <g id="그룹_31" data-name="그룹 31">
            <g id="그룹_30" data-name="그룹 30">
              <path id="패스_286" data-name="패스 286" d="M1082.394,973.383l-16.547-5.926,38.649-8.3,16.547,5.926Z" fill="#b47f97"/>
            </g>
          </g>
          <g id="그룹_33" data-name="그룹 33">
            <g id="그룹_32" data-name="그룹 32">
              <path id="패스_287" data-name="패스 287" d="M1121.043,965.085,1121,987.327l-38.649,8.3.041-22.243Z" fill="#e09dbc"/>
            </g>
          </g>
        </g>
      </g>
      <g id="그룹_43" data-name="그룹 43">
        <g id="그룹_42" data-name="그룹 42" style="isolation: isolate">
          <g id="그룹_37" data-name="그룹 37">
            <g id="그룹_36" data-name="그룹 36">
              <path id="패스_288" data-name="패스 288" d="M1108.718,929.037l-16.547-5.926.074-39.825,16.547,5.926Z" fill="#8d6376"/>
            </g>
          </g>
          <g id="그룹_39" data-name="그룹 39">
            <g id="그룹_38" data-name="그룹 38">
              <path id="패스_289" data-name="패스 289" d="M1108.792,889.212l-16.547-5.926,38.652-8.3,16.547,5.926Z" fill="#b47f97"/>
            </g>
          </g>
          <g id="그룹_41" data-name="그룹 41">
            <g id="그룹_40" data-name="그룹 40">
              <path id="패스_290" data-name="패스 290" d="M1147.445,880.913l-.074,39.825-38.652,8.3.074-39.825Z" fill="#e09dbc"/>
            </g>
          </g>
        </g>
      </g>
      <g id="그룹_51" data-name="그룹 51">
        <g id="그룹_50" data-name="그룹 50" style="isolation: isolate">
          <g id="그룹_45" data-name="그룹 45">
            <g id="그룹_44" data-name="그룹 44">
              <path id="패스_291" data-name="패스 291" d="M1220.067,987.456l-34.473,9.4.079-42.418,34.473-9.4Z" fill="#9fccde"/>
            </g>
          </g>
          <g id="그룹_47" data-name="그룹 47">
            <g id="그룹_46" data-name="그룹 46">
              <path id="패스_292" data-name="패스 292" d="M1220.146,945.038l-34.473,9.4-43.9-12.416,34.473-9.4Z" fill="#81a5b4"/>
            </g>
          </g>
          <g id="그룹_49" data-name="그룹 49">
            <g id="그룹_48" data-name="그룹 48">
              <path id="패스_293" data-name="패스 293" d="M1141.777,942.022l43.9,12.416-.079,42.418-43.9-12.416Z" fill="#6a8995"/>
            </g>
          </g>
        </g>
      </g>
      <g id="그룹_52" data-name="그룹 52">
        <path id="패스_294" data-name="패스 294" d="M1230.994,955.048l33.383-11.846,32.844,11.846-51.69,12.384Z" fill="#e8e8e8"/>
      </g>
      <g id="그룹_53" data-name="그룹 53">
        <path id="패스_295" data-name="패스 295" d="M1288.337,996.219s16.008-2.2,8.139-9.571-12.716-8.571-12.716-8.571l22.615-9.03,22.413,12.384s.739,3.769,22.277,0S1288.337,996.219,1288.337,996.219Z" fill="#bfbbbf"/>
      </g>
      <g id="그룹_54" data-name="그룹 54">
        <path id="패스_296" data-name="패스 296" d="M891.2,936.2l22.846-7.077h0L870.1,942.736l15.362,7.688C876.979,946.177,879.545,939.811,891.2,936.2Z" fill="none"/>
      </g>
      <g id="그룹_55" data-name="그룹 55">
        <path id="패스_297" data-name="패스 297" d="M1103.277,1059.425l15.363,7.688,21.094-6.534C1128.082,1064.189,1111.764,1063.672,1103.277,1059.425Z" fill="none"/>
      </g>
      <g id="그룹_56" data-name="그룹 56">
        <path id="패스_298" data-name="패스 298" d="M1307.648,807.2l-221.329,68.56h0Z" fill="none"/>
      </g>
      <g id="그룹_57" data-name="그룹 57">
        <path id="패스_299" data-name="패스 299" d="M1466.255,770.515l-15.362-7.688-21.094,6.534C1441.451,765.752,1457.769,766.268,1466.255,770.515Z" fill="none"/>
      </g>
      <g id="그룹_58" data-name="그룹 58">
        <path id="패스_300" data-name="패스 300" d="M1621.358,882.315l-181.927-91.043L987.651,931.218l-28.027,15.753-13.2-2.981-3.4,1.054,187.085,93.624L1626.516,884.9l-5.158-2.581Z" fill="none"/>
      </g>
      <g id="그룹_59" data-name="그룹 59">
        <path id="패스_301" data-name="패스 301" d="M1634.28,882.315l-7.764,2.581L1130.1,1038.668,942.773,945.131l187.329,93.537L943.017,945.044l3.4-1.054-3.488-.788-28.89-14.077L891.2,936.2c-11.652,3.609-14.218,9.975-5.732,14.222l217.812,109c8.487,4.247,24.805,4.764,36.457,1.154l538.6-166.841C1679.343,893.427,1634.28,882.315,1634.28,882.315Z" fill="#bfbbbf"/>
      </g>
      <g id="그룹_60" data-name="그룹 60">
        <path id="패스_302" data-name="패스 302" d="M987.651,931.218l-41.23,12.772,13.2,2.981Z" fill="#d4e795"/>
      </g>
      <g id="그룹_61" data-name="그룹 61">
        <path id="패스_303" data-name="패스 303" d="M1116.437,1045.385h-.009c-5.258-.036-8.745-.149-8.779-.151l-.289-.01-4.5-2.2a1.345,1.345,0,1,1,1.185-2.416l3.977,1.949c.931.028,4.06.111,8.422.141a1.346,1.346,0,0,1-.01,2.692Zm13.471-.106a1.346,1.346,0,0,1-.031-2.691c4.807-.114,9.316-.309,13.4-.58a1.346,1.346,0,1,1,.178,2.686c-4.126.274-8.674.471-13.519.585Zm26.86-1.953a1.347,1.347,0,0,1-.2-2.678c5.748-.863,9.921-1.983,12.4-3.327l.12-.065.235-.071a1.346,1.346,0,0,1,.8,2.569c-2.767,1.464-7.194,2.66-13.163,3.557A1.379,1.379,0,0,1,1156.768,1043.326Zm-65.4-6.1a1.343,1.343,0,0,1-.591-.138l-12.086-5.928a1.346,1.346,0,1,1,1.186-2.416l12.085,5.927a1.346,1.346,0,0,1-.594,2.555Zm91.238-1.287a1.346,1.346,0,0,1-.387-2.636l12.89-3.877a1.346,1.346,0,0,1,.775,2.578l-12.89,3.877A1.344,1.344,0,0,1,1182.607,1035.943Zm25.781-7.755a1.346,1.346,0,0,1-.387-2.636l12.89-3.877a1.346,1.346,0,1,1,.775,2.578l-12.89,3.877A1.344,1.344,0,0,1,1208.388,1028.188Zm-141.19-2.813a1.344,1.344,0,0,1-.591-.138l-12.086-5.928a1.346,1.346,0,0,1,1.185-2.416l12.086,5.927a1.347,1.347,0,0,1-.594,2.555Zm166.97-4.942a1.346,1.346,0,0,1-.387-2.635l12.891-3.877a1.345,1.345,0,1,1,.775,2.577l-12.891,3.878A1.331,1.331,0,0,1,1234.168,1020.433Zm-191.141-6.913a1.346,1.346,0,0,1-.591-.138l-12.086-5.928a1.345,1.345,0,1,1,1.185-2.416l12.086,5.927a1.346,1.346,0,0,1-.594,2.555Zm216.922-.841a1.346,1.346,0,0,1-.387-2.635l12.89-3.878a1.346,1.346,0,1,1,.775,2.578l-12.89,3.878A1.377,1.377,0,0,1,1259.949,1012.679Zm25.781-7.754a1.346,1.346,0,0,1-.387-2.636l12.89-3.878a1.346,1.346,0,0,1,.775,2.578l-12.89,3.878A1.342,1.342,0,0,1,1285.73,1004.925Zm-266.874-3.26a1.346,1.346,0,0,1-.591-.138L1006.18,995.6a1.345,1.345,0,1,1,1.185-2.416l12.085,5.927a1.346,1.346,0,0,1-.594,2.555Zm292.654-4.495a1.346,1.346,0,0,1-.387-2.635l12.891-3.878a1.346,1.346,0,0,1,.775,2.579l-12.891,3.877A1.363,1.363,0,0,1,1311.51,997.17Zm-316.825-7.36a1.346,1.346,0,0,1-.591-.138l-12.086-5.928a1.346,1.346,0,0,1,1.186-2.416l12.085,5.927a1.346,1.346,0,0,1-.594,2.555Zm342.606-.394a1.347,1.347,0,0,1-.388-2.636l3.274-.984a1.346,1.346,0,1,1,.776,2.577l-3.274.985A1.342,1.342,0,0,1,1337.291,989.416ZM970.515,977.955a1.351,1.351,0,0,1-.592-.138l-12.086-5.928a1.346,1.346,0,1,1,1.186-2.416l12.085,5.927a1.346,1.346,0,0,1-.593,2.555ZM946.344,966.1a1.347,1.347,0,0,1-.592-.138l-12.085-5.928a1.345,1.345,0,1,1,1.185-2.416l12.085,5.927a1.346,1.346,0,0,1-.593,2.555Zm-24.171-11.855a1.347,1.347,0,0,1-.592-.138L909.5,948.179a1.346,1.346,0,1,1,1.185-2.416l12.085,5.927a1.346,1.346,0,0,1-.593,2.555Z" fill="#fff"/>
      </g>
      <g id="그룹_62" data-name="그룹 62">
        <path id="패스_304" data-name="패스 304" d="M1442.867,956.663a1.346,1.346,0,0,1-.418-2.626l12.8-4.181a1.346,1.346,0,0,1,.836,2.559l-12.795,4.181A1.319,1.319,0,0,1,1442.867,956.663Zm25.59-8.363a1.346,1.346,0,0,1-.418-2.626l12.8-4.181a1.346,1.346,0,0,1,.836,2.559l-12.8,4.181A1.328,1.328,0,0,1,1468.457,948.3Zm25.589-8.363a1.346,1.346,0,0,1-.417-2.626l12.794-4.181a1.346,1.346,0,1,1,.836,2.559l-12.794,4.181A1.328,1.328,0,0,1,1494.046,939.937Zm25.591-8.363a1.346,1.346,0,0,1-.418-2.626l12.794-4.181a1.346,1.346,0,0,1,.836,2.559l-12.794,4.181A1.33,1.33,0,0,1,1519.637,931.574Zm25.589-8.363a1.346,1.346,0,0,1-.418-2.626l12.8-4.181a1.346,1.346,0,0,1,.836,2.559l-12.795,4.181A1.319,1.319,0,0,1,1545.226,923.211Zm25.59-8.362a1.346,1.346,0,0,1-.418-2.626l12.8-4.182a1.346,1.346,0,0,1,.836,2.559l-12.8,4.181A1.329,1.329,0,0,1,1570.816,914.849Zm25.59-8.363a1.346,1.346,0,0,1-.418-2.626l12.794-4.182a1.346,1.346,0,1,1,.836,2.558l-12.794,4.182A1.33,1.33,0,0,1,1596.406,906.486Zm25.59-8.364a1.346,1.346,0,0,1-.418-2.625l12.794-4.182a1.346,1.346,0,0,1,.836,2.558l-12.794,4.182A1.327,1.327,0,0,1,1622,898.122Z" fill="#fff"/>
      </g>
      <g id="그룹_63" data-name="그룹 63">
        <path id="패스_305" data-name="패스 305" d="M1409.483,979.278a1.337,1.337,0,0,1-.586-.136l-32.459-15.751a1.346,1.346,0,1,1,1.176-2.422l32.458,15.751a1.347,1.347,0,0,1-.589,2.558Z" fill="#fff"/>
      </g>
      <g id="그룹_64" data-name="그룹 64">
        <path id="패스_306" data-name="패스 306" d="M1438.992,970.393a1.35,1.35,0,0,1-.571-.127l-33.475-15.693a1.346,1.346,0,1,1,1.143-2.437l33.475,15.692a1.346,1.346,0,0,1-.572,2.565Z" fill="#fff"/>
      </g>
      <g id="그룹_65" data-name="그룹 65">
        <path id="패스_307" data-name="패스 307" d="M1381.995,965.66a1.347,1.347,0,0,1-.422-2.625l27.237-9a1.346,1.346,0,1,1,.845,2.556l-27.238,9A1.349,1.349,0,0,1,1381.995,965.66Z" fill="#fff"/>
      </g>
      <g id="그룹_66" data-name="그룹 66">
        <path id="패스_308" data-name="패스 308" d="M1388.995,968.891a1.347,1.347,0,0,1-.423-2.625l27.238-9a1.346,1.346,0,1,1,.844,2.557l-27.237,9A1.331,1.331,0,0,1,1388.995,968.891Z" fill="#fff"/>
      </g>
      <g id="그룹_67" data-name="그룹 67">
        <path id="패스_309" data-name="패스 309" d="M1395.994,972.121a1.346,1.346,0,0,1-.422-2.625l27.238-9a1.346,1.346,0,0,1,.844,2.556l-27.238,9A1.349,1.349,0,0,1,1395.994,972.121Z" fill="#fff"/>
      </g>
      <g id="그룹_68" data-name="그룹 68">
        <path id="패스_310" data-name="패스 310" d="M1402.994,975.352a1.347,1.347,0,0,1-.422-2.625l27.237-9a1.347,1.347,0,0,1,.845,2.557l-27.238,9A1.322,1.322,0,0,1,1402.994,975.352Z" fill="#fff"/>
      </g>
      <g id="그룹_73" data-name="그룹 73">
        <g id="그룹_72" data-name="그룹 72" style="isolation: isolate">
          <g id="그룹_71" data-name="그룹 71" clip-path="url(#clip-path)">
            <g id="그룹_70" data-name="그룹 70">
              <g id="그룹_69" data-name="그룹 69">
                <path id="패스_311" data-name="패스 311" d="M1529.913,833.324c-.25.054-.488.116-.712.186l-226.812,71.285c-3.277,1.031-2.491,3.495,1.756,5.506l70,33.133c3.955,1.871,9.519,2.689,12.908,1.96.25-.054.488-.116.712-.186l226.815-71.285c3.274-1.031,2.491-3.495-1.759-5.506l-70-33.133c-3.952-1.871-9.518-2.69-12.908-1.96" fill="#e8e8e8"/>
              </g>
            </g>
          </g>
        </g>
      </g>
      <g id="그룹_78" data-name="그룹 78">
        <g id="그룹_77" data-name="그룹 77" style="isolation: isolate">
          <g id="그룹_76" data-name="그룹 76" clip-path="url(#clip-path-2)">
            <g id="그룹_75" data-name="그룹 75">
              <g id="그룹_74" data-name="그룹 74">
                <path id="패스_313" data-name="패스 313" d="M1510.471,847.958q-.372.081-.708.186l-166.289,52.264c-3.28,1.03-2.49,3.495,1.753,5.505l48.348,22.886c3.96,1.874,9.524,2.691,12.918,1.961.248-.054.485-.116.708-.186L1573.49,878.31c3.281-1.03,2.491-3.495-1.752-5.505l-48.351-22.886c-3.958-1.874-9.521-2.691-12.916-1.961" fill="#fff"/>
              </g>
            </g>
          </g>
        </g>
      </g>
      <g id="그룹_86" data-name="그룹 86">
        <g id="그룹_85" data-name="그룹 85" style="isolation: isolate">
          <g id="그룹_80" data-name="그룹 80">
            <g id="그룹_79" data-name="그룹 79">
              <path id="패스_315" data-name="패스 315" d="M1369.851,918.8l43.757-8.25,1.111,28.507-43.757,8.25Z" fill="#dc9ab8"/>
            </g>
          </g>
          <g id="그룹_82" data-name="그룹 82">
            <g id="그룹_81" data-name="그룹 81">
              <path id="패스_316" data-name="패스 316" d="M1357.4,910.731l43.757-8.25,12.448,8.074-43.757,8.25Z" fill="#b9829b"/>
            </g>
          </g>
          <g id="그룹_84" data-name="그룹 84">
            <g id="그룹_83" data-name="그룹 83">
              <path id="패스_317" data-name="패스 317" d="M1369.851,918.8l1.111,28.507-12.448-8.074-1.111-28.507Z" fill="#805a6c"/>
            </g>
          </g>
        </g>
      </g>
      <g id="그룹_94" data-name="그룹 94">
        <g id="그룹_93" data-name="그룹 93" style="isolation: isolate">
          <g id="그룹_88" data-name="그룹 88">
            <g id="그룹_87" data-name="그룹 87">
              <path id="패스_318" data-name="패스 318" d="M1322.191,899.778l15.35-1.371-.05,26.9-15.35,1.371Z" fill="#9cc8da"/>
            </g>
          </g>
          <g id="그룹_90" data-name="그룹 90">
            <g id="그룹_89" data-name="그룹 89">
              <path id="패스_319" data-name="패스 319" d="M1300.563,881.407l15.35-1.371,21.628,18.37-15.35,1.371Z" fill="#81a5b4"/>
            </g>
          </g>
          <g id="그룹_92" data-name="그룹 92">
            <g id="그룹_91" data-name="그룹 91">
              <path id="패스_320" data-name="패스 320" d="M1322.191,899.778l-.05,26.9-21.628-18.37.05-26.9Z" fill="#5b7580"/>
            </g>
          </g>
        </g>
      </g>
      <g id="그룹_102" data-name="그룹 102">
        <g id="그룹_101" data-name="그룹 101" style="isolation: isolate">
          <g id="그룹_96" data-name="그룹 96">
            <g id="그룹_95" data-name="그룹 95">
              <path id="패스_321" data-name="패스 321" d="M1495.205,777.493l-11.933,2.928.368-26.854,11.933-2.928Z" fill="#9fccde"/>
            </g>
          </g>
          <g id="그룹_98" data-name="그룹 98">
            <g id="그룹_97" data-name="그룹 97">
              <path id="패스_322" data-name="패스 322" d="M1495.573,750.639l-11.933,2.928-46.805-15.1,11.932-2.928Z" fill="#82a7b6"/>
            </g>
          </g>
          <g id="그룹_100" data-name="그룹 100">
            <g id="그룹_99" data-name="그룹 99">
              <path id="패스_323" data-name="패스 323" d="M1436.835,738.466l46.805,15.1-.368,26.854-46.805-15.1Z" fill="#688692"/>
            </g>
          </g>
        </g>
      </g>
      <g id="그룹_110" data-name="그룹 110">
        <g id="그룹_109" data-name="그룹 109" style="isolation: isolate">
          <g id="그룹_104" data-name="그룹 104">
            <g id="그룹_103" data-name="그룹 103">
              <path id="패스_324" data-name="패스 324" d="M1477.135,783.021,1465.2,785.95l.968-70.751,11.933-2.928Z" fill="#de9cba"/>
            </g>
          </g>
          <g id="그룹_106" data-name="그룹 106">
            <g id="그룹_105" data-name="그룹 105">
              <path id="패스_325" data-name="패스 325" d="M1478.1,712.27l-11.933,2.928-46.805-15.1,11.933-2.928Z" fill="#b68098"/>
            </g>
          </g>
          <g id="그룹_108" data-name="그룹 108">
            <g id="그룹_107" data-name="그룹 107">
              <path id="패스_326" data-name="패스 326" d="M1419.365,700.1l46.805,15.1-.968,70.751-46.805-15.1Z" fill="#92677b"/>
            </g>
          </g>
        </g>
      </g>
      <g id="그룹_111" data-name="그룹 111">
        <path id="패스_327" data-name="패스 327" d="M1428.06,835.516s26.922-10.231,33.383-10.231,45.767,16.692,45.767,16.692-32.844,13.461-37.69,12.922S1426.984,839.823,1428.06,835.516Z" fill="#a8e7da"/>
      </g>
      <g id="그룹_119" data-name="그룹 119">
        <g id="그룹_118" data-name="그룹 118" style="isolation: isolate">
          <g id="그룹_113" data-name="그룹 113">
            <g id="그룹_112" data-name="그룹 112">
              <path id="패스_328" data-name="패스 328" d="M1622.71,792.733l26.675-7.47.505,71.457-26.675,7.469Z" fill="#dfc391"/>
            </g>
          </g>
          <g id="그룹_115" data-name="그룹 115">
            <g id="그룹_114" data-name="그룹 114">
              <path id="패스_329" data-name="패스 329" d="M1598.747,786.312l26.675-7.47,23.963,6.421-26.675,7.47Z" fill="#b39d75"/>
            </g>
          </g>
          <g id="그룹_117" data-name="그룹 117">
            <g id="그룹_116" data-name="그룹 116">
              <path id="패스_330" data-name="패스 330" d="M1622.71,792.733l.505,71.457-23.963-6.421-.505-71.457Z" fill="#958361"/>
            </g>
          </g>
        </g>
      </g>
      <g id="그룹_127" data-name="그룹 127">
        <g id="그룹_126" data-name="그룹 126" style="isolation: isolate">
          <g id="그룹_121" data-name="그룹 121">
            <g id="그룹_120" data-name="그룹 120">
              <path id="패스_331" data-name="패스 331" d="M1612.061,826.673l9.567-2.614-.073,39.313-9.567,2.614Z" fill="#dec391"/>
            </g>
          </g>
          <g id="그룹_123" data-name="그룹 123">
            <g id="그룹_122" data-name="그룹 122">
              <path id="패스_332" data-name="패스 332" d="M1590.472,820.578l9.567-2.614,21.589,6.095-9.567,2.614Z" fill="#b49e75"/>
            </g>
          </g>
          <g id="그룹_125" data-name="그룹 125">
            <g id="그룹_124" data-name="그룹 124">
              <path id="패스_333" data-name="패스 333" d="M1612.061,826.673l-.073,39.313-21.589-6.095.073-39.313Z" fill="#958261"/>
            </g>
          </g>
        </g>
      </g>
      <g id="그룹_158" data-name="그룹 158">
        <g id="그룹_129" data-name="그룹 129">
          <g id="그룹_128" data-name="그룹 128">
            <path id="패스_334" data-name="패스 334" d="M1287.833,770.321l12.65-4.217.984.149-12.65,4.217Z" fill="#957458"/>
          </g>
        </g>
        <g id="그룹_131" data-name="그룹 131">
          <g id="그룹_130" data-name="그룹 130">
            <path id="패스_335" data-name="패스 335" d="M1303.867,785.089l.2,52.58-13.158-1.993-.2-52.58Z" fill="#836851"/>
          </g>
        </g>
        <g id="그룹_133" data-name="그룹 133">
          <g id="그룹_132" data-name="그룹 132">
            <path id="패스_336" data-name="패스 336" d="M1303.867,785.089l12.65-4.217.2,52.58-12.65,4.217Z" fill="#ac886b"/>
          </g>
        </g>
        <g id="그룹_135" data-name="그룹 135">
          <g id="그룹_134" data-name="그룹 134">
            <path id="패스_337" data-name="패스 337" d="M1290.709,783.1l12.65-4.217,13.158,1.993-12.65,4.217Z" fill="#886b54"/>
          </g>
        </g>
        <g id="그룹_137" data-name="그룹 137">
          <g id="그룹_136" data-name="그룹 136">
            <path id="패스_338" data-name="패스 338" d="M1288.832,774.537l12.65-4.217,16.847,2.552-12.65,4.217Z" fill="#a78363"/>
          </g>
        </g>
        <g id="그룹_139" data-name="그룹 139">
          <g id="그룹_138" data-name="그룹 138">
            <path id="패스_339" data-name="패스 339" d="M1305.68,777.089l12.65-4.217.031,8.279-12.65,4.217Z" fill="#d3a67d"/>
          </g>
        </g>
        <g id="그룹_141" data-name="그룹 141">
          <g id="그룹_140" data-name="그룹 140">
            <path id="패스_340" data-name="패스 340" d="M1305.68,777.089l.031,8.279-1.844-.279-13.158-1.993-1.845-.279-.031-8.279Z" fill="#a17e5f"/>
          </g>
        </g>
        <g id="그룹_143" data-name="그룹 143">
          <g id="그룹_142" data-name="그룹 142">
            <path id="패스_341" data-name="패스 341" d="M1288.817,770.47l12.65-4.217,16.847,2.552-12.65,4.217Z" fill="#957458"/>
          </g>
        </g>
        <g id="그룹_145" data-name="그룹 145">
          <g id="그룹_144" data-name="그룹 144">
            <path id="패스_342" data-name="패스 342" d="M1305.664,773.022l12.65-4.217.984.149-12.65,4.217Z" fill="#957458"/>
          </g>
        </g>
        <g id="그룹_147" data-name="그룹 147">
          <g id="그룹_146" data-name="그룹 146">
            <path id="패스_343" data-name="패스 343" d="M1306.648,773.172l.015,4.067-18.815-2.85-.015-4.067.984.149,16.847,2.552Z" fill="#907055"/>
          </g>
        </g>
        <g id="그룹_149" data-name="그룹 149">
          <g id="그룹_148" data-name="그룹 148">
            <path id="패스_344" data-name="패스 344" d="M1306.648,773.172l12.65-4.217.015,4.067-12.65,4.217Z" fill="#bd9370"/>
          </g>
        </g>
        <g id="그룹_151" data-name="그룹 151">
          <g id="그룹_150" data-name="그룹 150">
            <path id="패스_345" data-name="패스 345" d="M1305.633,764.742l12.65-4.217.031,8.28-12.65,4.217Z" fill="#d3a67d"/>
          </g>
        </g>
        <g id="그룹_153" data-name="그룹 153">
          <g id="그룹_152" data-name="그룹 152">
            <path id="패스_346" data-name="패스 346" d="M1305.633,764.742l.031,8.28-16.847-2.552-.031-8.28Z" fill="#a17e5f"/>
          </g>
        </g>
        <g id="그룹_155" data-name="그룹 155">
          <g id="그룹_154" data-name="그룹 154">
            <path id="패스_347" data-name="패스 347" d="M1288.786,762.19l12.65-4.217,16.847,2.552-12.65,4.217Z" fill="#a78363"/>
          </g>
        </g>
        <g id="그룹_156" data-name="그룹 156">
          <path id="패스_348" data-name="패스 348" d="M1302.405,743.982l-13.569,18.192,16.7,2.386Z" fill="#a16528"/>
        </g>
        <g id="그룹_157" data-name="그룹 157">
          <path id="패스_349" data-name="패스 349" d="M1302.405,743.982l15.506,16.4-12.375,4.175Z" fill="#ff9f40"/>
        </g>
      </g>
      <g id="그룹_166" data-name="그룹 166">
        <g id="그룹_165" data-name="그룹 165" style="isolation: isolate">
          <g id="그룹_160" data-name="그룹 160">
            <g id="그룹_159" data-name="그룹 159">
              <path id="패스_350" data-name="패스 350" d="M1218.544,862.356l-26.371-4.119.184-51.11,26.371,4.119Z" fill="#6d8c99"/>
            </g>
          </g>
          <g id="그룹_162" data-name="그룹 162">
            <g id="그룹_161" data-name="그룹 161">
              <path id="패스_351" data-name="패스 351" d="M1218.729,811.246l-26.371-4.119,41.933-5.991,26.371,4.119Z" fill="#7394a1"/>
            </g>
          </g>
          <g id="그룹_164" data-name="그룹 164">
            <g id="그룹_163" data-name="그룹 163">
              <path id="패스_352" data-name="패스 352" d="M1260.662,805.255l-.184,51.11-41.933,5.991.184-51.11Z" fill="#a4d3e6"/>
            </g>
          </g>
        </g>
      </g>
      <g id="그룹_174" data-name="그룹 174">
        <g id="그룹_173" data-name="그룹 173" style="isolation: isolate">
          <g id="그룹_168" data-name="그룹 168">
            <g id="그룹_167" data-name="그룹 167">
              <path id="패스_353" data-name="패스 353" d="M1259.973,810.886l19.818-3.006.4,51.046-19.818,3.006Z" fill="#a5d4e7"/>
            </g>
          </g>
          <g id="그룹_170" data-name="그룹 170">
            <g id="그룹_169" data-name="그룹 169">
              <path id="패스_354" data-name="패스 354" d="M1241.027,807.8l19.818-3.006,18.946,3.087-19.818,3.006Z" fill="#7394a2"/>
            </g>
          </g>
          <g id="그룹_172" data-name="그룹 172">
            <g id="그룹_171" data-name="그룹 171">
              <path id="패스_355" data-name="패스 355" d="M1259.973,810.886l.4,51.046-18.946-3.087-.4-51.046Z" fill="#6b8a96"/>
            </g>
          </g>
        </g>
      </g>
      <g id="그룹_182" data-name="그룹 182">
        <g id="그룹_181" data-name="그룹 181" style="isolation: isolate">
          <g id="그룹_176" data-name="그룹 176">
            <g id="그룹_175" data-name="그룹 175">
              <path id="패스_356" data-name="패스 356" d="M1179.792,906.964l-16.547-5.926.074-39.83,16.547,5.926Z" fill="#8d6376"/>
            </g>
          </g>
          <g id="그룹_178" data-name="그룹 178">
            <g id="그룹_177" data-name="그룹 177">
              <path id="패스_357" data-name="패스 357" d="M1179.866,867.133l-16.547-5.926,38.649-8.3,16.547,5.926Z" fill="#b47f97"/>
            </g>
          </g>
          <g id="그룹_180" data-name="그룹 180">
            <g id="그룹_179" data-name="그룹 179">
              <path id="패스_358" data-name="패스 358" d="M1218.515,858.835l-.074,39.83-38.648,8.3.074-39.83Z" fill="#e09dbc"/>
            </g>
          </g>
        </g>
      </g>
      <g id="그룹_190" data-name="그룹 190">
        <g id="그룹_189" data-name="그룹 189" style="isolation: isolate">
          <g id="그룹_184" data-name="그룹 184">
            <g id="그룹_183" data-name="그룹 183">
              <path id="패스_359" data-name="패스 359" d="M1385.874,806.452l-29.627-10.647.044-33.635,29.627,10.647Z" fill="#8c6276"/>
            </g>
          </g>
          <g id="그룹_186" data-name="그룹 186">
            <g id="그룹_185" data-name="그룹 185">
              <path id="패스_360" data-name="패스 360" d="M1385.918,772.817l-29.627-10.647,37.5-7.97,29.627,10.647Z" fill="#b47e97"/>
            </g>
          </g>
          <g id="그룹_188" data-name="그룹 188">
            <g id="그룹_187" data-name="그룹 187">
              <path id="패스_361" data-name="패스 361" d="M1423.414,764.847l-.044,33.635-37.5,7.97.044-33.635Z" fill="#e09dbc"/>
            </g>
          </g>
        </g>
      </g>
      <g id="그룹_198" data-name="그룹 198">
        <g id="그룹_197" data-name="그룹 197" style="isolation: isolate">
          <g id="그룹_192" data-name="그룹 192">
            <g id="그룹_191" data-name="그룹 191">
              <path id="패스_362" data-name="패스 362" d="M1430.557,821.75,1400.93,811.1l.065-49.156,29.627,10.647Z" fill="#8c6276"/>
            </g>
          </g>
          <g id="그룹_194" data-name="그룹 194">
            <g id="그룹_193" data-name="그룹 193">
              <path id="패스_363" data-name="패스 363" d="M1430.621,772.594l-29.627-10.647,37.492-7.969,29.627,10.647Z" fill="#b47e97"/>
            </g>
          </g>
          <g id="그룹_196" data-name="그룹 196">
            <g id="그룹_195" data-name="그룹 195">
              <path id="패스_364" data-name="패스 364" d="M1468.114,764.625l-.065,49.156-37.492,7.969.065-49.156Z" fill="#e09dbc"/>
            </g>
          </g>
        </g>
      </g>
    </g>
    <g id="하트위치" transform="translate(0.117)">
      <g id="그룹_201" data-name="그룹 201">
        <g id="그룹_200" data-name="그룹 200">
          <path id="패스_365" data-name="패스 365" d="M1354.417,610.507c0,36.206-65.643,91.252-65.643,91.252s-65.47-55.046-65.47-91.252a65.557,65.557,0,0,1,131.113,0Z" fill="#ff1229"/>
        </g>
      </g>
      <g id="그룹_202" data-name="그룹 202">
        <circle id="타원_1" data-name="타원 1" cx="42.096" cy="42.096" r="42.096" transform="translate(1246.764 568.411)" fill="#fff"/>
      </g>
      <g id="그룹_204" data-name="그룹 204">
        <g id="그룹_203" data-name="그룹 203">
          <path id="패스_366" data-name="패스 366" d="M1303.04,589.238a14.179,14.179,0,0,0-14.179,14.179,14.18,14.18,0,0,0-28.36,0,14.7,14.7,0,0,0,1.215,5.706c5.422,12.928,27.058,31.744,27.058,31.744s21.808-18.816,27.23-31.744a14.7,14.7,0,0,0,1.216-5.706A14.18,14.18,0,0,0,1303.04,589.238Z" fill="#ff1229"/>
        </g>
      </g>
    </g>
  </g>
</svg>
