<svg xmlns="http://www.w3.org/2000/svg" width="1922.1" height="1789.43" viewBox="0 0 1922.1 1789.43">
  <defs>
    <style>
      .cls-1 {
        fill: #ffeaec;
      }
    </style>
  </defs>
  <g id="page5_배경" data-name="page5 배경" transform="translate(1 -374)">
    <g id="page5_나뭇잎" data-name="page5 나뭇잎" transform="translate(-0.883 -5862)">
      <path id="패스_1224" data-name="패스 1224" class="cls-1" d="M-.117,6136.16v26.528h0v43.921h0v.016h0v258.341h0v528.292h1920V6116.109h-30.658c5.614-6.562,8.93-11.007,8.93-11.007l-9.477-3.345c8.971-1.292,24.094-9.675,31.205-13.855v-42.671a113.059,113.059,0,0,0-22.593.855,154.335,154.335,0,0,0,6.834-14.647,100.827,100.827,0,0,0,15.759-6.491V5814.966c-59.915,30.582-50.954,111.125-50.954,111.125-34.165-30.887-88.172-5.848-88.172-5.848,1.778,5.848,19.7,19.562,19.7,19.562.889,64.888,39.4,78.038,39.4,78.038-13.642,10.2-17.128,21.388-17.128,21.388-19.7-24.874-63.391-19.68-63.391-19.68,0,22.9,12.285,39.929,24.427,51.168-10.513-4.276-55.894-20.359-85.937,6.8,0,0,9.359-84.029-54.875-113.023,0,0-21.5,49.725,2.5,101.886,0,0-19.607-10.227-28.171-11.162,0,0-5.844,35.234,15.548,60.887h-54.864c-9.871-12.41-45.885-55.072-78.825-60.92,0,0,27.334-7.512,37.721-20.617,0,0-48.834-45.326-113.116-31.637,0,0,13.807-14.554,20.617-29.2,0,0-42.776-11.935-85.62,3.626l4.3-10.459s-28.266-5.825-69.451,21.481l-18.689-12.029c-9.408-4.918-22.577-10.339-29-7.932a6.707,6.707,0,0,0-1.083.334c-15.518-5.567-27.909-3.234-27.909-3.234,22.229-25.715,16.239-61.728,16.239-61.728-8.564.935-28.171,11.162-28.171,11.162,24.007-52.16,2.5-101.885,2.5-101.885-64.234,28.994-54.874,113.022-54.874,113.022-34.165-30.887-88.172-5.848-88.172-5.848,1.778,5.848,19.7,19.562,19.7,19.562.889,64.888,39.4,78.038,39.4,78.038-13.642,10.2-17.128,21.388-17.128,21.388-19.7-24.874-63.391-19.68-63.391-19.68,0,22.9,12.285,39.929,24.427,51.168-10.513-4.276-55.894-20.359-85.937,6.8,0,0,9.359-84.029-54.875-113.023,0,0-21.5,49.725,2.5,101.886,0,0-19.608-10.227-28.171-11.162,0,0-5.844,35.234,15.548,60.887H861.677c-9.871-12.41-45.885-55.072-78.825-60.92,0,0,27.334-7.512,37.721-20.617,0,0-48.834-45.326-113.116-31.637,0,0,13.807-14.554,20.617-29.2,0,0-42.777-11.935-85.62,3.626l4.3-10.459s-28.265-5.825-69.45,21.481l-18.689-12.029c-9.408-4.918-22.577-10.339-29-7.932a6.746,6.746,0,0,0-1.084.334c-15.517-5.567-27.908-3.234-27.908-3.234,22.229-25.715,16.239-61.728,16.239-61.728-8.564.935-28.171,11.162-28.171,11.162,24.007-52.16,2.5-101.885,2.5-101.885-64.234,28.994-54.874,113.022-54.874,113.022-34.165-30.887-88.172-5.848-88.172-5.848,1.778,5.848,19.7,19.562,19.7,19.562.889,64.888,39.4,78.038,39.4,78.038-13.642,10.2-17.128,21.388-17.128,21.388-19.7-24.874-63.391-19.68-63.391-19.68,0,22.9,12.285,39.929,24.427,51.168-10.513-4.276-55.894-20.359-85.937,6.8,0,0,9.359-84.029-54.875-113.023,0,0-21.5,49.725,2.5,101.886,0,0-19.608-10.227-28.172-11.162,0,0-5.843,35.234,15.549,60.887H145.375c-9.871-12.41-45.885-55.072-78.825-60.92,0,0,27.333-7.512,37.721-20.617,0,0-44.466-41.267-104.388-33.153V6136.16Z" transform="translate(0 422.931)"/>
      <g id="그룹_1709" data-name="그룹 1709" transform="translate(0 422.931)">
        <path id="패스_1225" data-name="패스 1225" class="cls-1" d="M63.136,6032.583c-23.9-4.521-48.108-10.468-63.253-14.391v11.075c26.4,6.458,61.473,12.208,61.473,12.208C70.483,6038.972,63.136,6032.583,63.136,6032.583Z"/>
        <path id="패스_1226" data-name="패스 1226" class="cls-1" d="M415.358,6066.61s-9.757,33.415-14.53,37.72l11.535-1.8s19.749-29.531,12.074-72.7C424.437,6029.824,414.1,6059.354,415.358,6066.61Z"/>
        <path id="패스_1227" data-name="패스 1227" class="cls-1" d="M418.353,5961.705l-13.571-3.414s8.144,35.1,15.256,44.084C420.038,6002.375,423.081,5977.079,418.353,5961.705Z"/>
        <path id="패스_1228" data-name="패스 1228" class="cls-1" d="M440.3,5989.06s4.213-20.075,6.389-24.381l-16.73-.422s2.6,26.49,0,36.856Z"/>
        <path id="패스_1229" data-name="패스 1229" class="cls-1" d="M603.89,6005.159c27.8,33.393,61.634,63.695,61.634,63.695,3.932,6.436-1.215,9.36-1.215,9.36a42.847,42.847,0,0,0,9.875,2.691C638.546,6008.085,603.89,6005.159,603.89,6005.159Z"/>
        <path id="패스_1230" data-name="패스 1230" class="cls-1" d="M603.047,6020.018s16.241,44.2,52.229,53.983C655.276,6074,604.686,6025.213,603.047,6020.018Z"/>
        <path id="패스_1231" data-name="패스 1231" class="cls-1" d="M1131.66,6066.61s-9.757,33.415-14.53,37.72l11.535-1.8s19.749-29.531,12.074-72.7C1140.739,6029.824,1130.4,6059.354,1131.66,6066.61Z"/>
        <path id="패스_1232" data-name="패스 1232" class="cls-1" d="M1134.656,5961.705l-13.572-3.414s8.144,35.1,15.256,44.084C1136.34,6002.375,1139.383,5977.079,1134.656,5961.705Z"/>
        <path id="패스_1233" data-name="패스 1233" class="cls-1" d="M1156.6,5989.06s4.213-20.075,6.389-24.381l-16.73-.422s2.6,26.49,0,36.856Z"/>
        <path id="패스_1234" data-name="패스 1234" class="cls-1" d="M1366.407,6024.372c3.908,4.327,18.017,25.269,18.017,25.269l-.42-17.947a7.967,7.967,0,0,1-6.436-8.539Z"/>
        <path id="패스_1235" data-name="패스 1235" class="cls-1" d="M1320.192,6005.159c27.8,33.393,61.634,63.695,61.634,63.695,3.932,6.436-1.214,9.36-1.214,9.36a42.832,42.832,0,0,0,9.874,2.691C1354.848,6008.085,1320.192,6005.159,1320.192,6005.159Z"/>
        <path id="패스_1236" data-name="패스 1236" class="cls-1" d="M1319.349,6020.018s16.241,44.2,52.229,53.983C1371.578,6074,1320.988,6025.213,1319.349,6020.018Z"/>
        <path id="패스_1237" data-name="패스 1237" class="cls-1" d="M1746.01,6091.826a84.219,84.219,0,0,1,12.9-9.546c-25.094,5.848-51.242,21.5-51.242,21.5C1722.815,6103.006,1736.385,6097.245,1746.01,6091.826Z"/>
        <path id="패스_1238" data-name="패스 1238" class="cls-1" d="M1394.792,6040.306s2.284,43.1,31.83,75.8H1433a7.343,7.343,0,0,1-.209-1.016S1411.359,6047.631,1394.792,6040.306Z"/>
        <path id="패스_1239" data-name="패스 1239" class="cls-1" d="M1394.159,6023.576v3.276s19.867,1.4,48.93,85.783C1443.089,6112.635,1456.381,6047.631,1394.159,6023.576Z"/>
        <path id="패스_1240" data-name="패스 1240" class="cls-1" d="M1232.374,5987.774c-35.5,9.407-77.5,33.742-77.5,33.742C1201.581,6031.861,1232.374,5987.774,1232.374,5987.774Z"/>
        <path id="패스_1241" data-name="패스 1241" class="cls-1" d="M1144.578,6091.976c27-27.448,66.69-34.75,66.69-34.75,9.9,0,3.93,8.073,3.93,8.073-42.822,11.957-59.061,30.865-59.061,30.865,32.526-3.464,67.649-37.229,67.649-37.229C1151.5,6040.493,1144.578,6091.976,1144.578,6091.976Z"/>
        <path id="패스_1242" data-name="패스 1242" class="cls-1" d="M1029.707,6091.826a84.228,84.228,0,0,1,12.9-9.546c-25.094,5.848-51.243,21.5-51.243,21.5C1006.513,6103.006,1020.083,6097.245,1029.707,6091.826Z"/>
        <path id="패스_1243" data-name="패스 1243" class="cls-1" d="M678.49,6040.306s2.284,43.1,31.83,75.8h6.38a7.325,7.325,0,0,1-.209-1.016S695.057,6047.631,678.49,6040.306Z"/>
        <path id="패스_1244" data-name="패스 1244" class="cls-1" d="M677.857,6023.576v3.276s19.867,1.4,48.93,85.783C726.787,6112.635,740.079,6047.631,677.857,6023.576Z"/>
        <path id="패스_1245" data-name="패스 1245" class="cls-1" d="M516.072,5987.774c-35.5,9.407-77.5,33.742-77.5,33.742C485.279,6031.861,516.072,5987.774,516.072,5987.774Z"/>
        <path id="패스_1246" data-name="패스 1246" class="cls-1" d="M428.276,6091.976c27-27.448,66.69-34.75,66.69-34.75,9.9,0,3.93,8.073,3.93,8.073-42.822,11.957-59.061,30.865-59.061,30.865,32.526-3.464,67.649-37.229,67.649-37.229C435.2,6040.493,428.276,6091.976,428.276,6091.976Z"/>
        <path id="패스_1247" data-name="패스 1247" class="cls-1" d="M313.4,6091.826a84.23,84.23,0,0,1,12.9-9.546c-25.094,5.848-51.243,21.5-51.243,21.5C290.211,6103.006,303.781,6097.245,313.4,6091.826Z"/>
        <path id="패스_1248" data-name="패스 1248" class="cls-1" d="M10.485,6112.635s6.422-31.449-10.6-58.692v30.405C3.255,6092.553,6.8,6101.922,10.485,6112.635Z"/>
        <path id="패스_1249" data-name="패스 1249" class="cls-1" d="M1847.962,6066.61s-9.757,33.415-14.53,37.72l11.535-1.8s19.75-29.531,12.075-72.7C1857.042,6029.824,1846.7,6059.354,1847.962,6066.61Z"/>
        <path id="패스_1250" data-name="패스 1250" class="cls-1" d="M1850.958,5961.705l-13.572-3.414s8.144,35.1,15.256,44.084C1852.642,6002.375,1855.685,5977.079,1850.958,5961.705Z"/>
        <path id="패스_1251" data-name="패스 1251" class="cls-1" d="M1872.439,6096.164c16.876-1.8,34.438-11.749,47.444-20.912v-6.334C1885.711,6080.718,1872.439,6096.164,1872.439,6096.164Z"/>
        <path id="패스_1252" data-name="패스 1252" class="cls-1" d="M1860.88,6091.976c19.694-20.019,46.132-29.32,59-32.889v-3.738C1866.47,6050.51,1860.88,6091.976,1860.88,6091.976Z"/>
        <path id="패스_1253" data-name="패스 1253" class="cls-1" d="M1872.907,5989.06s4.212-20.075,6.388-24.381l-16.73-.422s2.6,26.49,0,36.856Z"/>
        <path id="패스_1254" data-name="패스 1254" class="cls-1" d="M1884.49,6047.819l7.56-15s-18.3,1.241-24.245-2.269c0,0,2.013,18,.283,28.385Z"/>
        <path id="패스_1255" data-name="패스 1255" class="cls-1" d="M1871.177,6021.516c19.305,4.276,35.889-.751,48.706-8.117V5997.71A451.772,451.772,0,0,0,1871.177,6021.516Z"/>
        <path id="패스_1256" data-name="패스 1256" class="cls-1" d="M1869.818,6010.122c14.566-8.6,34.312-16.989,50.065-23.113v-10.954C1882.878,5982,1869.818,6010.122,1869.818,6010.122Z"/>
        <path id="패스_1257" data-name="패스 1257" class="cls-1" d="M1885.264,5979.234l13.782-7.675a281.256,281.256,0,0,0,20.837-29.028V5927.38C1892.362,5944.565,1885.264,5979.234,1885.264,5979.234Z"/>
        <path id="패스_1258" data-name="패스 1258" class="cls-1" d="M1905.854,5856.827s3.278-4.236,6.249-2.667l-13.948,57.214c-3.065,10.74-5.545,20.264-6.1,24.99,16.051-13.822,24.123-31.156,27.833-47.888v-54.4c-.789-3.944-1.44-6.216-1.44-6.216-56.722,42.542-36.572,106.354-36.572,106.354S1898.576,5867.45,1905.854,5856.827Z"/>
        <path id="패스_1259" data-name="패스 1259" class="cls-1" d="M1812.957,5921.436s39.685,12,59.061,27.026C1872.018,5948.462,1863.032,5914.954,1812.957,5921.436Z"/>
        <path id="패스_1260" data-name="패스 1260" class="cls-1" d="M1806.077,5930.446s23.541,20.4,53.025,21.9C1859.1,5952.346,1831.7,5935.942,1806.077,5930.446Z"/>
        <path id="패스_1261" data-name="패스 1261" class="cls-1" d="M1811.505,5946.239s-2.013,44.225,31.778,61.1c0,0-12.355-25.668-17.6-52.369Z"/>
        <path id="패스_1262" data-name="패스 1262" class="cls-1" d="M1847.167,6027.6s-29.157,9.01-32.152,83.586l4.354-1.311s18.345-30.886,20.03-53.561C1839.4,6056.314,1843.75,6031.439,1847.167,6027.6Z"/>
        <path id="패스_1263" data-name="패스 1263" class="cls-1" d="M1816.326,6048.076c-12.005-18.252-32.152-17.526-32.152-17.526,9.875,6.06,30.046,24.007,30.046,24.007Z"/>
        <path id="패스_1264" data-name="패스 1264" class="cls-1" d="M1808.184,6075.15l1.73-10.319c-9.079-11.583-36.832-29.46-36.832-29.46C1777.762,6060.641,1808.184,6075.15,1808.184,6075.15Z"/>
        <path id="패스_1265" data-name="패스 1265" class="cls-1" d="M1694.748,6099.891c19.376-15.021,59.061-27.026,59.061-27.026C1703.734,6066.384,1694.748,6099.891,1694.748,6099.891Z"/>
        <path id="패스_1266" data-name="패스 1266" class="cls-1" d="M1674.716,6087.793c-.56-4.725-3.041-14.25-6.1-24.989l-13.948-57.214c2.971-1.569,6.249,2.667,6.249,2.667,7.277,10.622,23.983,77.384,23.983,77.384s20.15-63.812-36.573-106.354C1648.322,5979.287,1628.573,6048.06,1674.716,6087.793Z"/>
        <path id="패스_1267" data-name="패스 1267" class="cls-1" d="M1676.73,6116.109c-5.9-14.108-18.147-34.566-41.464-42.94,0,0,8.925,19.4,27,42.94Z"/>
        <path id="패스_1268" data-name="패스 1268" class="cls-1" d="M1650.8,6116.109a136.79,136.79,0,0,1-21.5-33.041s.331,16.072,17.036,33.041Z"/>
        <path id="패스_1269" data-name="패스 1269" class="cls-1" d="M1547.171,6110.483s-40.248-10.833-87.843-42.8c0,0,24.477,51.808,103.687,45.724,0,0-4.236-6.271-8.542-8.588C1554.473,6104.821,1554.894,6113.409,1547.171,6110.483Z"/>
        <path id="패스_1270" data-name="패스 1270" class="cls-1" d="M1465.788,6059.916c57.024,35.545,85.6,41.979,85.6,41.979C1515.887,6057.717,1465.788,6059.916,1465.788,6059.916Z"/>
        <path id="패스_1271" data-name="패스 1271" class="cls-1" d="M1495.74,6032.583s7.347,6.389-1.78,8.892c0,0-49.093-8.048-74.833-15.795,0,0,16.287,13.644,17.128,16.591,0,0,48.345,20.264,83.095-6.762,0,0-42.846-38.212-102.353-21.457C1417,6014.052,1456.779,6025.213,1495.74,6032.583Z"/>
        <path id="패스_1272" data-name="패스 1272" class="cls-1" d="M1428.089,5980.589l-5.966-.257a4.754,4.754,0,0,1-3,5.5c-6.834,3.414-69.4,22.253-69.4,22.253C1398.956,6028.256,1428.089,5980.589,1428.089,5980.589Z"/>
        <path id="패스_1273" data-name="패스 1273" class="cls-1" d="M1336.853,6000.808c11.489-1.687,68.094-20.476,68.094-20.476-43.2-2.247-72.822,17.972-72.822,17.972Z"/>
        <path id="패스_1274" data-name="패스 1274" class="cls-1" d="M1342.985,5977.711s-20.267,2.878-32.248,13.665l11.14,2.107S1335.12,5983.678,1342.985,5977.711Z"/>
        <path id="패스_1275" data-name="패스 1275" class="cls-1" d="M1315.512,6054.837s-8.566-62.219-48.462-69.918c0,0,24.453,29.133,41.113,49.653,0,0,4.306,12.053-7.207,6.9,0,0-40.864-51.955-51.992-58.476q-.513.787-1.075,1.622C1248.665,5994.4,1255.519,6034.6,1315.512,6054.837Z"/>
        <path id="패스_1276" data-name="패스 1276" class="cls-1" d="M1153.516,6010.122c28.337-16.732,76.284-32.667,76.284-32.667,4.261-1.147,7.232,4.774,7.232,4.774l1.779-2.174a28.072,28.072,0,0,1,.372-2.94C1174.622,5964.7,1153.516,6010.122,1153.516,6010.122Z"/>
        <path id="패스_1277" data-name="패스 1277" class="cls-1" d="M1168.961,5979.234l13.783-7.675c21.738-26.514,32.454-49.819,32.454-49.819C1177.993,5935.1,1168.961,5979.234,1168.961,5979.234Z"/>
        <path id="패스_1278" data-name="패스 1278" class="cls-1" d="M1189.552,5856.827s3.278-4.236,6.249-2.667l-13.948,57.214c-3.065,10.74-5.545,20.264-6.1,24.99,46.142-39.734,26.393-108.506,26.393-108.506-56.722,42.542-36.572,106.354-36.572,106.354S1182.274,5867.45,1189.552,5856.827Z"/>
        <path id="패스_1279" data-name="패스 1279" class="cls-1" d="M1096.655,5921.436s39.685,12,59.061,27.026C1155.716,5948.462,1146.73,5914.954,1096.655,5921.436Z"/>
        <path id="패스_1280" data-name="패스 1280" class="cls-1" d="M1089.775,5930.446s23.54,20.4,53.025,21.9C1142.8,5952.346,1115.4,5935.942,1089.775,5930.446Z"/>
        <path id="패스_1281" data-name="패스 1281" class="cls-1" d="M1095.2,5946.239s-2.013,44.225,31.778,61.1c0,0-12.355-25.668-17.6-52.369Z"/>
        <path id="패스_1282" data-name="패스 1282" class="cls-1" d="M1130.865,6027.6s-29.157,9.01-32.152,83.586l4.354-1.311s18.345-30.886,20.03-53.561C1123.1,6056.314,1127.448,6031.439,1130.865,6027.6Z"/>
        <path id="패스_1283" data-name="패스 1283" class="cls-1" d="M1100.024,6048.076c-12.005-18.252-32.152-17.526-32.152-17.526,9.875,6.06,30.046,24.007,30.046,24.007Z"/>
        <path id="패스_1284" data-name="패스 1284" class="cls-1" d="M1091.882,6075.15l1.73-10.319c-9.079-11.583-36.832-29.46-36.832-29.46C1061.46,6060.641,1091.882,6075.15,1091.882,6075.15Z"/>
        <path id="패스_1285" data-name="패스 1285" class="cls-1" d="M978.446,6099.891c19.376-15.021,59.061-27.026,59.061-27.026C987.432,6066.384,978.446,6099.891,978.446,6099.891Z"/>
        <path id="패스_1286" data-name="패스 1286" class="cls-1" d="M958.414,6087.793c-.56-4.725-3.041-14.25-6.1-24.989l-13.948-57.214c2.971-1.569,6.249,2.667,6.249,2.667,7.277,10.622,23.983,77.384,23.983,77.384s20.15-63.812-36.573-106.354C932.02,5979.287,912.271,6048.06,958.414,6087.793Z"/>
        <path id="패스_1287" data-name="패스 1287" class="cls-1" d="M960.428,6116.109c-5.9-14.108-18.147-34.566-41.464-42.94,0,0,8.925,19.4,27,42.94Z"/>
        <path id="패스_1288" data-name="패스 1288" class="cls-1" d="M934.494,6116.109a136.79,136.79,0,0,1-21.5-33.041s.331,16.072,17.036,33.041Z"/>
        <path id="패스_1289" data-name="패스 1289" class="cls-1" d="M830.869,6110.483s-40.248-10.833-87.843-42.8c0,0,24.477,51.808,103.687,45.724,0,0-4.237-6.271-8.543-8.588C838.17,6104.821,838.592,6113.409,830.869,6110.483Z"/>
        <path id="패스_1290" data-name="패스 1290" class="cls-1" d="M749.486,6059.916c57.024,35.545,85.6,41.979,85.6,41.979C799.585,6057.717,749.486,6059.916,749.486,6059.916Z"/>
        <path id="패스_1291" data-name="패스 1291" class="cls-1" d="M779.438,6032.583s7.347,6.389-1.78,8.892c0,0-49.093-8.048-74.833-15.795,0,0,16.287,13.644,17.128,16.591,0,0,48.345,20.264,83.094-6.762,0,0-42.845-38.212-102.352-21.457C700.7,6014.052,740.476,6025.213,779.438,6032.583Z"/>
        <path id="패스_1292" data-name="패스 1292" class="cls-1" d="M711.787,5980.589l-5.966-.257a4.754,4.754,0,0,1-3,5.5c-6.834,3.414-69.405,22.253-69.405,22.253C682.654,6028.256,711.787,5980.589,711.787,5980.589Z"/>
        <path id="패스_1293" data-name="패스 1293" class="cls-1" d="M620.551,6000.808c11.489-1.687,68.094-20.476,68.094-20.476-43.2-2.247-72.822,17.972-72.822,17.972Z"/>
        <path id="패스_1294" data-name="패스 1294" class="cls-1" d="M626.682,5977.711s-20.266,2.878-32.247,13.665l11.139,2.107S618.818,5983.678,626.682,5977.711Z"/>
        <path id="패스_1295" data-name="패스 1295" class="cls-1" d="M599.21,6054.837s-8.566-62.219-48.462-69.918c0,0,24.452,29.133,41.113,49.653,0,0,4.306,12.053-7.207,6.9,0,0-40.864-51.955-51.992-58.476q-.513.787-1.075,1.622C532.363,5994.4,539.217,6034.6,599.21,6054.837Z"/>
        <path id="패스_1296" data-name="패스 1296" class="cls-1" d="M437.214,6010.122c28.337-16.732,76.284-32.667,76.284-32.667,4.261-1.147,7.232,4.774,7.232,4.774l1.779-2.174a27.837,27.837,0,0,1,.372-2.94C458.32,5964.7,437.214,6010.122,437.214,6010.122Z"/>
        <path id="패스_1297" data-name="패스 1297" class="cls-1" d="M486.12,5966.364c18.393-17.574,18.745-34.726,18.745-34.726a134.321,134.321,0,0,1-23.049,34.726Z"/>
        <path id="패스_1298" data-name="패스 1298" class="cls-1" d="M452.659,5979.234l13.783-7.675c21.738-26.514,32.454-49.819,32.454-49.819C461.691,5935.1,452.659,5979.234,452.659,5979.234Z"/>
        <path id="패스_1299" data-name="패스 1299" class="cls-1" d="M473.25,5856.827s3.278-4.236,6.249-2.667l-13.948,57.214c-3.065,10.74-5.545,20.264-6.1,24.99,46.142-39.734,26.393-108.506,26.393-108.506-56.722,42.542-36.572,106.354-36.572,106.354S465.972,5867.45,473.25,5856.827Z"/>
        <path id="패스_1300" data-name="패스 1300" class="cls-1" d="M380.353,5921.436s39.685,12,59.061,27.026C439.414,5948.462,430.428,5914.954,380.353,5921.436Z"/>
        <path id="패스_1301" data-name="패스 1301" class="cls-1" d="M373.473,5930.446s23.54,20.4,53.025,21.9C426.5,5952.346,399.1,5935.942,373.473,5930.446Z"/>
        <path id="패스_1302" data-name="패스 1302" class="cls-1" d="M378.9,5946.239s-2.013,44.225,31.778,61.1c0,0-12.355-25.668-17.6-52.369Z"/>
        <path id="패스_1303" data-name="패스 1303" class="cls-1" d="M414.563,6027.6s-29.157,9.01-32.152,83.586l4.354-1.311s18.345-30.886,20.029-53.561C406.794,6056.314,411.146,6031.439,414.563,6027.6Z"/>
        <path id="패스_1304" data-name="패스 1304" class="cls-1" d="M383.722,6048.076c-12-18.252-32.152-17.526-32.152-17.526,9.875,6.06,30.045,24.007,30.045,24.007Z"/>
        <path id="패스_1305" data-name="패스 1305" class="cls-1" d="M375.58,6075.15l1.73-10.319c-9.079-11.583-36.832-29.46-36.832-29.46C345.158,6060.641,375.58,6075.15,375.58,6075.15Z"/>
        <path id="패스_1306" data-name="패스 1306" class="cls-1" d="M262.144,6099.891c19.376-15.021,59.061-27.026,59.061-27.026C271.13,6066.384,262.144,6099.891,262.144,6099.891Z"/>
        <path id="패스_1307" data-name="패스 1307" class="cls-1" d="M242.112,6087.793c-.561-4.725-3.041-14.25-6.1-24.989l-13.948-57.214c2.971-1.569,6.249,2.667,6.249,2.667,7.277,10.622,23.983,77.384,23.983,77.384s20.149-63.812-36.573-106.354C215.718,5979.287,195.969,6048.06,242.112,6087.793Z"/>
        <path id="패스_1308" data-name="패스 1308" class="cls-1" d="M244.126,6116.109c-5.9-14.108-18.148-34.566-41.464-42.94,0,0,8.925,19.4,27,42.94Z"/>
        <path id="패스_1309" data-name="패스 1309" class="cls-1" d="M218.192,6116.109a136.791,136.791,0,0,1-21.5-33.041s.331,16.072,17.036,33.041Z"/>
        <path id="패스_1310" data-name="패스 1310" class="cls-1" d="M114.567,6110.483s-40.248-10.833-87.843-42.8c0,0,24.477,51.808,103.687,45.724,0,0-4.237-6.271-8.543-8.588C121.868,6104.821,122.29,6113.409,114.567,6110.483Z"/>
        <path id="패스_1311" data-name="패스 1311" class="cls-1" d="M33.184,6059.916c57.024,35.545,85.6,41.979,85.6,41.979C83.283,6057.717,33.184,6059.916,33.184,6059.916Z"/>
        <path id="패스_1312" data-name="패스 1312" class="cls-1" d="M63.136,6032.583s7.347,6.389-1.78,8.892c0,0-35.074-5.75-61.473-12.208v8.422c2.023,2.022,3.528,3.74,3.768,4.582,0,0,48.345,20.264,83.094-6.762,0,0-35.552-31.7-86.862-24.686v7.369C15.028,6022.115,39.235,6028.062,63.136,6032.583Z"/>
      </g>
    </g>
    <g id="page5" transform="translate(-0.883 -6000.433)">
      <rect id="사각형_77" data-name="사각형 77" class="cls-1" width="1920.159" height="1432.43" transform="translate(1.823 6731.433)"/>
    </g>
  </g>
</svg>
