<svg xmlns="http://www.w3.org/2000/svg" xmlns:xlink="http://www.w3.org/1999/xlink" width="583.886" height="730.792" viewBox="0 0 583.886 730.792">
  <defs>
    <style>
      .cls-1 {
        fill: none;
      }

      .cls-2 {
        fill: #d1d2f0;
      }

      .cls-3 {
        fill: #ffa9b2;
      }

      .cls-4 {
        mix-blend-mode: multiply;
      }

      .cls-19, .cls-4 {
        isolation: isolate;
      }

      .cls-5 {
        fill: #e7e7e7;
      }

      .cls-6, .cls-7 {
        fill: #914faf;
      }

      .cls-7 {
        opacity: 0.1;
      }

      .cls-8, .cls-9 {
        fill: #ad62cc;
      }

      .cls-9 {
        opacity: 0.3;
      }

      .cls-10 {
        fill: #c679e2;
      }

      .cls-11 {
        fill: #ff9090;
      }

      .cls-12 {
        fill: #e1e1e1;
      }

      .cls-13 {
        fill: #995bb5;
      }

      .cls-14 {
        fill: #1a2e35;
      }

      .cls-15 {
        fill: #ffaaa8;
      }

      .cls-16 {
        fill: #2b454e;
      }

      .cls-17 {
        fill: #ececec;
      }

      .cls-18 {
        fill: #00dfbf;
      }

      .cls-20 {
        clip-path: url(#clip-path);
      }

      .cls-21 {
        fill: #fff;
      }
    </style>
    <clipPath id="clip-path">
      <path id="패스_2173" data-name="패스 2173" class="cls-1" d="M639.733,630.451l-1.722-43.6,7.412-2.829,1.722,43.6Z"/>
    </clipPath>
  </defs>
  <g id="page1-2_이미지" data-name="page1-2 이미지" transform="translate(-259.309 -346.693)">
    <circle id="타원_195" data-name="타원 195" class="cls-2" cx="253.656" cy="253.656" r="253.656" transform="translate(335.882 346.693)"/>
    <path id="패스_2135" data-name="패스 2135" class="cls-3" d="M259.309,732.358A97.253,97.253,0,1,0,356.562,635.1,97.253,97.253,0,0,0,259.309,732.358Zm20.746,0a76.507,76.507,0,1,1,76.507,76.506A76.507,76.507,0,0,1,280.055,732.358Z" transform="translate(0 24)"/>
    <g id="그룹_2371" data-name="그룹 2371" transform="translate(0 24)">
      <g id="그룹_2347" data-name="그룹 2347" class="cls-4">
        <ellipse id="타원_198" data-name="타원 198" class="cls-5" cx="71.624" cy="34.136" rx="71.624" ry="34.136" transform="translate(549.838 985.213)"/>
      </g>
      <g id="그룹_2348" data-name="그룹 2348">
        <path id="패스_2136" data-name="패스 2136" class="cls-6" d="M644.487,653.826,636.5,638.8l6.429-18.561v-11.36l-19.677,11.36V631.6l8.461,14.653a1.211,1.211,0,0,0,.575.511l0,.007Z"/>
        <path id="패스_2137" data-name="패스 2137" class="cls-7" d="M644.487,653.826,636.5,638.8l6.429-18.561v-11.36l-19.677,11.36V631.6l8.461,14.653a1.211,1.211,0,0,0,.575.511l0,.007Z"/>
      </g>
      <g id="그룹_2349" data-name="그룹 2349">
        <path id="패스_2138" data-name="패스 2138" class="cls-8" d="M598.872,583.27,653.086,551.9a13.033,13.033,0,0,1,11.8,0l4.8,2.773a13.039,13.039,0,0,1,5.9,10.218v43.89a13.039,13.039,0,0,1-5.9,10.219l-54.212,31.37a13.037,13.037,0,0,1-11.8,0l-4.8-2.773a13.041,13.041,0,0,1-5.9-10.219V593.488A13.042,13.042,0,0,1,598.872,583.27Z"/>
        <path id="패스_2139" data-name="패스 2139" class="cls-9" d="M598.872,583.27,653.086,551.9a13.033,13.033,0,0,1,11.8,0l4.8,2.773a13.039,13.039,0,0,1,5.9,10.218v43.89a13.039,13.039,0,0,1-5.9,10.219l-54.212,31.37a13.037,13.037,0,0,1-11.8,0l-4.8-2.773a13.041,13.041,0,0,1-5.9-10.219V593.488A13.042,13.042,0,0,1,598.872,583.27Z"/>
      </g>
      <path id="패스_2140" data-name="패스 2140" class="cls-10" d="M615.476,650.369c-3.259,1.882-5.9.357-5.9-3.406l0-43.889a13.042,13.042,0,0,1,5.9-10.218l54.214-31.372c3.259-1.88,5.9-.356,5.9,3.406v43.89a13.039,13.039,0,0,1-5.9,10.219"/>
      <g id="그룹_2350" data-name="그룹 2350">
        <path id="패스_2141" data-name="패스 2141" class="cls-6" d="M592.973,637.377a13.041,13.041,0,0,0,5.9,10.219l4.8,2.773a13.181,13.181,0,0,0,10.79.476c-2.777,1.05-4.889-.516-4.889-3.882l0-43.889a12.059,12.059,0,0,1,1.729-5.814l-16.6-9.586a12.044,12.044,0,0,0-1.729,5.814Z"/>
        <path id="패스_2142" data-name="패스 2142" class="cls-7" d="M592.973,637.377a13.041,13.041,0,0,0,5.9,10.219l4.8,2.773a13.181,13.181,0,0,0,10.79.476c-2.777,1.05-4.889-.516-4.889-3.882l0-43.889a12.059,12.059,0,0,1,1.729-5.814l-16.6-9.586a12.044,12.044,0,0,0-1.729,5.814Z"/>
      </g>
      <path id="패스_2143" data-name="패스 2143" class="cls-10" d="M635.589,638.728l8.458,14.652a1.261,1.261,0,0,0,2.283-.217l8.936-25.8v-11.36l-19.677,11.36Z"/>
      <path id="패스_2144" data-name="패스 2144" class="cls-11" d="M674.572,776.308l9.421,17.273-14.656,12.562-13.426-21.286Z"/>
      <path id="패스_2145" data-name="패스 2145" class="cls-12" d="M639.22,737.809c9.343.1,19.632,3.494,23.173,10.821S677,778.777,677,778.777s-8.259,12.091-21.359,11.24Z"/>
      <path id="패스_2146" data-name="패스 2146" class="cls-13" d="M673.841,796.261c2.74-5.1,3.418-5.319,5.043-6.437s11.616-2.609,15.761-2.959c4.877-.41,6.608.485,5.253,4.679-2.9,8.975-11.7,28.031-13.672,30.66-1.294,1.724-1.559,3.326-7.039,3.861-5.123.5-11.545.779-13.435.893s-4.506.584-2.813-4.979a184.094,184.094,0,0,1,7.487-18.485C672.536,798.92,673.841,796.261,673.841,796.261Z"/>
      <path id="패스_2147" data-name="패스 2147" class="cls-14" d="M564.709,967.619c-2.325-1.2-3.8,1.757-5.916,4.13-1.478,1.66-3.787,4.293-4.127,6.187-.506,2.8,2.02,7.217,4.82,9.651s6.046,4.177,7.063,9.511,3.092,8.506,8.62,10.892c6.06,2.614,14.177,1.777,16.928,0,3.262-2.107.284-4.418-4.286-10.958C581.848,988.5,577.2,982.4,577.2,974.441Z"/>
      <path id="패스_2148" data-name="패스 2148" class="cls-15" d="M569.478,960.629l-4.9,7.179a6.887,6.887,0,0,0,1.654,9.561l.151.1a7.4,7.4,0,0,0,9.376-1.458l7.643-8.34Z"/>
      <path id="패스_2149" data-name="패스 2149" class="cls-16" d="M659.441,820.536c.31,9.145-2.273,46.124-8.593,62.484s-9.98,26.526-11.969,29.93-59.29,59.187-59.29,59.187-9.723-.712-11.27-10.143c0,0,23.48-39.912,28.561-48.1s23.093-20.737,23.093-20.737l-1.639-71.6Z"/>
      <path id="패스_2150" data-name="패스 2150" class="cls-15" d="M574.556,811.619c.114-1.588,4.882-19.66,7.325-28.027l17.745,6.11-4.165,13.167-15.616,16.152C574.584,817.978,574.442,813.208,574.556,811.619Z"/>
      <rect id="사각형_151" data-name="사각형 151" class="cls-15" width="12.423" height="18.092" transform="translate(658.912 1012.709) rotate(167.186)"/>
      <path id="패스_2151" data-name="패스 2151" class="cls-16" d="M659.441,820.536H601.334c-.5,6.445-1.907,10.044-2.183,25.608-.45,25.2,22.977,70.959,22.977,70.959-.291,3.415-1.734,17.765,1.521,30.484,5.137,20.07,19.138,54.031,19.138,54.031s8.77,1.252,13.127-3.824c0,0-7.753-68.95-9.842-86.617-2.259-19.117-8.063-54.027-8.063-54.027s4.028-3.666,10.393-12.458c9.26-12.794,11.039-24.156,11.039-24.156"/>
      <path id="패스_2152" data-name="패스 2152" class="cls-17" d="M620.035,738.372c-11.139,2.681-26.324,6.17-30.726,18.244-4.353,11.941-10.7,33.444-10.7,33.444,2.443,4.237,15.878,7.755,20.536,5.293l2.19-7.241v32.424c8.712,9.477,39.083,13.893,58.107,0V759.975c0-9.677-5.376-21.3-20.221-22.166Z"/>
      <path id="패스_2153" data-name="패스 2153" class="cls-12" d="M601.334,788.112l5.589-17.586-5.589,25.456Z"/>
      <g id="그룹_2351" data-name="그룹 2351">
        <path id="패스_2154" data-name="패스 2154" class="cls-14" d="M615.853,688.846a6.615,6.615,0,0,0-5.476,1.926c-2.354,2.405-1.867,6.859,0,17.093l7.271.835Z"/>
      </g>
      <g id="그룹_2352" data-name="그룹 2352">
        <path id="패스_2155" data-name="패스 2155" class="cls-14" d="M658.249,685.886a11.369,11.369,0,0,0,4.548-.924c2.233-1.282,2.815,1.254,1.593,3.459a10.391,10.391,0,0,1-8.438,5.618c-.064-.317-2.086-5.679-2.086-5.679Z"/>
      </g>
      <g id="그룹_2353" data-name="그룹 2353">
        <path id="패스_2156" data-name="패스 2156" class="cls-15" d="M619.266,708.705c-1.081.644-2.621-1.43-3.953-2.822s-5.677-3.3-7.843,1.271c-2.209,4.656,2.805,10.846,5.75,12.892,3.5,2.431,6.046.523,6.046.523l.769,17.8s3.862,9.446,14.317,10.864,8.3-7.2,4.868-11.427l-.017-6.473s5.4,1.087,7.948.408c1.364-.363,4.617-4.3,6.715-8.7,2.358-4.94,6.278-13.711,2.789-28.544-3.752-15.934-20.867-16.42-31.076-9.994S619.266,708.705,619.266,708.705Z"/>
      </g>
      <g id="그룹_2354" data-name="그룹 2354">
        <path id="패스_2157" data-name="패스 2157" class="cls-14" d="M619.266,710.521c-.544.01-2.609-3.416-3.953-4.638-1.861-1.7.54-17.037.54-17.037s-1.883-5.82,1.8-9.679,10.81-3.207,16.025-3.4c5.426-.195,11.236-.523,18.642-3.74s7.959-3.6,8.877-.346,1.265,10.7-3.153,15.693l-2.4,3.928s-2.252,1.891-9.158,2.732-18.679-2.869-20.151-3.07c-2-.273-2.429,1.668-3.51,6.971C621.875,702.595,621.089,710.486,619.266,710.521Z"/>
      </g>
      <g id="그룹_2355" data-name="그룹 2355">
        <path id="패스_2158" data-name="패스 2158" class="cls-14" d="M615.864,690.038l-6.528-3.5a3.6,3.6,0,0,1,4.941-1.634A3.89,3.89,0,0,1,615.864,690.038Z"/>
      </g>
      <g id="그룹_2356" data-name="그룹 2356">
        <path id="패스_2159" data-name="패스 2159" class="cls-11" d="M639.2,731.336s-9.679-1.95-13.064-3.749a11.149,11.149,0,0,1-4.678-4.628,15.242,15.242,0,0,0,2.658,5.459c2.475,3.164,15.084,5.494,15.084,5.494Z"/>
      </g>
      <g id="그룹_2357" data-name="그룹 2357">
        <path id="패스_2160" data-name="패스 2160" class="cls-14" d="M639.511,708.352a1.941,1.941,0,1,1-1.94-2.021A1.972,1.972,0,0,1,639.511,708.352Z"/>
      </g>
      <g id="그룹_2358" data-name="그룹 2358">
        <path id="패스_2161" data-name="패스 2161" class="cls-14" d="M637.453,701.029l-4.149,2.289a2.484,2.484,0,0,1,.968-3.3A2.312,2.312,0,0,1,637.453,701.029Z"/>
      </g>
      <g id="그룹_2359" data-name="그룹 2359">
        <path id="패스_2162" data-name="패스 2162" class="cls-11" d="M638.326,721.321l4.428,1.662a2.322,2.322,0,0,1-3.007,1.467A2.477,2.477,0,0,1,638.326,721.321Z"/>
      </g>
      <g id="그룹_2360" data-name="그룹 2360">
        <path id="패스_2163" data-name="패스 2163" class="cls-14" d="M656.809,702.643l-3.785-2.914a2.294,2.294,0,0,1,3.29-.505A2.509,2.509,0,0,1,656.809,702.643Z"/>
      </g>
      <g id="그룹_2361" data-name="그룹 2361">
        <path id="패스_2164" data-name="패스 2164" class="cls-14" d="M655.642,707.8a1.941,1.941,0,1,1-1.939-2.021A1.972,1.972,0,0,1,655.642,707.8Z"/>
      </g>
      <g id="그룹_2362" data-name="그룹 2362">
        <path id="패스_2165" data-name="패스 2165" class="cls-11" d="M646.505,707.564,644.679,719.1l6.391-.751Z"/>
      </g>
      <path id="패스_2166" data-name="패스 2166" class="cls-14" d="M657.551,1006.73l-.392-1.732c1.272.242,6.71,9.273,12.106,13.2,5.908,4.295,11.036,6.836,13.676,8.773,3.529,2.59-1.58,7.9-10.273,8.368-4.314.237-12.17-1.076-14.589-3.375s-4.173-6.1-6.091-7.749-5.8-3.1-7.117-5.215c-.722-1.162-.833-4.043-.753-6.517.076-2.268.149-4.764.925-4.728.062.26.3,1.319.3,1.319a15.027,15.027,0,0,0,7.368,1.625C654.758,1010.6,658.564,1010.127,657.551,1006.73Z"/>
      <path id="패스_2167" data-name="패스 2167" class="cls-14" d="M644.544,899.474s-5.159-36.645-6.535-42.324c0,0,8.309-4.616,11.474-8.211a94.141,94.141,0,0,1-7.846,9.807Z"/>
      <path id="패스_2168" data-name="패스 2168" class="cls-14" d="M613.43,898.256s6.2,15.434,8.7,18.847c0,0-.625,11.76-.537,14.136l-3.257,2.837s-.154-9.874,1.459-15.861A95.676,95.676,0,0,1,613.43,898.256Z"/>
      <path id="패스_2169" data-name="패스 2169" class="cls-18" d="M605.748,892.06"/>
      <path id="패스_2170" data-name="패스 2170" class="cls-15" d="M595.461,802.869s48.87,5.233,54.6,3.455,13.442-7.513,17.593-9.885,7.118-2.57,7.118-1.582-3.544,6.4-4.35,8.637,3.817,2.25,9.885.852,8.5-4.929,10.081-2.86-3.361,12.151-13.443,15.907-17.56,1.279-25.879,1.628-59.656,3.638-71.225,0c0,0-1.341-5.411,4-9.845A37.018,37.018,0,0,1,595.461,802.869Z"/>
      <g id="그룹_2370" data-name="그룹 2370">
        <g id="그룹_2369" data-name="그룹 2369">
          <g id="그룹_2368" data-name="그룹 2368" class="cls-19">
            <g id="그룹_2367" data-name="그룹 2367" class="cls-20">
              <g id="그룹_2366" data-name="그룹 2366">
                <g id="그룹_2365" data-name="그룹 2365">
                  <g id="그룹_2364" data-name="그룹 2364">
                    <g id="그룹_2363" data-name="그룹 2363">
                      <path id="패스_2171" data-name="패스 2171" class="cls-21" d="M641.717,585.433c-2.045.781-3.625,3.447-3.526,5.95l.8,20.232c.1,2.5,1.84,3.9,3.886,3.121s3.625-3.447,3.526-5.95l-.8-20.232c-.1-2.5-1.839-3.9-3.885-3.121"/>
                      <path id="패스_2172" data-name="패스 2172" class="cls-21" d="M643.081,619.965c-2.045.781-3.626,3.447-3.527,5.95s1.84,3.9,3.885,3.121,3.626-3.446,3.527-5.95-1.84-3.9-3.885-3.121"/>
                    </g>
                  </g>
                </g>
              </g>
            </g>
          </g>
        </g>
      </g>
    </g>
  </g>
</svg>
