<svg xmlns="http://www.w3.org/2000/svg" width="583.886" height="729.818" viewBox="0 0 583.886 729.818">
  <defs>
    <style>
      .cls-1 {
        fill: #ffd4d8;
      }

      .cls-2, .cls-3 {
        fill: #484bc3;
      }

      .cls-3 {
        opacity: 0.3;
      }

      .cls-4, .cls-5 {
        fill: #0105ac;
      }

      .cls-5 {
        opacity: 0.1;
      }

      .cls-6 {
        fill: #7678d2;
      }

      .cls-7 {
        fill: #fff;
      }

      .cls-8 {
        fill: #ff7f8b;
      }

      .cls-9 {
        fill: #a9a9a9;
      }

      .cls-10 {
        fill: #ffaaa8;
      }

      .cls-11 {
        fill: #606060;
      }

      .cls-12 {
        fill: #1a2e35;
      }

      .cls-13 {
        fill: #ffa9b2;
      }

      .cls-14 {
        fill: #2b454e;
      }

      .cls-15 {
        fill: #fafafa;
      }

      .cls-16 {
        fill: #ff9090;
      }

      .cls-17 {
        fill: #8c8c8c;
      }

      .cls-18 {
        fill: #e1e1e1;
      }

      .cls-19 {
        fill: #a3a5e1;
      }
    </style>
  </defs>
  <g id="page2-1_이미지" data-name="page2-1 이미지" transform="translate(-1134.016 -1542.693)">
    <circle id="타원_2" data-name="타원 2" class="cls-1" cx="253.656" cy="253.656" r="253.656" transform="translate(1134.016 1542.693)"/>
    <g id="그룹_217" data-name="그룹 217" transform="translate(0 87.676)">
      <g id="그룹_208" data-name="그룹 208">
        <path id="패스_367" data-name="패스 367" class="cls-2" d="M1229.361,1716.731l54.479-31.525a13.1,13.1,0,0,1,11.857,0l4.827,2.787a13.1,13.1,0,0,1,5.928,10.268v44.1a13.1,13.1,0,0,1-5.928,10.268l-54.479,31.526a13.106,13.106,0,0,1-11.857,0l-4.828-2.787a13.1,13.1,0,0,1-5.928-10.269V1727A13.1,13.1,0,0,1,1229.361,1716.731Z"/>
        <path id="패스_368" data-name="패스 368" class="cls-3" d="M1229.361,1716.731l54.479-31.525a13.1,13.1,0,0,1,11.857,0l4.827,2.787a13.1,13.1,0,0,1,5.928,10.268v44.1a13.1,13.1,0,0,1-5.928,10.268l-54.479,31.526a13.106,13.106,0,0,1-11.857,0l-4.828-2.787a13.1,13.1,0,0,1-5.928-10.269V1727A13.1,13.1,0,0,1,1229.361,1716.731Z"/>
      </g>
      <g id="그룹_209" data-name="그룹 209">
        <path id="패스_369" data-name="패스 369" class="cls-4" d="M1275.2,1787.634l-8.031-15.1,6.462-18.651v-11.417l-19.774,11.417V1765.3l8.5,14.725a1.237,1.237,0,0,0,.578.513l-.005.007Z"/>
        <path id="패스_370" data-name="패스 370" class="cls-5" d="M1275.2,1787.634l-8.031-15.1,6.462-18.651v-11.417l-19.774,11.417V1765.3l8.5,14.725a1.237,1.237,0,0,0,.578.513l-.005.007Z"/>
      </g>
      <path id="패스_371" data-name="패스 371" class="cls-6" d="M1246.046,1784.16c-3.274,1.89-5.928.358-5.928-3.423v-44.105a13.106,13.106,0,0,1,5.928-10.268l54.479-31.526c3.275-1.89,5.928-.358,5.928,3.423v44.1a13.1,13.1,0,0,1-5.928,10.268"/>
      <path id="패스_372" data-name="패스 372" class="cls-4" d="M1223.433,1771.1a13.1,13.1,0,0,0,5.928,10.269l4.828,2.787a13.249,13.249,0,0,0,10.843.478c-2.79,1.055-4.914-.52-4.914-3.9v-44.105a12.127,12.127,0,0,1,1.736-5.843l-16.684-9.633a12.12,12.12,0,0,0-1.736,5.844Z"/>
      <path id="패스_373" data-name="패스 373" class="cls-6" d="M1266.257,1772.461l8.5,14.724a1.267,1.267,0,0,0,2.294-.218l8.98-25.922v-11.418l-19.774,11.418Z"/>
      <path id="패스_374" data-name="패스 374" class="cls-7" d="M1252.723,1746.106a12.332,12.332,0,0,0-5.576,9.66c0,3.557,2.5,5,5.577,3.219a12.326,12.326,0,0,0,5.576-9.659C1258.3,1745.769,1255.8,1744.328,1252.723,1746.106Z"/>
      <path id="패스_375" data-name="패스 375" class="cls-7" d="M1273.285,1734.211a12.319,12.319,0,0,0-5.576,9.66c0,3.556,2.5,5,5.576,3.22a12.331,12.331,0,0,0,5.576-9.66C1278.862,1733.874,1276.365,1732.432,1273.285,1734.211Z"/>
      <path id="패스_376" data-name="패스 376" class="cls-7" d="M1293.847,1722.316a12.326,12.326,0,0,0-5.578,9.66c0,3.556,2.5,5,5.578,3.22a12.33,12.33,0,0,0,5.576-9.661C1299.423,1721.98,1296.926,1720.538,1293.847,1722.316Z"/>
      <path id="패스_377" data-name="패스 377" class="cls-8" d="M1379.5,1820.437l-7.931,17.089,14.729,12.624,12.733-21.5Z"/>
      <path id="패스_378" data-name="패스 378" class="cls-9" d="M1415.806,1781.367c-9.389.1-19.73,3.511-23.287,10.873s-14.681,30.3-14.681,30.3,8.3,12.151,21.464,11.295Z"/>
      <g id="그룹_210" data-name="그룹 210">
        <rect id="사각형_4" data-name="사각형 4" class="cls-10" width="12.988" height="18.911" transform="translate(1443.551 2052.472)"/>
      </g>
      <g id="그룹_211" data-name="그룹 211">
        <rect id="사각형_5" data-name="사각형 5" class="cls-10" width="12.988" height="18.913" transform="translate(1397.88 2029.511) rotate(-1.972)"/>
      </g>
      <g id="그룹_212" data-name="그룹 212">
        <path id="패스_379" data-name="패스 379" class="cls-11" d="M1455.686,1867.844c0,12.4,1.6,92.628,1.6,92.628.3,3.568,3.647,10.147,2.924,23.853-.984,18.618-2.592,70.339-2.592,70.339s-6.091,6.037-14.689,0c0,0-11.759-70.275-14.086-88.725-2.031-16.1-5.476-59.85-5.476-59.85l-12.033,51.495s2.117,12.1,2.582,20.646-2.205,57.889-2.205,57.889a14.187,14.187,0,0,1-14.131.539s-10.433-72.1-11.773-79.813,9.133-89,9.133-89Z"/>
      </g>
      <g id="그룹_213" data-name="그룹 213">
        <path id="패스_380" data-name="패스 380" class="cls-9" d="M1436.136,1781.954l.176.043a25.745,25.745,0,0,1,19.374,25.048v60.8c-9.108,9.907-40.856,14.523-60.742,0v-63.308c0-10.115,5.62-22.267,21.139-23.169Z"/>
      </g>
      <path id="패스_381" data-name="패스 381" class="cls-12" d="M1440.507,1730.181a6.922,6.922,0,0,1,5.727,2.015c2.46,2.513,1.949,7.17,0,17.867l-7.6.873Z"/>
      <path id="패스_382" data-name="패스 382" class="cls-12" d="M1396.19,1727.088a11.91,11.91,0,0,1-4.756-.965c-2.333-1.341-2.942,1.31-1.663,3.614a10.857,10.857,0,0,0,8.819,5.873c.069-.33,2.182-5.936,2.182-5.936Z"/>
      <path id="패스_383" data-name="패스 383" class="cls-13" d="M1436.942,1750.942c1.128.674,2.738-1.494,4.13-2.951s5.934-3.446,8.2,1.33c2.309,4.866-2.934,11.338-6.012,13.476-3.658,2.541-6.319.548-6.319.548l-.806,18.609s-4.036,9.875-14.964,11.356-8.678-7.528-5.089-11.943l.017-6.768s-5.646,1.137-8.309.427c-1.426-.38-4.825-4.491-7.019-9.089-2.465-5.164-6.563-14.332-2.914-29.838,3.919-16.658,21.813-17.166,32.483-10.449S1436.942,1750.942,1436.942,1750.942Z"/>
      <path id="패스_384" data-name="패스 384" class="cls-12" d="M1436.942,1752.84c.568.01,2.725-3.571,4.13-4.849,1.947-1.771-.565-17.81-.565-17.81s1.97-6.082-1.877-10.116-11.3-3.354-16.752-3.55c-5.671-.2-11.745-.547-19.486-3.91s-8.32-3.761-9.281-.361-1.322,11.186,3.3,16.4l3.844,1.412s2.075,1.842,9.295,2.721,18.466-.169,20-.38c2.094-.286,2.541,1.744,3.67,7.287C1434.212,1744.555,1435.035,1752.8,1436.942,1752.84Z"/>
      <path id="패스_385" data-name="패스 385" class="cls-12" d="M1440.5,1731.429l6.823-3.663a3.758,3.758,0,0,0-5.165-1.707A4.067,4.067,0,0,0,1440.5,1731.429Z"/>
      <path id="패스_386" data-name="패스 386" class="cls-8" d="M1416.1,1774.6s10.118-2.038,13.656-3.918a11.655,11.655,0,0,0,4.89-4.839,15.94,15.94,0,0,1-2.778,5.707c-2.587,3.307-15.768,5.742-15.768,5.742Z"/>
      <path id="패스_387" data-name="패스 387" class="cls-12" d="M1418.531,1748.411a2.03,2.03,0,1,0,2.028-2.113A2.061,2.061,0,0,0,1418.531,1748.411Z"/>
      <path id="패스_388" data-name="패스 388" class="cls-12" d="M1420.682,1740.755l4.338,2.4a2.6,2.6,0,0,0-1.011-3.454A2.419,2.419,0,0,0,1420.682,1740.755Z"/>
      <path id="패스_389" data-name="패스 389" class="cls-8" d="M1418.683,1762.16l-4.629,1.736a2.429,2.429,0,0,0,3.145,1.535A2.588,2.588,0,0,0,1418.683,1762.16Z"/>
      <path id="패스_390" data-name="패스 390" class="cls-12" d="M1400.45,1742.444l3.955-3.047a2.4,2.4,0,0,0-3.438-.527A2.623,2.623,0,0,0,1400.45,1742.444Z"/>
      <path id="패스_391" data-name="패스 391" class="cls-12" d="M1401.667,1747.834a2.029,2.029,0,1,0,2.029-2.112A2.062,2.062,0,0,0,1401.667,1747.834Z"/>
      <path id="패스_392" data-name="패스 392" class="cls-8" d="M1412,1745.911l-.666,12.194-6.368-2.17Z"/>
      <g id="그룹_214" data-name="그룹 214">
        <path id="패스_393" data-name="패스 393" class="cls-12" d="M1443.551,2064.973v-1.857c-1.242.542-4.13,11.557-9.282,16.256-4.1,3.737-9.685,8.053-11.106,12.218-1.479,4.333,7.782,6.724,11.609,6.047,4.447-.789,12.154-3.92,14.089-6.822s2.841-7.183,4.413-9.311,5.2-4.5,6.047-6.964c.467-1.353-.088-4.314-.744-6.82-.6-2.3-1.255-4.82-2.038-4.6,0,.281,0,1.417,0,1.417-.944,1.043-3.551,2.08-6.494,2.194C1448.146,2066.8,1443.536,2066.422,1443.551,2064.973Z"/>
      </g>
      <g id="그룹_215" data-name="그룹 215">
        <path id="패스_394" data-name="패스 394" class="cls-12" d="M1398.394,2044.407c-.674.024-1.224.975-2.711,2.584a28.387,28.387,0,0,1-7.64,5.5c-4.863,2.434-14.317,6.178-18.6,8.1-2.674,1.205-2.548,4.433.215,6.27s9.434,3.162,17.445,1.372c4.364-.977,10.043-5.006,13.64-4.79s10.323.167,12.977-1.663,1.592-5.736.843-9.095c-.819-3.663-1.991-9.27-3.2-9.018l.041,1.151c-1.562,2.365-9.51,3.33-12.94,1.59Z"/>
      </g>
      <path id="패스_395" data-name="패스 395" class="cls-2" d="M1381.015,1840.1c-2.753-5.121-3.434-5.346-5.069-6.47s-11.674-2.621-15.838-2.973c-4.9-.412-6.64.488-5.278,4.7,2.917,9.02,11.759,28.169,13.739,30.812,1.3,1.731,1.566,3.341,7.074,3.879,5.147.5,11.6.783,13.5.9s4.528.587,2.826-5a185.1,185.1,0,0,0-7.523-18.574C1382.327,1842.777,1381.015,1840.1,1381.015,1840.1Z"/>
      <path id="패스_396" data-name="패스 396" class="cls-13" d="M1480.786,1855.539c-.114-1.6-4.906-19.758-7.36-28.165l-17.833,6.14,4.186,13.231,15.695,16.231C1480.759,1861.928,1480.9,1857.136,1480.786,1855.539Z"/>
      <path id="패스_397" data-name="패스 397" class="cls-13" d="M1459.779,1846.745s-49.111,5.259-54.871,3.471-13.508-7.549-17.68-9.933-7.152-2.582-7.152-1.589,3.562,6.433,4.371,8.68-3.837,2.26-9.933.855-8.542-4.953-10.131-2.873,3.376,12.21,13.508,15.985,17.648,1.285,26.007,1.635,59.95,3.656,71.576,0c0,0,1.345-5.438-4.018-9.894A37.211,37.211,0,0,0,1459.779,1846.745Z"/>
      <path id="패스_398" data-name="패스 398" class="cls-9" d="M1440.253,1783.335c7.716,2.542,23.017,3.85,27.947,20.545s7.424,27.534,7.424,27.534c-2.9,3.879-14.49,8.374-19.938,6.717Z"/>
      <path id="패스_399" data-name="패스 399" class="cls-14" d="M1455.686,1838.131l-5.284-18.76,5.284,26.385Z"/>
      <path id="패스_400" data-name="패스 400" class="cls-2" d="M1344.867,1877.49c-.223.337-2.31,3.76-2.31,3.76l-9.507,13.62-9.275,13.91a2.327,2.327,0,0,1-2.7.944c-.2-.067-.4-.133-.628-.224-3.214-1.191-8.032-3.192-14.437-6.158-5.146-2.385-4.912-3.143-4.912-4.018a10,10,0,0,1,.09-2.091v-.045h.022c1.056-2,4.282-6.979,8.634-13.288,7.753-11.238,11.47-16.235,13.789-19.487a2.433,2.433,0,0,1,3.034-.809c4.157,1.392,12.608,5.011,16.945,6.81a1.821,1.821,0,0,1,.2.124C1346.221,1871.773,1344.912,1877.4,1344.867,1877.49Z"/>
      <g id="그룹_216" data-name="그룹 216">
        <path id="패스_401" data-name="패스 401" class="cls-4" d="M1345.113,1877.067c-.021.09-2.556,4.183-2.556,4.183l-9.169,13.979-9.613,13.551a2.327,2.327,0,0,1-2.7.944c-.2-.067-.4-.133-.628-.224-3.214-1.191-8.032-3.192-14.437-6.158-5.146-2.385-4.912-3.143-4.912-4.018a10,10,0,0,1,.09-2.091v-.045h.022c4.923,2.136,20.263,9.458,20.78,9.189,1.235-.585,11.657-17.338,17.211-25.878,2.767-4.257,4.029-6.064,4.95-7.523a1.618,1.618,0,0,0-.342-2.438c-.072-.037-.12-.093-.2-.124a3.96,3.96,0,0,1,2.066,2.909A3.741,3.741,0,0,1,1345.113,1877.067Z"/>
        <path id="패스_402" data-name="패스 402" class="cls-5" d="M1345.113,1877.067c-.021.09-2.556,4.183-2.556,4.183l-9.169,13.979-9.613,13.551a2.327,2.327,0,0,1-2.7.944c-.2-.067-.4-.133-.628-.224-3.214-1.191-8.032-3.192-14.437-6.158-5.146-2.385-4.912-3.143-4.912-4.018a10,10,0,0,1,.09-2.091v-.045h.022c4.923,2.136,20.263,9.458,20.78,9.189,1.235-.585,11.657-17.338,17.211-25.878,2.767-4.257,4.029-6.064,4.95-7.523a1.618,1.618,0,0,0-.342-2.438c-.072-.037-.12-.093-.2-.124a3.96,3.96,0,0,1,2.066,2.909A3.741,3.741,0,0,1,1345.113,1877.067Z"/>
      </g>
      <path id="패스_403" data-name="패스 403" class="cls-15" d="M1323.669,1867.665l17.1,7.162-18.216,27.058-16.984-7.82Z"/>
      <path id="패스_404" data-name="패스 404" class="cls-13" d="M1318.881,1961.977c4.675-1.332,11.732-18.71,17.11-38.412s8.1-24.091,8.283-30.3-.275-14.352-.275-14.352l-9.237,13.516a24.827,24.827,0,0,0-2.33-7.486c-1.186-2.436-3.414-4.344-5.242-2.887-.98.782,1.591,4.119,1.043,11.568a38.638,38.638,0,0,0,.548,8.935l-17.18,41.611Z"/>
      <path id="패스_405" data-name="패스 405" class="cls-8" d="M1249.729,1875.61c-5.418-1.529-10.013,1.359-12.574,10.007-3.511,11.851-7.564,31.435-9.76,49.588-.728,6.018-1.553,13.313,4.192,13.886,4.382.435,16.966-2,19.233-4.188,2.982-2.876,2.381-14.455,2.381-14.455h-6.485s1.408-9.146,1.837-11.9c1.457-9.336,3.621-21.081,3.621-21.081Z"/>
      <path id="패스_406" data-name="패스 406" class="cls-10" d="M1281.594,1867.142l-2.217,19.5-19.218,2.218,2.772-25.87Z"/>
      <path id="패스_407" data-name="패스 407" class="cls-12" d="M1240.441,1838.674c1.587-18,11.344-25.417,18.892-27.2,15.227-3.589,30.271,1.534,36.424,12.2,1.622,2.812,3.891,12.182,0,21.083-3.3,7.554-55.316-6.087-55.316-6.087"/>
      <path id="패스_408" data-name="패스 408" class="cls-10" d="M1296.782,1848.359s2.742,7.436,2.027,7.985-3.591.639-3.591.639Z"/>
      <path id="패스_409" data-name="패스 409" class="cls-13" d="M1288.572,1824.912c3.635,3.111,9.855,8.743,8.11,24.416-1.793,16.089-5.7,20.457-8.315,22.007-1.765,1.044-9.525-.77-13.116-2.885-4.495-2.645-14.421-9.489-17.447-18.722-3.559-10.863-1.777-23.806,6.078-27.2C1274.936,1817.757,1285.495,1822.279,1288.572,1824.912Z"/>
      <path id="패스_410" data-name="패스 410" class="cls-12" d="M1293.061,1825.319a28.68,28.68,0,0,1-10.287,22.6s-2.266-5.862-7.27-4.506c-5.039,1.366-4.964,7.983-1.27,11.576a7.374,7.374,0,0,0,7.571,2.068s-.908,7.481-6.157,12.236a28.534,28.534,0,0,1-28.7-9.975c-11.137-13.371-7.847-34.572,9.529-40.829C1278.968,1810.386,1293.061,1825.319,1293.061,1825.319Z"/>
      <path id="패스_411" data-name="패스 411" class="cls-12" d="M1257.848,2160.41l8.3,11.533s-3.845,2.253-12.056,2.564c-7.427.286-9.467-2.153-9.742-2.74-1.252-2.688.7-7.54,1.24-11.711Z"/>
      <path id="패스_412" data-name="패스 412" class="cls-12" d="M1265.681,2166.407s10.056-.642,17.011-1.517,12.457,2.517,10.82,5.382-5.46,5.241-11.419,7.245c-5.107,1.718-11.227,2.969-16.557,4.564-5.462,1.635-8.961,3.506-12.056,2.443-3.45-1.191-4.931-2.569-4.637-5.082s2.794-10.6,2.794-10.6Z"/>
      <path id="패스_413" data-name="패스 413" class="cls-16" d="M1244.35,2148.822s1.258,10.475,1.354,12.724,10.223,2.969,12.144-1.136l.313-12.81Z"/>
      <path id="패스_414" data-name="패스 414" class="cls-10" d="M1254.563,2155.268l-3.624,15.891s-.342,1.939,7.938,3.173,21.258-4.331,23.468-5.463,2.474-3.38-5.655-2.93-11.009.468-11.009.468l2.637-7.045Z"/>
      <path id="패스_415" data-name="패스 415" class="cls-17" d="M1244.353,1942.485c-6.932,10.785-13.519,20.283-14.924,32.405-2.968,25.6,6.771,54.861,8.835,73.788,0,0-6.54,8.5-6.533,18.493.005,7.823,12.619,81.651,12.619,81.651s9.176,2.795,13.811-1.222l8.672-135.817-4.567-16.534Z"/>
      <path id="패스_416" data-name="패스 416" class="cls-11" d="M1266.833,2011.783l-4.567-16.534a110.589,110.589,0,0,1-24.75-9.817s4.685,8.507,18.1,13.176l6.99,21.255.6,48.642Z"/>
      <path id="패스_417" data-name="패스 417" class="cls-17" d="M1244.353,1942.485c-3.71,6.052-12.572,16.4-10.688,26.347,2.284,12.051,8.767,20.52,28.6,26.417l18.6,67.365s-9.687,9.066-12.647,17.69-13.658,74.964-13.658,74.964,3.307,5.4,13.755,4.094c0,0,36.431-83.211,39.005-88.566s4.24-9.363,3.084-18.089-13.57-104.17-13.57-104.17Z"/>
      <path id="패스_418" data-name="패스 418" class="cls-15" d="M1240.97,1881.714c1.451-3.83,6.042-7.014,10.161-5.892,12.969,3.531,33.142,8.174,36.974,9.3h.005s-1.72,24.994,13.219,33.808c-.7,5.564-4.492,29.6-4.492,29.6s-17.957,8.7-32.74,4.414-19.744-10.466-19.744-10.466l7.4-12.053c-1.586-3.92-7.684-17.216-11.632-29.579C1238.251,1895.01,1239.52,1885.545,1240.97,1881.714Z"/>
      <path id="패스_419" data-name="패스 419" class="cls-18" d="M1249.729,1925.69c.189.437,14.883,8.31,19.249,9.515-6.883-.343-12.6-1.959-17.229-4.773Z"/>
      <path id="패스_420" data-name="패스 420" class="cls-18" d="M1300.9,1917.011s-8.426-3.515-12.433-11.689A25.774,25.774,0,0,0,1300.9,1924.6Z"/>
      <path id="패스_421" data-name="패스 421" class="cls-13" d="M1288.11,1885.127c8.155,2.446,13.219,3.209,17.629,7.155,5.8,5.191,11.77,34.665,12.99,40.734,2.121,10.551,4.458,21.5,2.17,26.41-1.658,3.556-10.645,6.218-14.6-5.289-.844-2.455-1-3.537-1.742-5.738-3.71-11-9.309-32.029-9.309-32.029S1284.234,1910.282,1288.11,1885.127Z"/>
      <path id="패스_422" data-name="패스 422" class="cls-12" d="M1248.553,1818.407c-2.916,1.684-8.152,3.3-11.393,18.509s-4.806,33.943-4.688,38.678,9.906,17.859,30.553,16.6,28.133-13.336,28.133-13.336-10.136-4.131-9.353-21.8c0,0-3.558,7.043-13.375,3.518S1248.553,1818.407,1248.553,1818.407Z"/>
    </g>
    <path id="패스_435" data-name="패스 435" class="cls-19" d="M1620.649,1767.429a97.253,97.253,0,1,0,97.253,97.253A97.253,97.253,0,0,0,1620.649,1767.429Zm0,173.759a76.506,76.506,0,1,1,76.507-76.506A76.507,76.507,0,0,1,1620.649,1941.188Z" transform="translate(0 87.676)"/>
  </g>
</svg>
