<svg xmlns="http://www.w3.org/2000/svg" width="1922.1" height="1789.863" viewBox="0 0 1922.1 1789.863">
  <defs>
    <style>
      .cls-1 {
        fill: #e8e8f8;
      }
    </style>
  </defs>
  <g id="page5_배경" data-name="page5 배경" transform="translate(1 -374)">
    <g id="page4_나뭇잎" data-name="page4 나뭇잎" transform="translate(-0.883 -3244.616)">
      <path id="패스_1" data-name="패스 1" class="cls-1" d="M-.117,3941.708v26.528h0v43.92h0v.017h0v258.341h0v528.292h1920v-877.15h-30.658c5.614-6.561,8.93-11.006,8.93-11.006l-9.477-3.345c8.971-1.292,24.094-9.676,31.205-13.855v-42.672a113.074,113.074,0,0,0-22.593.856,154.33,154.33,0,0,0,6.834-14.648,100.662,100.662,0,0,0,15.759-6.491V3620.514c-59.915,30.581-50.954,111.125-50.954,111.125-34.165-30.887-88.172-5.849-88.172-5.849,1.778,5.849,19.7,19.563,19.7,19.563.889,64.887,39.4,78.038,39.4,78.038-13.642,10.2-17.128,21.387-17.128,21.387-19.7-24.874-63.391-19.679-63.391-19.679,0,22.9,12.285,39.929,24.427,51.167-10.513-4.276-55.894-20.359-85.937,6.8,0,0,9.359-84.028-54.875-113.022,0,0-21.5,49.725,2.5,101.885,0,0-19.607-10.227-28.171-11.161,0,0-5.844,35.234,15.548,60.886h-54.864c-9.871-12.409-45.885-55.071-78.825-60.92,0,0,27.334-7.512,37.721-20.616,0,0-48.834-45.326-113.116-31.637,0,0,13.807-14.554,20.617-29.2,0,0-42.776-11.935-85.62,3.625l4.3-10.459s-28.266-5.825-69.451,21.482L1274.92,3781.9c-9.408-4.918-22.577-10.339-29-7.933a6.694,6.694,0,0,0-1.083.335c-15.518-5.568-27.909-3.235-27.909-3.235,22.229-25.714,16.239-61.727,16.239-61.727-8.564.935-28.171,11.162-28.171,11.162,24.007-52.16,2.5-101.886,2.5-101.886-64.234,28.994-54.874,113.023-54.874,113.023-34.165-30.887-88.172-5.849-88.172-5.849,1.778,5.849,19.7,19.563,19.7,19.563.889,64.887,39.4,78.038,39.4,78.038-13.642,10.2-17.128,21.387-17.128,21.387-19.7-24.874-63.391-19.679-63.391-19.679,0,22.9,12.285,39.929,24.427,51.167-10.513-4.276-55.894-20.359-85.937,6.8,0,0,9.359-84.028-54.875-113.022,0,0-21.5,49.725,2.5,101.885,0,0-19.608-10.227-28.171-11.161,0,0-5.844,35.234,15.548,60.886H861.677c-9.871-12.409-45.885-55.071-78.825-60.92,0,0,27.334-7.512,37.721-20.616,0,0-48.834-45.326-113.116-31.637,0,0,13.807-14.554,20.617-29.2,0,0-42.777-11.935-85.62,3.625l4.3-10.459s-28.265-5.825-69.45,21.482L558.618,3781.9c-9.408-4.918-22.577-10.339-29-7.933a6.733,6.733,0,0,0-1.084.335c-15.517-5.568-27.908-3.235-27.908-3.235,22.229-25.714,16.239-61.727,16.239-61.727-8.564.935-28.171,11.162-28.171,11.162,24.007-52.16,2.5-101.886,2.5-101.886-64.234,28.994-54.874,113.023-54.874,113.023-34.165-30.887-88.172-5.849-88.172-5.849,1.778,5.849,19.7,19.563,19.7,19.563.889,64.887,39.4,78.038,39.4,78.038-13.642,10.2-17.128,21.387-17.128,21.387-19.7-24.874-63.391-19.679-63.391-19.679,0,22.9,12.285,39.929,24.427,51.167-10.513-4.276-55.894-20.359-85.937,6.8,0,0,9.359-84.028-54.875-113.022,0,0-21.5,49.725,2.5,101.885,0,0-19.608-10.227-28.172-11.161,0,0-5.843,35.234,15.549,60.886H145.375c-9.871-12.409-45.885-55.071-78.825-60.92,0,0,27.333-7.512,37.721-20.616,0,0-44.466-41.268-104.388-33.154v134.742Z"/>
      <g id="그룹_1" data-name="그룹 1">
        <path id="패스_2" data-name="패스 2" class="cls-1" d="M63.136,3838.131c-23.9-4.522-48.108-10.469-63.253-14.392v11.076c26.4,6.458,61.473,12.208,61.473,12.208C70.483,3844.519,63.136,3838.131,63.136,3838.131Z"/>
        <path id="패스_3" data-name="패스 3" class="cls-1" d="M415.358,3872.157s-9.757,33.415-14.53,37.721l11.535-1.8s19.749-29.53,12.074-72.7C424.437,3835.371,414.1,3864.9,415.358,3872.157Z"/>
        <path id="패스_4" data-name="패스 4" class="cls-1" d="M418.353,3767.253l-13.571-3.414s8.144,35.1,15.256,44.084C420.038,3807.923,423.081,3782.627,418.353,3767.253Z"/>
        <path id="패스_5" data-name="패스 5" class="cls-1" d="M440.3,3794.608s4.213-20.076,6.389-24.381l-16.73-.422s2.6,26.49,0,36.855Z"/>
        <path id="패스_6" data-name="패스 6" class="cls-1" d="M603.89,3810.707c27.8,33.393,61.634,63.7,61.634,63.7,3.932,6.436-1.215,9.359-1.215,9.359a42.8,42.8,0,0,0,9.875,2.691C638.546,3813.632,603.89,3810.707,603.89,3810.707Z"/>
        <path id="패스_7" data-name="패스 7" class="cls-1" d="M603.047,3825.566s16.241,44.2,52.229,53.983C655.276,3879.549,604.686,3830.76,603.047,3825.566Z"/>
        <path id="패스_8" data-name="패스 8" class="cls-1" d="M1131.66,3872.157s-9.757,33.415-14.53,37.721l11.535-1.8s19.749-29.53,12.074-72.7C1140.739,3835.371,1130.4,3864.9,1131.66,3872.157Z"/>
        <path id="패스_9" data-name="패스 9" class="cls-1" d="M1134.656,3767.253l-13.572-3.414s8.144,35.1,15.256,44.084C1136.34,3807.923,1139.383,3782.627,1134.656,3767.253Z"/>
        <path id="패스_10" data-name="패스 10" class="cls-1" d="M1156.6,3794.608s4.213-20.076,6.389-24.381l-16.73-.422s2.6,26.49,0,36.855Z"/>
        <path id="패스_11" data-name="패스 11" class="cls-1" d="M1366.407,3829.92c3.908,4.327,18.017,25.269,18.017,25.269l-.42-17.947a7.968,7.968,0,0,1-6.436-8.54Z"/>
        <path id="패스_12" data-name="패스 12" class="cls-1" d="M1320.192,3810.707c27.8,33.393,61.634,63.7,61.634,63.7,3.932,6.436-1.214,9.359-1.214,9.359a42.787,42.787,0,0,0,9.874,2.691C1354.848,3813.632,1320.192,3810.707,1320.192,3810.707Z"/>
        <path id="패스_13" data-name="패스 13" class="cls-1" d="M1319.349,3825.566s16.241,44.2,52.229,53.983C1371.578,3879.549,1320.988,3830.76,1319.349,3825.566Z"/>
        <path id="패스_14" data-name="패스 14" class="cls-1" d="M1746.01,3897.373a84.363,84.363,0,0,1,12.9-9.546c-25.094,5.849-51.242,21.5-51.242,21.5C1722.815,3908.554,1736.385,3902.793,1746.01,3897.373Z"/>
        <path id="패스_15" data-name="패스 15" class="cls-1" d="M1394.792,3845.854s2.284,43.1,31.83,75.8H1433a7.332,7.332,0,0,1-.209-1.015S1411.359,3853.179,1394.792,3845.854Z"/>
        <path id="패스_16" data-name="패스 16" class="cls-1" d="M1394.159,3829.124v3.276s19.867,1.4,48.93,85.782C1443.089,3918.182,1456.381,3853.179,1394.159,3829.124Z"/>
        <path id="패스_17" data-name="패스 17" class="cls-1" d="M1232.374,3793.321c-35.5,9.408-77.5,33.743-77.5,33.743C1201.581,3837.408,1232.374,3793.321,1232.374,3793.321Z"/>
        <path id="패스_18" data-name="패스 18" class="cls-1" d="M1144.578,3897.524c27-27.449,66.69-34.75,66.69-34.75,9.9,0,3.93,8.073,3.93,8.073-42.822,11.957-59.061,30.865-59.061,30.865,32.526-3.465,67.649-37.229,67.649-37.229C1151.5,3846.041,1144.578,3897.524,1144.578,3897.524Z"/>
        <path id="패스_19" data-name="패스 19" class="cls-1" d="M1029.707,3897.373a84.372,84.372,0,0,1,12.9-9.546c-25.094,5.849-51.243,21.5-51.243,21.5C1006.513,3908.554,1020.083,3902.793,1029.707,3897.373Z"/>
        <path id="패스_20" data-name="패스 20" class="cls-1" d="M678.49,3845.854s2.284,43.1,31.83,75.8h6.38a7.314,7.314,0,0,1-.209-1.015S695.057,3853.179,678.49,3845.854Z"/>
        <path id="패스_21" data-name="패스 21" class="cls-1" d="M677.857,3829.124v3.276s19.867,1.4,48.93,85.782C726.787,3918.182,740.079,3853.179,677.857,3829.124Z"/>
        <path id="패스_22" data-name="패스 22" class="cls-1" d="M516.072,3793.321c-35.5,9.408-77.5,33.743-77.5,33.743C485.279,3837.408,516.072,3793.321,516.072,3793.321Z"/>
        <path id="패스_23" data-name="패스 23" class="cls-1" d="M428.276,3897.524c27-27.449,66.69-34.75,66.69-34.75,9.9,0,3.93,8.073,3.93,8.073-42.822,11.957-59.061,30.865-59.061,30.865,32.526-3.465,67.649-37.229,67.649-37.229C435.2,3846.041,428.276,3897.524,428.276,3897.524Z"/>
        <path id="패스_24" data-name="패스 24" class="cls-1" d="M313.4,3897.373a84.374,84.374,0,0,1,12.9-9.546c-25.094,5.849-51.243,21.5-51.243,21.5C290.211,3908.554,303.781,3902.793,313.4,3897.373Z"/>
        <path id="패스_25" data-name="패스 25" class="cls-1" d="M10.485,3918.182s6.422-31.448-10.6-58.692V3889.9C3.255,3898.1,6.8,3907.47,10.485,3918.182Z"/>
        <path id="패스_26" data-name="패스 26" class="cls-1" d="M1847.962,3872.157s-9.757,33.415-14.53,37.721l11.535-1.8s19.75-29.53,12.075-72.7C1857.042,3835.371,1846.7,3864.9,1847.962,3872.157Z"/>
        <path id="패스_27" data-name="패스 27" class="cls-1" d="M1850.958,3767.253l-13.572-3.414s8.144,35.1,15.256,44.084C1852.642,3807.923,1855.685,3782.627,1850.958,3767.253Z"/>
        <path id="패스_28" data-name="패스 28" class="cls-1" d="M1872.439,3901.712c16.876-1.8,34.438-11.75,47.444-20.913v-6.333C1885.711,3886.266,1872.439,3901.712,1872.439,3901.712Z"/>
        <path id="패스_29" data-name="패스 29" class="cls-1" d="M1860.88,3897.524c19.694-20.02,46.132-29.32,59-32.89V3860.9C1866.47,3856.057,1860.88,3897.524,1860.88,3897.524Z"/>
        <path id="패스_30" data-name="패스 30" class="cls-1" d="M1872.907,3794.608s4.212-20.076,6.388-24.381l-16.73-.422s2.6,26.49,0,36.855Z"/>
        <path id="패스_31" data-name="패스 31" class="cls-1" d="M1884.49,3853.366l7.56-15s-18.3,1.242-24.245-2.268c0,0,2.013,18,.283,28.385Z"/>
        <path id="패스_32" data-name="패스 32" class="cls-1" d="M1871.177,3827.064c19.305,4.275,35.889-.751,48.706-8.117v-15.69A451.908,451.908,0,0,0,1871.177,3827.064Z"/>
        <path id="패스_33" data-name="패스 33" class="cls-1" d="M1869.818,3815.67c14.566-8.6,34.312-16.99,50.065-23.113V3781.6C1882.878,3787.552,1869.818,3815.67,1869.818,3815.67Z"/>
        <path id="패스_34" data-name="패스 34" class="cls-1" d="M1885.264,3784.781l13.782-7.674a281.308,281.308,0,0,0,20.837-29.028v-15.151C1892.362,3750.112,1885.264,3784.781,1885.264,3784.781Z"/>
        <path id="패스_35" data-name="패스 35" class="cls-1" d="M1905.854,3662.375s3.278-4.236,6.249-2.667l-13.948,57.214c-3.065,10.739-5.545,20.264-6.1,24.989,16.051-13.821,24.123-31.156,27.833-47.887v-54.4c-.789-3.943-1.44-6.216-1.44-6.216-56.722,42.542-36.572,106.355-36.572,106.355S1898.576,3673,1905.854,3662.375Z"/>
        <path id="패스_36" data-name="패스 36" class="cls-1" d="M1812.957,3726.983s39.685,12.005,59.061,27.027C1872.018,3754.01,1863.032,3720.5,1812.957,3726.983Z"/>
        <path id="패스_37" data-name="패스 37" class="cls-1" d="M1806.077,3735.993s23.541,20.4,53.025,21.9C1859.1,3757.894,1831.7,3741.489,1806.077,3735.993Z"/>
        <path id="패스_38" data-name="패스 38" class="cls-1" d="M1811.505,3751.786s-2.013,44.226,31.778,61.1c0,0-12.355-25.668-17.6-52.369Z"/>
        <path id="패스_39" data-name="패스 39" class="cls-1" d="M1847.167,3833.148s-29.157,9.009-32.152,83.585l4.354-1.31s18.345-30.887,20.03-53.562C1839.4,3861.861,1843.75,3836.986,1847.167,3833.148Z"/>
        <path id="패스_40" data-name="패스 40" class="cls-1" d="M1816.326,3853.623c-12.005-18.252-32.152-17.525-32.152-17.525,9.875,6.059,30.046,24.007,30.046,24.007Z"/>
        <path id="패스_41" data-name="패스 41" class="cls-1" d="M1808.184,3880.7l1.73-10.318c-9.079-11.583-36.832-29.46-36.832-29.46C1777.762,3866.189,1808.184,3880.7,1808.184,3880.7Z"/>
        <path id="패스_42" data-name="패스 42" class="cls-1" d="M1694.748,3905.439c19.376-15.021,59.061-27.026,59.061-27.026C1703.734,3871.931,1694.748,3905.439,1694.748,3905.439Z"/>
        <path id="패스_43" data-name="패스 43" class="cls-1" d="M1674.716,3893.341c-.56-4.726-3.041-14.25-6.1-24.99l-13.948-57.213c2.971-1.57,6.249,2.667,6.249,2.667,7.277,10.622,23.983,77.384,23.983,77.384s20.15-63.812-36.573-106.354C1648.322,3784.835,1628.573,3853.608,1674.716,3893.341Z"/>
        <path id="패스_44" data-name="패스 44" class="cls-1" d="M1676.73,3921.656c-5.9-14.108-18.147-34.566-41.464-42.939,0,0,8.925,19.4,27,42.939Z"/>
        <path id="패스_45" data-name="패스 45" class="cls-1" d="M1650.8,3921.656a136.754,136.754,0,0,1-21.5-33.041s.331,16.073,17.036,33.041Z"/>
        <path id="패스_46" data-name="패스 46" class="cls-1" d="M1547.171,3916.03s-40.248-10.833-87.843-42.8c0,0,24.477,51.807,103.687,45.723,0,0-4.236-6.271-8.542-8.588C1554.473,3910.368,1554.894,3918.956,1547.171,3916.03Z"/>
        <path id="패스_47" data-name="패스 47" class="cls-1" d="M1465.788,3865.464c57.024,35.545,85.6,41.978,85.6,41.978C1515.887,3863.264,1465.788,3865.464,1465.788,3865.464Z"/>
        <path id="패스_48" data-name="패스 48" class="cls-1" d="M1495.74,3838.131s7.347,6.388-1.78,8.892c0,0-49.093-8.049-74.833-15.795,0,0,16.287,13.643,17.128,16.59,0,0,48.345,20.265,83.095-6.761,0,0-42.846-38.212-102.353-21.458C1417,3819.6,1456.779,3830.76,1495.74,3838.131Z"/>
        <path id="패스_49" data-name="패스 49" class="cls-1" d="M1428.089,3786.136l-5.966-.256a4.753,4.753,0,0,1-3,5.5c-6.834,3.415-69.4,22.253-69.4,22.253C1398.956,3833.8,1428.089,3786.136,1428.089,3786.136Z"/>
        <path id="패스_50" data-name="패스 50" class="cls-1" d="M1336.853,3806.356c11.489-1.687,68.094-20.476,68.094-20.476-43.2-2.248-72.822,17.971-72.822,17.971Z"/>
        <path id="패스_51" data-name="패스 51" class="cls-1" d="M1342.985,3783.259s-20.267,2.877-32.248,13.665l11.14,2.106S1335.12,3789.225,1342.985,3783.259Z"/>
        <path id="패스_52" data-name="패스 52" class="cls-1" d="M1315.512,3860.384s-8.566-62.219-48.462-69.918c0,0,24.453,29.133,41.113,49.654,0,0,4.306,12.052-7.207,6.9,0,0-40.864-51.955-51.992-58.477q-.513.789-1.075,1.623C1248.665,3799.947,1255.519,3840.149,1315.512,3860.384Z"/>
        <path id="패스_53" data-name="패스 53" class="cls-1" d="M1153.516,3815.67C1181.853,3798.938,1229.8,3783,1229.8,3783c4.261-1.147,7.232,4.773,7.232,4.773l1.779-2.173a28.08,28.08,0,0,1,.372-2.941C1174.622,3770.245,1153.516,3815.67,1153.516,3815.67Z"/>
        <path id="패스_54" data-name="패스 54" class="cls-1" d="M1168.961,3784.781l13.783-7.674c21.738-26.514,32.454-49.82,32.454-49.82C1177.993,3740.649,1168.961,3784.781,1168.961,3784.781Z"/>
        <path id="패스_55" data-name="패스 55" class="cls-1" d="M1189.552,3662.375s3.278-4.236,6.249-2.667l-13.948,57.214c-3.065,10.739-5.545,20.264-6.1,24.989,46.142-39.733,26.393-108.506,26.393-108.506-56.722,42.542-36.572,106.355-36.572,106.355S1182.274,3673,1189.552,3662.375Z"/>
        <path id="패스_56" data-name="패스 56" class="cls-1" d="M1096.655,3726.983s39.685,12.005,59.061,27.027C1155.716,3754.01,1146.73,3720.5,1096.655,3726.983Z"/>
        <path id="패스_57" data-name="패스 57" class="cls-1" d="M1089.775,3735.993s23.54,20.4,53.025,21.9C1142.8,3757.894,1115.4,3741.489,1089.775,3735.993Z"/>
        <path id="패스_58" data-name="패스 58" class="cls-1" d="M1095.2,3751.786s-2.013,44.226,31.778,61.1c0,0-12.355-25.668-17.6-52.369Z"/>
        <path id="패스_59" data-name="패스 59" class="cls-1" d="M1130.865,3833.148s-29.157,9.009-32.152,83.585l4.354-1.31s18.345-30.887,20.03-53.562C1123.1,3861.861,1127.448,3836.986,1130.865,3833.148Z"/>
        <path id="패스_60" data-name="패스 60" class="cls-1" d="M1100.024,3853.623c-12.005-18.252-32.152-17.525-32.152-17.525,9.875,6.059,30.046,24.007,30.046,24.007Z"/>
        <path id="패스_61" data-name="패스 61" class="cls-1" d="M1091.882,3880.7l1.73-10.318c-9.079-11.583-36.832-29.46-36.832-29.46C1061.46,3866.189,1091.882,3880.7,1091.882,3880.7Z"/>
        <path id="패스_62" data-name="패스 62" class="cls-1" d="M978.446,3905.439c19.376-15.021,59.061-27.026,59.061-27.026C987.432,3871.931,978.446,3905.439,978.446,3905.439Z"/>
        <path id="패스_63" data-name="패스 63" class="cls-1" d="M958.414,3893.341c-.56-4.726-3.041-14.25-6.1-24.99l-13.948-57.213c2.971-1.57,6.249,2.667,6.249,2.667,7.277,10.622,23.983,77.384,23.983,77.384s20.15-63.812-36.573-106.354C932.02,3784.835,912.271,3853.608,958.414,3893.341Z"/>
        <path id="패스_64" data-name="패스 64" class="cls-1" d="M960.428,3921.656c-5.9-14.108-18.147-34.566-41.464-42.939,0,0,8.925,19.4,27,42.939Z"/>
        <path id="패스_65" data-name="패스 65" class="cls-1" d="M934.494,3921.656a136.754,136.754,0,0,1-21.5-33.041s.331,16.073,17.036,33.041Z"/>
        <path id="패스_66" data-name="패스 66" class="cls-1" d="M830.869,3916.03s-40.248-10.833-87.843-42.8c0,0,24.477,51.807,103.687,45.723,0,0-4.237-6.271-8.543-8.588C838.17,3910.368,838.592,3918.956,830.869,3916.03Z"/>
        <path id="패스_67" data-name="패스 67" class="cls-1" d="M749.486,3865.464c57.024,35.545,85.6,41.978,85.6,41.978C799.585,3863.264,749.486,3865.464,749.486,3865.464Z"/>
        <path id="패스_68" data-name="패스 68" class="cls-1" d="M779.438,3838.131s7.347,6.388-1.78,8.892c0,0-49.093-8.049-74.833-15.795,0,0,16.287,13.643,17.128,16.59,0,0,48.345,20.265,83.094-6.761,0,0-42.845-38.212-102.352-21.458C700.7,3819.6,740.476,3830.76,779.438,3838.131Z"/>
        <path id="패스_69" data-name="패스 69" class="cls-1" d="M711.787,3786.136l-5.966-.256a4.753,4.753,0,0,1-3,5.5c-6.834,3.415-69.405,22.253-69.405,22.253C682.654,3833.8,711.787,3786.136,711.787,3786.136Z"/>
        <path id="패스_70" data-name="패스 70" class="cls-1" d="M620.551,3806.356c11.489-1.687,68.094-20.476,68.094-20.476-43.2-2.248-72.822,17.971-72.822,17.971Z"/>
        <path id="패스_71" data-name="패스 71" class="cls-1" d="M626.682,3783.259s-20.266,2.877-32.247,13.665l11.139,2.106S618.818,3789.225,626.682,3783.259Z"/>
        <path id="패스_72" data-name="패스 72" class="cls-1" d="M599.21,3860.384s-8.566-62.219-48.462-69.918c0,0,24.452,29.133,41.113,49.654,0,0,4.306,12.052-7.207,6.9,0,0-40.864-51.955-51.992-58.477q-.513.789-1.075,1.623C532.363,3799.947,539.217,3840.149,599.21,3860.384Z"/>
        <path id="패스_73" data-name="패스 73" class="cls-1" d="M437.214,3815.67C465.551,3798.938,513.5,3783,513.5,3783c4.261-1.147,7.232,4.773,7.232,4.773l1.779-2.173a27.845,27.845,0,0,1,.372-2.941C458.32,3770.245,437.214,3815.67,437.214,3815.67Z"/>
        <path id="패스_74" data-name="패스 74" class="cls-1" d="M486.12,3771.911c18.393-17.573,18.745-34.725,18.745-34.725a134.308,134.308,0,0,1-23.049,34.725Z"/>
        <path id="패스_75" data-name="패스 75" class="cls-1" d="M452.659,3784.781l13.783-7.674c21.738-26.514,32.454-49.82,32.454-49.82C461.691,3740.649,452.659,3784.781,452.659,3784.781Z"/>
        <path id="패스_76" data-name="패스 76" class="cls-1" d="M473.25,3662.375s3.278-4.236,6.249-2.667l-13.948,57.214c-3.065,10.739-5.545,20.264-6.1,24.989,46.142-39.733,26.393-108.506,26.393-108.506-56.722,42.542-36.572,106.355-36.572,106.355S465.972,3673,473.25,3662.375Z"/>
        <path id="패스_77" data-name="패스 77" class="cls-1" d="M380.353,3726.983s39.685,12.005,59.061,27.027C439.414,3754.01,430.428,3720.5,380.353,3726.983Z"/>
        <path id="패스_78" data-name="패스 78" class="cls-1" d="M373.473,3735.993s23.54,20.4,53.025,21.9C426.5,3757.894,399.1,3741.489,373.473,3735.993Z"/>
        <path id="패스_79" data-name="패스 79" class="cls-1" d="M378.9,3751.786s-2.013,44.226,31.778,61.1c0,0-12.355-25.668-17.6-52.369Z"/>
        <path id="패스_80" data-name="패스 80" class="cls-1" d="M414.563,3833.148s-29.157,9.009-32.152,83.585l4.354-1.31s18.345-30.887,20.029-53.562C406.794,3861.861,411.146,3836.986,414.563,3833.148Z"/>
        <path id="패스_81" data-name="패스 81" class="cls-1" d="M383.722,3853.623c-12-18.252-32.152-17.525-32.152-17.525,9.875,6.059,30.045,24.007,30.045,24.007Z"/>
        <path id="패스_82" data-name="패스 82" class="cls-1" d="M375.58,3880.7l1.73-10.318c-9.079-11.583-36.832-29.46-36.832-29.46C345.158,3866.189,375.58,3880.7,375.58,3880.7Z"/>
        <path id="패스_83" data-name="패스 83" class="cls-1" d="M262.144,3905.439c19.376-15.021,59.061-27.026,59.061-27.026C271.13,3871.931,262.144,3905.439,262.144,3905.439Z"/>
        <path id="패스_84" data-name="패스 84" class="cls-1" d="M242.112,3893.341c-.561-4.726-3.041-14.25-6.1-24.99l-13.948-57.213c2.971-1.57,6.249,2.667,6.249,2.667,7.277,10.622,23.983,77.384,23.983,77.384s20.149-63.812-36.573-106.354C215.718,3784.835,195.969,3853.608,242.112,3893.341Z"/>
        <path id="패스_85" data-name="패스 85" class="cls-1" d="M244.126,3921.656c-5.9-14.108-18.148-34.566-41.464-42.939,0,0,8.925,19.4,27,42.939Z"/>
        <path id="패스_86" data-name="패스 86" class="cls-1" d="M218.192,3921.656a136.754,136.754,0,0,1-21.5-33.041s.331,16.073,17.036,33.041Z"/>
        <path id="패스_87" data-name="패스 87" class="cls-1" d="M114.567,3916.03s-40.248-10.833-87.843-42.8c0,0,24.477,51.807,103.687,45.723,0,0-4.237-6.271-8.543-8.588C121.868,3910.368,122.29,3918.956,114.567,3916.03Z"/>
        <path id="패스_88" data-name="패스 88" class="cls-1" d="M33.184,3865.464c57.024,35.545,85.6,41.978,85.6,41.978C83.283,3863.264,33.184,3865.464,33.184,3865.464Z"/>
        <path id="패스_89" data-name="패스 89" class="cls-1" d="M63.136,3838.131s7.347,6.388-1.78,8.892c0,0-35.074-5.75-61.473-12.208v8.422c2.023,2.021,3.528,3.739,3.768,4.581,0,0,48.345,20.265,83.094-6.761,0,0-35.552-31.7-86.862-24.686v7.368C15.028,3827.662,39.235,3833.609,63.136,3838.131Z"/>
      </g>
    </g>
    <g id="page4" transform="translate(-0.883 -3600)">
      <rect id="page3" class="cls-1" width="1920.159" height="1432.43" transform="translate(1.823 4331.432)"/>
    </g>
  </g>
</svg>
