<svg xmlns="http://www.w3.org/2000/svg" width="131.113" height="156.808" viewBox="0 0 131.113 156.808">
  <g id="하트위치" transform="translate(-1223.304 -544.951)">
    <g id="그룹_201" data-name="그룹 201">
      <g id="그룹_200" data-name="그룹 200">
        <path id="패스_365" data-name="패스 365" d="M1354.417,610.507c0,36.206-65.643,91.252-65.643,91.252s-65.47-55.046-65.47-91.252a65.557,65.557,0,0,1,131.113,0Z" fill="#ff1229"/>
      </g>
    </g>
    <g id="그룹_202" data-name="그룹 202">
      <circle id="타원_1" data-name="타원 1" cx="42.096" cy="42.096" r="42.096" transform="translate(1246.764 568.411)" fill="#fff"/>
    </g>
    <g id="그룹_204" data-name="그룹 204">
      <g id="그룹_203" data-name="그룹 203">
        <path id="패스_366" data-name="패스 366" d="M1303.04,589.238a14.179,14.179,0,0,0-14.179,14.179,14.18,14.18,0,0,0-28.36,0,14.7,14.7,0,0,0,1.215,5.706c5.422,12.928,27.058,31.744,27.058,31.744s21.808-18.816,27.23-31.744a14.7,14.7,0,0,0,1.216-5.706A14.18,14.18,0,0,0,1303.04,589.238Z" fill="#ff1229"/>
      </g>
    </g>
  </g>
</svg>
