<svg xmlns="http://www.w3.org/2000/svg" width="69.007" height="132.347" viewBox="0 0 69.007 132.347">
  <g id="나뭇잎1" transform="translate(-829.368 -390.673)">
    <g id="그룹_225" data-name="그룹 225">
      <path id="패스_427" data-name="패스 427" d="M887.6,523.02l-4.646-1.677c-1.391-.5-34.206-12.674-47.84-45.572-9.565-23.081-7.174-50.224,7.106-80.676l2.074-4.422,4.47,1.97a90.74,90.74,0,0,1,33.385,28.3c13.133,18.179,25.04,49.842,7.185,97.448ZM849.11,404.146c-11.091,25.772-12.709,48.525-4.8,67.7,9.05,21.943,28.539,33.66,37.443,38.045,11.014-32.548,8.514-60.361-7.456-82.73A84.173,84.173,0,0,0,849.11,404.146Z" fill="#ff7f8b"/>
    </g>
    <g id="그룹_226" data-name="그룹 226">
      <path id="패스_428" data-name="패스 428" d="M884.65,521.642a5,5,0,0,1-4.66-3.186c-1.016-2.609-24.954-64.19-30.009-90.677A5,5,0,1,1,859.8,425.9c4.884,25.594,29.258,88.29,29.5,88.921a5,5,0,0,1-4.658,6.817Z" fill="#ff7f8b"/>
    </g>
  </g>
</svg>
