<svg xmlns="http://www.w3.org/2000/svg" width="109.985" height="86.709" viewBox="0 0 109.985 86.709">
  <g id="나뭇잎3" transform="translate(-438.509 -930.614)">
    <g id="그룹_219" data-name="그룹 219">
      <path id="패스_423" data-name="패스 423" d="M445.983,1017.323q-1.258,0-2.536-.018l-4.938-.074.012-4.939c0-1.478.394-36.476,26.766-60.407,18.5-16.789,44.859-23.693,78.344-20.522l4.863.461-.347,4.872a90.734,90.734,0,0,1-15.385,40.977C520.291,995.857,495.146,1017.323,445.983,1017.323Zm82.373-76.708c-23.754,0-42.665,6.257-56.35,18.676-17.616,15.986-22.021,38.184-23.12,48.008,34.555-.608,59.98-12.463,75.629-35.282a83.8,83.8,0,0,0,12.934-31.111Q532.792,940.613,528.356,940.615Z" fill="#ffa9b2"/>
    </g>
    <g id="그룹_220" data-name="그룹 220">
      <path id="패스_424" data-name="패스 424" d="M443.523,1017.3a5,5,0,0,1-3.282-8.773c2.113-1.837,52.012-45.143,75.241-58.836a5,5,0,1,1,5.078,8.615c-22.442,13.228-73.248,57.324-73.759,57.767A4.979,4.979,0,0,1,443.523,1017.3Z" fill="#ffa9b2"/>
    </g>
  </g>
</svg>
