<svg xmlns="http://www.w3.org/2000/svg" width="78.497" height="124.791" viewBox="0 0 78.497 124.791">
  <g id="나뭇잎2" transform="translate(-1633.869 -534.994)">
    <g id="그룹_222" data-name="그룹 222">
      <path id="패스_425" data-name="패스 425" d="M1650.514,656.612q-1.133.547-2.29,1.087l-4.477,2.086-2.141-4.451c-.64-1.332-15.536-33.005-2.223-66.034,9.339-23.173,30.057-40.869,61.58-52.6l4.577-1.7,1.81,4.537a90.735,90.735,0,0,1,4,43.586C1708.049,604.918,1694.767,635.2,1650.514,656.612Zm40.729-104.932c-21.382,10.348-35.677,24.219-42.585,41.359-8.893,22.063-3.188,43.963.1,53.285,30.84-15.6,48.56-37.348,52.706-64.7a83.811,83.811,0,0,0-1.911-33.638Q1695.237,549.747,1691.243,551.68Z" fill="#ff1229"/>
    </g>
    <g id="그룹_223" data-name="그룹 223">
      <path id="패스_426" data-name="패스 426" d="M1648.292,657.667a5,5,0,0,1-6.776-6.467c1.1-2.574,27.151-63.293,42.095-85.737a5,5,0,0,1,8.324,5.542c-14.438,21.683-40.96,83.508-41.226,84.13A4.985,4.985,0,0,1,1648.292,657.667Z" fill="#ff1229"/>
    </g>
  </g>
</svg>
